<svg width="103" height="42" viewBox="0 0 103 42" fill="none" xmlns="http://www.w3.org/2000/svg">
<path fill-rule="evenodd" clip-rule="evenodd" d="M19.0906 33.4972C19.371 32.599 19.608 31.8238 19.7311 31.4134C20.4744 28.9147 23.0734 22.9324 23.4633 18.163C23.7619 14.5244 22.7793 11.5788 19.4257 10.7535C16.3775 10.0035 13.2997 11.857 10.5731 15.1969C4.70475 22.3853 0.25454 36.3743 0.00147821 40.9477C-0.0258798 41.447 0.354851 41.8733 0.854135 41.9007C1.35114 41.928 1.77745 41.5473 1.80481 41.048C2.04875 36.6593 6.33943 23.2402 11.9729 16.3391C14.1752 13.6421 16.5325 11.9026 18.9948 12.509C21.4251 13.1063 21.8788 15.377 21.6622 18.0148C21.2838 22.6565 18.7235 28.4656 17.9985 30.8982C17.5448 32.4234 15.6503 38.1914 15.607 38.7249C15.5522 39.3929 16.0287 39.6163 16.1906 39.6778C16.316 39.7257 16.9566 39.924 17.3556 39.2059C23.0506 28.9694 38.875 17.2032 55.7321 12.5136C72.441 7.86498 90.2169 10.2018 100.038 28.2422C100.278 28.6799 100.827 28.8417 101.265 28.6046C101.703 28.3652 101.865 27.8158 101.625 27.3781C91.3341 8.47596 72.7533 5.90201 55.2488 10.7717C40.4959 14.8755 26.5456 24.2912 19.0906 33.4972Z" fill="black"/>
<path fill-rule="evenodd" clip-rule="evenodd" d="M100.195 26.9425C98.2226 26.1355 96.2848 25.2691 94.2489 24.6148C88.8251 22.8707 82.8201 22.2073 77.1912 23.2104C76.6987 23.2993 76.3726 23.769 76.4593 24.2592C76.5482 24.7516 77.0179 25.0776 77.508 24.991C82.8497 24.0357 88.5492 24.6809 93.6948 26.3361C96.0248 27.0861 98.2272 28.1189 100.5 29.0149C100.614 29.0582 101.59 29.4777 101.82 29.5096C102.356 29.5871 102.627 29.2771 102.734 29.1175C102.826 28.9853 102.903 28.8051 102.91 28.5635C102.915 28.3651 102.835 27.9867 102.62 27.5034C101.939 25.9531 99.8299 22.5652 99.5427 21.9725C96.2483 15.1786 94.3241 8.30485 92.1172 1.11881C91.969 0.642321 91.4629 0.373271 90.9864 0.519181C90.5099 0.66509 90.2431 1.17126 90.3891 1.64774C92.6233 8.92498 94.5817 15.883 97.9171 22.759C98.1131 23.1671 99.3238 25.3672 100.195 26.9425Z" fill="black"/>
</svg>
