<svg width="102" height="88" viewBox="0 0 102 88" fill="none" xmlns="http://www.w3.org/2000/svg">
<path d="M82.0101 15.8213L39.8203 6.03814C39.3634 5.93219 38.8795 6.00046 38.4642 6.22946L13.8192 19.819C12.9037 20.3239 12.5594 21.4591 13.0498 22.3562L42.6903 76.5775C43.2278 77.5606 44.5264 77.8333 45.4513 77.1571L94.6887 41.1598C95.4558 40.599 95.6959 39.5708 95.2501 38.7553L83.2069 16.7248C82.9573 16.2681 82.5229 15.9402 82.0101 15.8213Z" stroke="white" stroke-width="3.48277" stroke-linecap="round"/>
<path d="M13.3438 21.0061L94.8457 39.9147" stroke="white" stroke-width="3.48277" stroke-linecap="round"/>
<path d="M52.9558 10.4454L34.3524 24.9393C33.784 25.3822 33.5122 26.101 33.6512 26.7938L42.9753 73.2737C43.287 74.8272 45.302 75.2702 46.3001 74.0045L75.8621 36.5181C76.2808 35.9872 76.3854 35.2811 76.1366 34.6663L67.7211 13.8692" stroke="white" stroke-width="3.48277" stroke-linecap="round"/>
</svg>
