<svg width="75" height="63" viewBox="0 0 75 63" fill="none" xmlns="http://www.w3.org/2000/svg">
<path d="M51.9492 2.57972L18.3117 6.41663C17.847 6.46964 17.4209 6.69422 17.1171 7.04628L3.2378 23.1301C2.56424 23.9106 2.66033 25.0954 3.45224 25.774L40.3843 57.4239C41.2473 58.1635 42.557 57.9862 43.1729 57.0464L68.6235 18.2155C69.1374 17.4315 68.9831 16.3823 68.2631 15.7653L53.3972 3.02561C52.9962 2.68196 52.4709 2.52021 51.9492 2.57972Z" stroke="white" stroke-width="2.81161" stroke-linecap="round"/>
<path d="M2.96802 24.4361L68.5723 16.9603" stroke="white" stroke-width="2.81161" stroke-linecap="round"/>
<path d="M29.129 6.23227L19.7441 21.5898C19.3698 22.2023 19.3839 22.9786 19.7803 23.5858L39.7433 54.1661C40.6163 55.5034 42.646 55.2352 43.1088 53.7214L53.5192 19.6662C53.7144 19.0275 53.5513 18.3295 53.0914 17.836L41.0137 4.87663" stroke="white" stroke-width="2.81161" stroke-linecap="round"/>
</svg>
