<svg width="142" height="143" viewBox="0 0 142 143" fill="none" xmlns="http://www.w3.org/2000/svg">
<path d="M18.7925 23.1889L47.3619 49.8172" stroke="white" stroke-width="3.48277" stroke-linecap="round"/>
<path d="M91.129 41.7134L97.2077 15.6638M68.03 41.7134L63.775 27.2412" stroke="white" stroke-width="3.48277" stroke-linecap="round"/>
<path d="M106.326 53.2905L131.248 38.2396" stroke="white" stroke-width="3.48277" stroke-linecap="round"/>
<path d="M37.0285 82.2345L8.45874 86.8654" stroke="white" stroke-width="3.48277" stroke-linecap="round"/>
<path d="M57.6965 99.6005L44.3234 116.388" stroke="white" stroke-width="3.48277" stroke-linecap="round"/>
<path d="M89.3052 113.494L97.8153 137.228" stroke="white" stroke-width="3.48277" stroke-linecap="round"/>
<path d="M103.894 86.8655L125.777 92.6541" stroke="white" stroke-width="3.48277" stroke-linecap="round"/>
<path d="M111.188 74.7088L120.306 74.7088" stroke="white" stroke-width="3.48277" stroke-linecap="round"/>
<path d="M99.031 100.758L107.541 107.126" stroke="white" stroke-width="3.48277" stroke-linecap="round"/>
<path d="M39.4601 67.1837L23.0477 62.5525" stroke="white" stroke-width="3.48277" stroke-linecap="round"/>
<path d="M49.1858 91.4964L40.6757 100.758" stroke="white" stroke-width="3.48277" stroke-linecap="round"/>
<path d="M35.205 105.389L30.9499 110.02" stroke="white" stroke-width="3.48277" stroke-linecap="round"/>
<path d="M88.2961 51.8065L55.4992 59.8588C55.0435 59.9707 54.6504 60.2484 54.3975 60.637L42.8793 78.3377C42.3223 79.1937 42.5807 80.3484 43.457 80.9189L84.4733 107.621C85.4344 108.247 86.7156 107.903 87.1964 106.891L107.01 65.1878C107.408 64.3491 107.111 63.3355 106.315 62.817L89.7997 52.0656C89.3532 51.775 88.8075 51.6809 88.2961 51.8065Z" stroke="white" stroke-width="2.81161" stroke-linecap="round"/>
<path d="M42.7986 79.6587L106.781 63.9573" stroke="white" stroke-width="2.81161" stroke-linecap="round"/>
<path d="M66.1906 58.3096L59.0216 74.7345C58.7399 75.3799 58.856 76.1351 59.3213 76.6832L83.0252 104.604C84.0662 105.83 86.0572 105.323 86.3186 103.765L92.2274 68.5441C92.3379 67.8855 92.081 67.2116 91.5545 66.7791L77.7812 55.4638" stroke="white" stroke-width="2.81161" stroke-linecap="round"/>
</svg>
