<svg width="247" height="309" viewBox="0 0 247 309" fill="none" xmlns="http://www.w3.org/2000/svg">
<path d="M79.5318 97.9503C78.8077 98.7008 76.3123 98.7053 75.5472 98.2073C75.4184 98.0827 75.4184 98.0827 75.2895 97.9581C75.2813 97.7084 75.9011 97.5824 76.8993 97.5806C77.7686 97.4541 79.0163 97.4519 79.5072 97.2013C79.7568 97.2008 80.0063 97.2003 79.8857 97.3254C80.0145 97.45 79.7732 97.7002 79.5318 97.9503Z" fill="#F0EC74"/>
<path d="M232.196 117.664C229.774 119.917 228.792 120.418 227.898 119.795C227.253 119.172 227.133 119.297 227.656 120.046C228.309 120.919 227.472 122.044 223.818 124.798C215.424 131.433 206.644 137.693 206.016 137.569C205.637 137.445 204.534 138.072 203.432 138.698C199.029 141.454 186.817 145.847 182.59 146.354C181.971 146.48 181.351 146.606 181.101 146.607C180.851 146.607 180.481 146.733 180.232 146.733C179.982 146.734 179.491 146.985 178.879 147.36C176.794 148.488 169.992 150.374 163.294 151.635C160.194 152.265 157.095 152.895 154.615 153.399L154.357 153.15C151.878 153.654 148.899 154.159 145.92 154.664C139.222 155.925 131.388 156.814 128.143 156.82C127.266 156.696 126.396 156.823 126.275 156.948C126.155 157.073 125.656 157.074 125.406 157.074C125.156 157.075 124.416 157.326 123.917 157.327C120.205 158.333 104.264 159.361 96.8883 159C95.1411 159.003 93.5146 158.881 93.2732 159.131C92.7822 159.382 76.3883 158.038 59.3582 156.321C52.0952 155.585 49.7117 155.214 48.5598 154.342C47.5369 153.595 47.408 153.47 47.9318 154.219C48.4555 154.967 47.0786 154.845 41.4422 154.23C37.4322 153.738 33.4222 153.246 32.3031 153.373C27.44 153.507 17.3823 151.277 16.8421 150.029C16.705 149.655 15.948 149.406 15.3199 149.283C14.5711 149.284 12.92 148.413 11.6475 147.666C11.0112 147.292 10.4956 146.794 9.85929 146.42C8.57032 145.174 8.41682 144.3 10.1886 145.046C12.21 145.791 11.2831 144.17 9.12464 143.049C8.23875 142.676 6.94978 141.43 5.91861 140.433C5.14522 139.685 4.62966 139.186 4.62146 138.936C4.61327 138.687 4.85466 138.436 5.34567 138.186C5.95737 137.81 7.70458 137.807 9.21037 138.054L11.8434 138.424L10.1596 136.553C8.47573 134.683 8.47574 134.683 10.2311 134.93C11.9865 135.176 12.1072 135.051 10.9062 132.68C9.70512 130.31 9.82582 130.185 12.6348 128.306C14.2203 127.179 15.4355 126.178 15.2984 125.804C15.1613 125.429 15.507 124.554 16.1106 123.929C16.7141 123.303 16.8266 122.928 16.4563 123.054C16.086 123.179 15.7075 123.055 15.5704 122.681C15.4333 122.306 17.3973 121.304 19.7316 120.176C22.1949 119.172 24.7788 118.043 25.3905 117.667C26.2518 117.291 28.0951 116.414 29.5763 115.911C31.1782 115.284 32.2728 114.408 32.0068 113.909C31.5955 112.785 35.5153 110.53 40.2168 109.273C42.1972 108.77 45.0389 107.89 46.6408 107.263C49.8446 106.008 50.2149 105.883 55.5362 104.499C57.5166 103.996 59.2393 103.243 59.1022 102.869C58.9651 102.495 59.2147 102.494 59.7221 102.743C60.2295 102.992 60.3502 102.867 60.2131 102.492C60.076 102.118 60.4463 101.992 61.0744 102.116C61.5818 102.365 62.2017 102.239 62.1853 101.739C62.1689 101.24 62.7806 100.864 63.4087 100.988C64.4153 101.236 64.4153 101.236 63.8036 101.612C62.5802 102.363 63.329 102.362 66.5492 101.607C68.1593 101.229 69.262 100.603 69.2538 100.353C69.1167 99.9783 69.487 99.8528 69.9944 100.102C70.5018 100.35 72.2408 100.098 73.8509 99.7199C75.461 99.3423 77.5622 98.714 78.5524 98.4624C79.5426 98.2109 85.492 96.9511 92.0695 95.8151C93.1886 95.6882 93.9292 95.437 94.7987 95.3106L95.0565 95.5599C95.7971 95.3088 96.417 95.1827 97.2865 95.0562C103.735 93.7956 109.813 92.6605 110.933 92.5336C112.052 92.4066 114.539 92.1523 116.278 91.8994C118.146 91.7711 119.628 91.2688 119.49 90.8944C119.353 90.52 119.853 90.519 120.36 90.7679C120.867 91.0167 122.615 91.0136 124.354 90.7606C127.832 90.2547 128.323 90.004 126.197 89.883C124.949 89.8853 124.82 89.7606 125.303 89.2602C125.544 89.01 126.543 89.0082 127.428 89.3812C128.314 89.7543 128.934 89.6283 128.926 89.3785C128.789 89.0041 129.288 89.0032 130.045 89.2516C130.681 89.6251 131.052 89.4995 130.794 89.2502C130.657 88.8758 130.906 88.8753 131.414 89.1242C131.921 89.373 134.168 89.3689 136.527 88.9899C142.243 88.2302 142.863 88.1042 147.098 87.8466C149.215 87.7179 152.701 87.4617 154.94 87.2079C160.285 86.5737 166.534 86.812 168.305 87.5581C168.942 87.9316 171.446 88.1768 173.443 88.1732C175.56 88.0444 178.306 88.0394 179.433 88.1623C180.681 88.16 184.296 88.0285 187.541 88.0226C190.907 87.8915 194.031 88.0107 194.538 88.2596C195.045 88.5084 195.054 88.7582 194.554 88.7591C194.055 88.76 194.812 89.0084 196.189 89.1308C197.695 89.3778 199.33 89.7495 199.966 90.123C200.602 90.4965 203.356 90.7412 206.11 90.986C211.11 91.2266 211.488 91.3508 214.799 93.343C218.109 95.3351 218.359 95.3347 219.083 94.5841C219.807 93.8334 219.807 93.8334 222.111 95.5776L224.165 97.3223L225.251 96.1963C225.855 95.5708 227.087 95.069 228.085 95.0671C228.834 95.0658 229.333 95.0649 229.84 95.3137C230.348 95.5626 230.734 95.9365 231.637 96.8091C232.668 97.8063 233.707 99.0533 233.973 99.5524C234.522 101.05 236.938 102.419 236.776 101.296C236.615 100.172 238.137 100.919 239.297 102.04C239.683 102.414 240.078 103.038 240.344 103.537C240.876 104.535 241.03 105.409 240.668 105.785C240.306 106.16 240.443 106.534 240.95 106.783C242.851 107.654 239.891 112.53 236.445 114.035C235.962 114.535 234.015 116.038 232.196 117.664ZM125.069 131.598L125.198 131.722C125.706 131.971 126.825 131.844 127.565 131.593C128.676 131.217 129.038 130.841 128.66 130.717C128.402 130.468 127.404 130.47 126.293 130.846C125.552 131.097 125.061 131.348 125.069 131.598ZM106.147 129.259C106.155 129.509 106.284 129.634 106.542 129.883C106.799 130.132 106.928 130.257 107.186 130.506C107.693 130.755 107.814 130.63 107.669 130.006C107.524 129.382 107.008 128.883 106.63 128.759C106.38 128.759 106.38 128.759 106.259 128.885C106.139 129.01 106.018 129.135 106.147 129.259ZM98.6915 130.272C98.6915 130.272 98.8204 130.397 98.9493 130.521C99.0782 130.646 99.2071 130.771 99.2071 130.771C99.4649 131.02 99.9641 131.019 100.214 131.019C100.962 131.017 101.333 130.892 100.946 130.518C100.559 130.144 99.9231 129.77 99.295 129.647C99.0454 129.647 98.804 129.897 98.6915 130.272ZM93.9677 134.652C94.7247 134.9 96.3512 135.022 97.5992 135.02C99.2175 134.892 99.4589 134.642 98.8144 134.019C98.1699 133.395 97.904 132.896 98.0001 132.022C98.1126 131.647 98.2251 131.272 97.9673 131.023C97.8384 130.898 97.4599 130.774 96.9525 130.525C94.569 130.155 93.9655 130.78 94.7717 132.527C95.4407 133.9 95.3282 134.275 93.9513 134.152C93.3232 134.029 93.0736 134.029 92.9529 134.154C93.2107 134.403 93.4603 134.403 93.9677 134.652ZM90.8518 134.782C91.1096 135.032 91.7377 135.156 92.108 135.03C92.3576 135.03 92.4783 134.904 92.3494 134.78C92.2205 134.655 91.9709 134.656 91.5924 134.531C91.2139 134.407 90.9643 134.408 90.8436 134.533C90.7229 134.658 90.7229 134.658 90.8518 134.782ZM136.925 123.958C138.036 123.581 138.277 123.331 137.899 123.207C137.391 122.958 135.403 123.211 132.174 123.717C129.816 124.096 127.585 124.599 125.355 125.103L125.098 124.854C122.988 125.232 120.879 125.611 118.649 126.114C115.55 126.745 113.819 127.247 113.827 127.497C113.835 127.747 114.455 127.621 115.703 127.618C116.701 127.617 119.085 127.987 121.098 128.483C123.111 128.979 124.617 129.226 124.48 128.851C124.343 128.477 124.963 128.351 125.591 128.475C126.34 128.473 126.831 128.223 126.694 127.848C126.557 127.474 126.677 127.349 127.185 127.597C127.442 127.847 127.684 127.597 127.796 127.222L127.667 127.097C127.667 127.097 127.659 126.847 127.78 126.722L128.296 127.221C129.053 127.469 129.302 127.469 129.294 127.219C129.157 126.845 129.535 126.969 130.043 127.218C130.679 127.591 131.428 127.59 131.79 127.214C132.152 126.839 132.78 126.963 133.288 127.212C133.795 127.461 134.398 126.835 134.865 125.835C135.348 125.335 136.184 124.209 136.925 123.958ZM135.358 129.456C133.989 129.583 133.378 129.959 133.635 130.208C133.764 130.333 134.521 130.581 135.89 130.454C137.009 130.327 137.75 130.076 137.613 129.702L137.484 129.577C136.976 129.328 136.228 129.329 135.358 129.456ZM147.375 122.94C147.247 122.815 146.989 122.566 146.86 122.441C146.602 122.192 146.224 122.068 146.095 121.943C145.837 121.694 145.587 121.694 145.338 121.695C145.088 121.695 144.838 121.695 144.838 121.695C144.718 121.821 145.233 122.319 146.248 122.817C146.884 123.19 147.512 123.314 147.375 122.94ZM153.042 120.681C152.914 120.557 152.914 120.557 152.785 120.432C152.656 120.307 152.527 120.183 152.527 120.183C152.019 119.934 151.271 119.935 151.15 120.06C150.909 120.311 151.175 120.81 151.561 121.184C151.948 121.558 152.697 121.556 152.938 121.306C153.18 121.056 153.171 120.806 153.042 120.681ZM163.18 121.537C163.172 121.287 163.164 121.038 163.043 121.163C163.043 121.163 162.673 121.288 162.431 121.538C161.699 122.039 161.191 121.791 159.162 120.795C156.617 119.301 155.24 119.179 154.274 120.18C154.033 120.43 154.041 120.68 154.29 120.679C154.548 120.928 155.176 121.052 155.933 121.301C157.447 121.797 158.462 122.295 158.857 122.919C159.501 123.542 160.13 123.666 161.361 123.164C162.464 122.538 163.317 121.912 163.18 121.537ZM165.643 120.534C165.514 120.409 165.385 120.284 165.136 120.285C164.886 120.285 164.765 120.41 164.645 120.535C164.524 120.66 164.532 120.91 164.532 120.91C164.661 121.035 164.782 120.91 165.031 120.909C165.66 121.033 165.901 120.783 165.643 120.534Z" fill="#F0EC74"/>
<path d="M30.0516 238.195C30.6784 238.319 31.6666 238.068 32.1485 237.569C32.759 237.194 34.6068 236.568 36.3341 236.067C38.1901 235.69 39.2906 235.065 39.1456 234.442C38.8802 233.945 39.2415 233.57 39.8684 233.694C40.4952 233.817 41.0098 234.314 41.2752 234.812C41.6939 236.181 42.3207 236.305 43.654 235.181C45.5977 233.683 47.9601 233.555 55.964 234.536C58.7123 234.78 60.8337 234.901 60.5683 234.403C60.1823 234.03 60.4232 233.781 61.0501 233.904C61.6769 234.028 62.0629 234.401 62.1997 234.774C62.2161 235.272 63.4779 235.768 66.2343 236.261C69.1194 236.878 69.9872 236.752 69.8423 236.13C69.6973 235.507 72.5578 235.378 75.6838 235.746L75.9247 235.496C79.4203 235.739 82.5627 236.605 81.0845 237.106C79.7349 237.731 80.3617 237.854 83.6082 238.097C86.6056 238.341 88.3411 238.089 89.4498 237.713C90.3094 237.338 91.5467 237.086 92.0449 237.086C92.6717 237.209 92.4308 237.458 91.563 237.585C90.6953 237.711 92.3349 238.33 95.0831 238.574C102.958 239.432 104.598 240.052 103.779 241.672C103.193 242.794 103.941 242.793 106.399 241.792C107.508 241.416 108.865 241.04 109.492 241.163C110.119 241.287 109.629 241.537 108.649 242.037C107.54 242.412 107.316 243.16 108.088 243.906C108.731 244.527 109.133 245.398 108.9 245.897C108.668 246.396 109.054 246.768 109.552 246.768C110.299 246.766 110.814 247.263 110.95 247.637L111.095 248.259L99.8799 251.891C93.7179 253.895 88.1744 255.773 87.6762 255.774C87.0576 255.9 84.1888 255.781 81.071 255.662C75.5826 255.423 72.1034 255.678 72.6261 256.424C72.7548 256.549 72.4015 257.172 71.7992 257.796C71.3174 258.295 71.2051 258.669 71.8319 258.792C72.4588 258.916 71.3583 259.54 68.9 260.541C67.3013 261.167 65.9435 261.543 64.8348 261.918C64.4653 262.044 64.0957 262.169 63.5975 262.17C61.2433 262.548 59.7405 262.301 58.9523 261.057C58.1641 259.813 56.8941 259.068 55.0054 258.449L54.8849 258.574C52.2653 258.454 49.1638 258.834 45.9582 259.836C43.3713 260.712 41.4989 260.591 40.3494 259.721C40.2207 259.597 40.0921 259.473 39.8348 259.224C39.3202 258.727 39.1752 258.105 38.9016 257.358C38.6116 256.113 38.8362 255.365 39.463 255.489C40.0899 255.612 40.8208 255.113 41.1822 254.738C41.664 254.239 42.2664 253.616 42.7646 253.615C44.4919 253.113 42.0968 252.246 37.2107 251.383C34.4543 250.89 31.8183 250.272 31.6896 250.148C31.4323 249.899 30.1051 247.411 28.7614 244.424L26.2191 239.074L27.5687 238.449C28.4365 238.323 29.4247 238.072 30.0516 238.195ZM72.9928 237.245C72.8641 237.121 72.615 237.121 72.2373 236.997C71.8596 236.873 71.6105 236.874 71.49 236.999C71.3696 237.123 71.3695 237.123 71.4982 237.248C71.7554 237.496 72.3823 237.62 72.7519 237.494C73.1214 237.369 72.9928 237.245 72.9928 237.245ZM46.5271 243.022C47.0335 243.27 47.6685 243.643 48.424 243.89C50.3209 244.759 51.4459 244.881 53.0528 244.505C54.7802 244.003 55.2865 244.251 56.5647 245.245C57.3366 245.991 58.478 246.612 58.9762 246.611C59.8521 246.734 59.844 246.485 58.4371 245.367C56.773 244 56.773 244 58.2921 244.744C59.8112 245.489 62.4472 246.106 65.075 246.475L65.316 246.226C68.442 246.594 72.1785 246.587 75.1595 246.332C77.6424 246.079 77.6424 246.079 74.0508 246.708C70.9575 247.336 70.588 247.461 71.5844 247.46C72.2112 247.583 74.1958 247.33 75.9232 246.829C78.6469 246.326 79.2656 246.2 80.0374 246.946C80.6806 247.568 81.9262 247.565 84.9072 247.311C86.024 247.184 87.1409 247.058 88.0087 246.931C88.8764 246.805 89.7442 246.679 90.1137 246.554C91.3429 246.054 77.8506 244.833 68.1275 244.602L67.6456 245.101C59.2394 243.248 45.1039 241.406 45.3776 242.152C45.6349 242.401 45.8921 242.65 46.5271 243.022Z" fill="#F0EC74"/>
<path d="M241.08 178.188C239.624 179.439 238.891 179.94 237.177 180.942C235.463 181.944 232.759 183.197 227.23 185.829C221.211 188.712 215.183 191.345 213.831 191.971C212.479 192.598 209.646 193.727 207.682 194.729C205.839 195.607 204.117 196.359 202.395 197.111C200.793 197.738 199.063 198.241 197.574 198.493C196.834 198.744 197.075 198.494 198.177 197.868C199.288 197.491 199.4 197.117 198.402 197.119C197.404 197.12 195.657 197.124 194.16 197.126C191.536 197.006 181.362 198.773 178.038 200.152C176.927 200.529 174.577 201.157 172.468 201.536C170.359 201.914 168.009 202.543 167.148 202.919C165.305 203.796 169.185 204.164 172.775 203.283C175.874 202.653 174.538 203.779 170.362 205.784C167.657 207.038 159.134 209.675 158.136 209.677C157.886 209.678 156.768 209.804 155.649 209.931C152.051 210.562 147.447 210.945 146.07 210.823C145.442 210.699 142.576 210.829 139.96 210.959C137.344 211.088 133.609 211.345 131.484 211.224C128.36 211.105 123.273 211.988 111.884 214.756C108.295 215.636 97.6358 214.033 90.8019 214.919C77.8829 216.69 68.9626 214.834 64.1169 215.467C61.7586 215.846 57.6533 216.228 55.0372 216.358C52.4211 216.487 49.5636 216.867 48.4447 216.994C46.5854 217.372 42.1018 217.63 39.3486 217.385C38.4711 217.262 37.4729 217.264 37.1027 217.389C35.8632 217.641 31.6842 215.776 31.1524 214.778C30.105 213.282 31.3118 212.031 33.4452 212.402C35.8282 212.772 40.9152 211.889 40.7617 211.015C40.6247 210.641 39.2399 210.269 37.6138 210.147C35.9876 210.025 34.3533 209.654 34.0955 209.404C33.0646 208.407 25.3041 207.672 21.9557 208.303C20.0964 208.681 17.8587 208.935 16.9894 209.061C15.9912 209.063 15.5085 209.563 15.7662 209.812C16.1528 210.186 15.9115 210.436 15.2835 210.313C14.406 210.189 13.5203 209.816 12.7553 209.318C12.1192 208.945 11.5955 208.197 11.4502 207.573C11.1761 206.824 10.6442 205.826 10.1288 205.328C9.74216 204.954 8.54137 202.584 7.59013 200.214C6.64709 198.093 6.23591 196.97 6.21133 196.221C6.18676 195.472 6.66127 194.722 7.49781 193.597C8.45503 192.347 10.5147 190.47 12.0999 189.344C13.6851 188.217 15.2703 187.09 15.6241 186.466C15.8573 185.966 16.7184 185.59 17.467 185.588C18.2156 185.587 19.7047 185.334 20.6783 184.584C21.9015 183.832 22.7708 183.706 23.0367 184.205C23.5686 185.203 27.6328 183.572 27.9703 182.448C28.2034 181.948 31.1734 181.193 39.8501 179.43C40.8401 179.178 43.0779 178.924 44.6958 178.797C46.3138 178.669 51.908 178.034 56.633 177.526C61.6075 177.018 66.2119 176.635 66.8398 176.759C67.9669 176.881 69.2146 176.879 72.2009 176.624C72.7 176.623 73.4405 176.372 73.6818 176.122C74.0521 175.996 75.2916 175.744 76.4104 175.617C80.1454 175.361 80.7652 175.235 80.3622 174.362C79.8303 173.364 84.5553 172.856 85.3367 173.853C85.7233 174.227 88.0981 174.348 91.2051 173.967C94.3122 173.587 97.186 173.707 97.9511 174.205C98.5872 174.578 99.972 174.95 100.721 174.949C101.719 174.947 102.226 175.196 101.993 175.696C101.535 176.945 102.895 176.568 104.584 174.817C105.671 173.691 106.781 173.315 107.916 173.687C109.052 174.06 109.671 173.934 109.647 173.185C109.622 172.435 110.612 172.184 113.124 172.679C115.008 173.05 117.246 172.796 118.228 172.295C119.089 171.919 121.198 171.54 122.574 171.663C124.071 171.66 126.317 171.656 127.557 171.404C128.796 171.152 130.672 171.273 131.67 171.272C133.675 171.518 136.412 171.263 137.892 170.761L137.651 171.011C138.778 171.134 140.895 171.005 143.374 170.501C144.735 170.124 146.852 169.995 147.85 169.994C148.977 170.116 151.335 169.737 153.074 169.485C154.933 169.107 156.559 169.228 156.696 169.603C156.833 169.977 159.2 169.848 161.8 169.219C165.518 168.463 166.017 168.462 164.553 169.464C163.08 170.215 163.459 170.34 165.439 169.837C167.539 169.208 167.926 169.582 166.84 170.708C165.271 172.334 165.907 172.707 168.104 171.205C168.836 170.704 169.947 170.328 171.066 170.201C172.056 169.949 174.285 169.446 175.766 168.944C177.496 168.441 180.845 167.811 183.719 167.93C186.584 167.8 189.442 167.421 190.673 166.919C193.506 165.79 197.869 165.657 195.286 166.786C193.073 167.788 193.451 167.913 197.186 167.656C198.305 167.529 199.182 167.652 199.311 167.777C199.191 167.902 199.698 168.151 200.068 168.025C202.813 168.02 204.053 167.768 205.791 167.516C206.781 167.264 211.265 167.006 215.757 166.998C220.248 166.99 225.111 166.856 226.728 166.728C228.346 166.6 230.343 166.597 230.971 166.72C237.355 167.333 239.367 167.829 238.386 168.33C236.31 169.707 238.089 170.703 240.423 169.575C242.024 168.948 242.644 168.822 242.419 169.571C242.315 170.195 243.072 170.444 244.062 170.192C245.052 169.941 245.31 170.19 244.457 170.816C243.724 171.317 242.896 172.691 242.55 173.566C244.097 175.061 242.657 176.812 241.08 178.188ZM42.2508 210.763C42.3797 210.887 42.3797 210.887 42.5086 211.012C42.6374 211.137 42.6374 211.137 42.7663 211.261C42.8952 211.386 43.1447 211.385 43.5149 211.26C43.8852 211.134 44.3761 210.884 44.2472 210.759C44.1183 210.634 43.7399 210.51 43.112 210.387C42.6047 210.138 42.1138 210.388 42.2508 210.763ZM105.601 179.185C105.472 179.06 105.344 178.935 105.344 178.935C104.716 178.812 104.104 179.187 104.241 179.562C104.37 179.686 104.378 179.936 104.507 180.061C104.765 180.31 105.135 180.184 105.497 179.809C105.609 179.434 105.73 179.309 105.601 179.185ZM99.8602 190.557C99.2322 190.433 96.745 190.687 94.137 191.066C91.6498 191.321 85.0573 191.957 79.7044 192.341C74.1019 192.726 68.7489 193.11 67.5094 193.362C62.1646 193.996 55.339 195.133 55.3472 195.382C55.4761 195.507 56.9815 195.754 58.9861 196C60.9906 196.246 62.6086 196.118 62.4715 195.744C62.3345 195.369 62.9542 195.243 63.5822 195.367C64.3308 195.366 64.967 195.739 65.1041 196.113C65.2411 196.488 68.1314 197.107 71.3918 197.6C77.5344 198.463 84.1351 198.076 84.4725 196.952C84.585 196.577 84.8263 196.327 84.9552 196.452C85.5914 196.825 89.0604 196.07 89.6638 195.444C90.6292 194.444 93.1165 194.19 93.2699 195.063C93.6811 196.186 96.0477 196.057 97.3751 194.681C98.0992 193.931 99.2016 193.305 99.9503 193.303C100.699 193.302 101.053 192.677 100.908 192.053C101.133 191.303 100.617 190.805 99.8602 190.557ZM110.325 190.038C108.948 189.916 106.444 189.671 104.706 189.923C102.838 190.052 102.098 190.303 102.114 190.802C102.122 191.052 102.251 191.177 102.388 191.551C102.654 192.05 103.049 192.673 103.428 192.797C103.556 192.922 103.556 192.922 103.556 192.922C103.806 192.922 104.297 192.671 104.53 192.171C105.013 191.671 105.262 191.67 105.907 192.293C106.43 193.042 106.929 193.041 108.024 192.165C108.627 191.539 109.979 190.913 110.969 190.661L112.7 190.159L110.325 190.038ZM121.755 188.519L121.875 188.394C118.14 188.65 116.901 188.902 116.659 189.153C116.539 189.278 116.668 189.402 116.547 189.527C116.555 189.777 118.439 190.148 120.444 190.394C122.923 189.89 125.273 189.262 126.013 189.011C126.384 188.885 126.625 188.635 126.746 188.51C127.236 188.259 125.989 188.262 121.755 188.519ZM164.661 203.173C164.79 203.298 165.16 203.172 165.53 203.047C165.78 203.046 165.9 202.921 166.15 202.921C166.399 202.92 166.641 202.67 166.89 202.669C167.751 202.293 167.864 201.919 167.123 202.17C166.254 202.296 165.393 202.672 165.023 202.798C164.524 202.799 164.411 203.173 164.661 203.173ZM138.458 187.989C136.84 188.117 133.982 188.497 131.874 188.875L128.284 189.756L129.29 190.003C129.918 190.127 130.063 190.751 129.581 191.251C128.985 192.126 129.356 192.001 131.698 191.123C133.911 190.12 134.41 190.119 133.678 190.62C133.195 191.12 133.074 191.245 133.445 191.12C133.445 191.12 133.694 191.119 133.935 190.869C134.797 190.493 136.277 189.991 137.75 189.239C138.611 188.863 139.102 188.612 139.593 188.362C140.704 187.985 140.325 187.861 138.458 187.989ZM160.877 175.338C160.628 175.339 160.258 175.464 160.016 175.714C159.646 175.84 159.405 176.09 159.163 176.34C158.801 176.715 158.93 176.84 159.671 176.589C160.041 176.463 160.532 176.213 160.902 176.087C161.505 175.462 161.747 175.212 160.877 175.338ZM174.094 186.426C173.095 186.428 167.743 186.812 162.261 187.072C156.779 187.331 150.677 187.717 148.431 187.721C146.306 187.6 143.819 187.854 142.95 187.981C141.831 188.108 139.988 188.985 138.515 189.737C137.163 190.364 136.31 190.989 137.059 190.988C137.679 190.862 137.703 191.611 136.979 192.362C135.652 193.737 138.018 193.608 140.843 192.23C142.686 191.352 145.052 191.223 144.208 192.099C143.604 192.724 145.987 193.094 147.468 192.592C147.838 192.467 147.597 192.717 146.986 193.092C144.909 194.47 151.631 193.958 160.428 192.069C165.257 190.937 169.837 189.805 170.698 189.428C171.559 189.052 173.04 188.55 174.03 188.299C175.02 188.047 175.278 188.296 174.538 188.547C173.676 188.924 175.415 188.671 178.023 188.291C180.752 187.787 183.231 187.283 183.472 187.033C184.213 186.782 178.706 186.293 174.094 186.426Z" fill="#F0EC74"/>
<path d="M72.5696 99.0403C72.5696 99.0403 72.4407 98.9156 72.5615 98.7904C72.6822 98.6653 72.8029 98.5401 72.9237 98.415C73.1652 98.1647 73.6645 98.1638 73.9223 98.4131C74.1802 98.6625 73.9387 98.9128 73.4476 99.1636C72.9483 99.1645 72.6986 99.165 72.5696 99.0403Z" fill="#F0EC74"/>
<path d="M113.157 90.3717C112.9 90.1235 113.269 89.9984 113.767 89.9975C114.144 90.1212 114.393 90.1207 114.641 90.1203C114.89 90.1198 115.019 90.2439 115.147 90.368C115.276 90.4921 115.155 90.6167 114.537 90.7421C114.04 90.743 113.414 90.6199 113.157 90.3717Z" fill="#F0EC74"/>
<path d="M108.705 91.9565C108.077 91.8328 107.578 91.8337 107.449 91.7091C107.2 91.7096 107.321 91.5845 107.441 91.4594C107.811 91.3339 109.051 91.0819 109.791 90.8309C110.532 90.5798 111.401 90.4534 111.659 90.7026C111.788 90.8272 111.916 90.9518 111.916 90.9518C112.432 91.4503 110.46 92.203 108.705 91.9565Z" fill="#F0EC74"/>
<path d="M81.005 96.8575C80.876 96.7327 80.747 96.608 80.8678 96.4827C80.8678 96.4827 80.9886 96.3575 81.1094 96.2323C81.3509 95.9819 82.35 95.9801 83.4699 95.853C84.3399 95.7264 84.8395 95.7255 84.9684 95.8503C84.9684 95.8503 84.4771 96.1012 83.6152 96.4777C82.2538 96.8552 81.2629 97.107 81.005 96.8575Z" fill="#F0EC74"/>
<path d="M101.855 92.4459C101.726 92.3213 102.097 92.1958 102.837 91.9447C103.578 91.6936 104.568 91.4421 105.067 91.4412C105.316 91.4407 105.445 91.5653 105.695 91.5649C105.824 91.6895 106.073 91.6891 106.202 91.8137C106.46 92.0629 105.341 92.1898 103.972 92.3172C102.604 92.4445 102.105 92.4455 101.855 92.4459Z" fill="#F0EC74"/>
</svg>
