<svg width="367" height="306" viewBox="0 0 367 306" fill="none" xmlns="http://www.w3.org/2000/svg">
<path d="M363.98 172.878C363.432 173.469 362.096 174.33 359.422 175.688C356.592 177.319 353.603 178.858 352.815 179.129C352.027 179.399 350.611 180.033 349.826 180.668C349.119 181.167 348.017 181.619 346.993 181.934C345.968 182.249 344.704 182.244 343.598 182.331C342.966 182.329 342.885 182.1 343.436 181.874C343.987 181.649 343.747 181.328 342.797 181.142C341.847 180.956 339.393 180.445 337.73 180.027C334.403 179.193 325.39 178.702 323.341 179.332C322.79 179.558 320.657 179.595 318.838 179.451C317.019 179.307 315.045 179.437 314.73 179.618C313.946 180.253 318.936 181.504 322.097 181.517C324.625 181.527 325.109 182.532 322.826 183.572C321.41 184.205 315.412 185.094 314.144 184.724C313.749 184.677 312.562 184.535 311.612 184.349C308.37 184.108 303.465 183.451 301.643 182.942C300.693 182.755 297.684 182.105 294.834 181.546C292.143 181.08 287.789 180.196 285.334 179.685C280.267 178.57 273.864 178.317 257.274 178.89C244.16 179.295 211.914 178.803 201.16 178.031C192.066 177.311 183.841 176.549 174.503 175.144C164.141 174.054 155.517 172.879 146.099 171.246C135.494 169.471 105.717 162.421 94.3081 159.092C79.8089 154.884 73.7914 153.583 68.0204 153.332C65.3327 153.23 60.4307 152.937 57.4252 152.652C54.4198 152.366 50.941 152.17 49.8355 152.257C47.7022 152.294 42.4824 151.818 39.237 151.212C38.287 151.026 37.1004 150.884 36.7048 150.837C35.2815 150.74 30.6807 148.806 30.1197 147.937C29.1599 146.657 30.6544 145.887 32.9498 146.307C35.7219 147.002 41.8073 147.071 41.564 146.386C41.483 146.158 39.8975 145.604 38.1564 145.324C36.2565 144.951 34.4344 144.442 34.1945 144.122C33.0012 143.251 24.2927 141.483 20.3406 141.376C18.2073 141.414 15.5197 141.312 14.333 141.17C13.3053 141.121 12.5953 141.255 12.8352 141.575C13.0752 141.895 12.9974 142.032 12.2063 141.937C11.0975 141.659 10.2253 141.337 9.43096 140.877C8.63658 140.418 8.31555 139.869 8.07229 139.184C7.82903 138.499 7.26801 137.63 6.86917 137.218C6.47033 136.806 5.42611 134.932 4.53745 132.784C3.88876 130.957 3.40555 129.952 3.48005 129.451C3.63233 128.813 4.10235 128.358 5.36016 127.633C6.69577 126.772 9.2925 125.551 11.2636 125.057C13.3125 124.426 15.3614 123.796 15.6726 123.249C16.0648 122.932 17.0893 122.616 17.9614 122.939C18.9114 123.125 20.6491 123.041 21.9102 122.681C23.408 122.276 24.4358 122.326 24.8346 122.738C25.2368 123.515 30.21 122.942 30.8356 122.214C31.069 121.805 34.7034 121.728 45.0553 121.723C46.3197 121.728 48.7707 121.874 50.8262 121.974C52.8817 122.073 59.2071 122.463 64.978 122.714C70.749 122.964 76.2054 123.396 76.9187 123.627C78.2642 123.861 79.7686 124.186 83.0885 124.29C83.7207 124.292 84.5118 124.387 84.8263 124.206C85.2996 124.116 86.564 124.121 87.9873 124.218C92.2572 124.509 93.0482 124.603 92.6461 123.826C92.244 123.049 97.7782 123.344 98.5759 124.168C98.9748 124.581 101.744 124.911 105.459 125.062C109.097 125.35 112.42 125.819 113.292 126.142C114.086 126.601 115.513 127.063 116.541 127.113C117.727 127.254 118.204 127.53 117.971 127.939C117.426 128.895 119.005 128.719 121.051 127.723C122.467 127.09 123.651 126.867 124.918 127.237C126.108 127.743 126.818 127.609 127.052 127.2C127.204 126.562 128.232 126.611 131.24 127.262C133.458 127.818 136.068 128.056 137.251 127.833C138.435 127.609 140.727 127.664 142.468 127.945C144.209 128.225 146.819 128.463 148.242 128.56C149.743 128.521 151.88 128.848 152.988 129.126C156.156 129.869 161.373 129.98 161.447 129.479C161.444 129.114 162.154 128.98 163.026 129.303C163.739 129.533 164.686 129.355 164.919 128.945C165.153 128.535 166.336 128.312 167.364 128.362C168.787 128.459 169.341 128.598 169.108 129.007C168.875 129.417 169.351 129.692 170.46 129.97C171.41 130.157 173.232 130.665 174.5 131.035C175.768 131.405 177.586 131.549 178.692 131.462C179.639 131.284 180.666 131.333 180.829 131.79C181.069 132.11 183.046 132.346 185.497 132.493C186.13 132.495 186.525 132.542 187.079 132.681L187.157 132.545L207.79 133.401C208.344 133.54 209.135 133.635 209.69 133.774C211.749 134.238 213.804 134.337 214.355 134.111C214.906 133.885 215.856 134.072 216.492 134.439C217.127 134.806 218.868 135.087 220.37 135.047C221.871 135.008 223.767 135.015 224.873 134.928C226.137 134.933 226.925 134.663 227.081 134.389C227.314 133.98 227.787 133.891 229.055 134.26C230.005 134.447 230.799 134.906 230.566 135.315C230.333 135.725 230.809 136.001 231.6 136.095C232.469 136.053 232.946 136.328 232.553 136.646C232.006 137.237 236.519 138.213 239.839 138.317C240.944 138.23 243.081 138.558 244.348 138.927C245.694 139.161 248.148 139.672 249.808 139.724C251.468 139.777 253.449 140.377 254.244 140.837C255.038 141.296 257.411 141.579 259.862 141.725C263.023 141.738 263.895 142.06 263.348 142.651C262.878 143.106 263.354 143.381 264.933 143.205C266.512 143.029 267.306 143.488 267.79 144.493C268.276 145.864 269.625 146.462 270.01 145.414C270.166 145.141 270.876 145.007 271.904 145.057C272.932 145.106 274.592 145.159 275.616 144.843C276.799 144.62 279.964 144.997 283.209 145.603C286.454 146.209 289.223 146.539 290.011 146.268C291.587 145.727 296.573 146.613 295.315 147.338C294.372 147.882 294.848 148.158 298.726 148.766C300.072 148.999 301.18 149.277 301.498 149.461C301.657 149.553 302.37 149.784 302.925 149.923C306.011 150.437 307.357 150.67 308.78 150.767C309.649 150.724 314.635 151.611 319.703 152.725C324.848 153.704 330.47 154.957 332.211 155.238C333.952 155.518 336.407 156.03 337.279 156.352C345.835 158.758 348.688 159.681 348.455 160.091C347.91 161.047 351.48 162.566 352.819 162.07C353.685 161.662 354.398 161.893 355.273 162.581C355.99 163.177 357.339 163.775 358.208 163.733C359.076 163.691 359.712 164.058 359.637 164.559C359.563 165.061 360.442 166.114 361.557 167.121C362.673 168.129 363.636 169.775 363.646 170.87C364.443 171.694 364.605 172.151 363.98 172.878ZM43.8529 146.076C43.2985 145.937 42.8252 146.026 42.8284 146.391C42.9095 146.619 43.0684 146.711 43.2273 146.803C43.3862 146.895 43.7817 146.942 44.0184 146.897C44.6506 146.9 44.965 146.719 45.0428 146.582C45.0428 146.582 44.4073 146.215 43.8529 146.076ZM112.146 139.274C111.433 139.043 108.35 138.894 105.425 138.837C102.501 138.78 94.8302 138.157 88.3459 137.675C81.8617 137.194 75.6141 136.667 74.1908 136.571C68.0244 136.273 59.8057 136.24 59.9646 136.332C59.8868 136.469 61.9456 136.933 64.241 137.353C66.5365 137.772 68.3553 137.916 68.2742 137.688C68.1931 137.459 68.9031 137.325 69.6164 137.556C70.4075 137.65 71.2019 138.11 71.283 138.338C71.3641 138.566 74.6128 139.537 78.3348 140.418C85.3833 142.134 93.0542 142.757 93.5987 141.801C93.7543 141.528 94.0687 141.347 94.2276 141.439C95.022 141.898 98.893 141.776 99.7586 141.369C100.939 140.781 104.022 140.93 104.106 141.523C104.353 142.573 107.199 142.767 109.008 141.816C109.952 141.273 111.372 141.004 112.163 141.099C112.954 141.193 113.424 140.739 113.498 140.237C113.576 140.101 113.096 139.46 112.146 139.274ZM120.529 131.234C120.607 131.097 120.448 131.005 120.211 131.05C119.498 130.819 118.869 131.181 118.95 131.41C118.872 131.546 119.031 131.638 119.19 131.73C119.508 131.914 119.981 131.824 120.296 131.643C120.374 131.507 120.529 131.234 120.529 131.234ZM124.564 140.463C123.059 140.138 120.132 139.716 118.154 139.48C115.94 139.289 115.071 139.331 114.996 139.833C114.918 139.969 114.999 140.198 115.239 140.518C115.56 141.067 115.959 141.479 116.277 141.662C116.436 141.754 116.436 141.754 116.595 141.846C116.831 141.801 117.464 141.804 117.856 141.486C118.485 141.124 118.721 141.079 119.36 141.811C119.999 142.544 120.472 142.454 121.734 142.094C122.599 141.687 124.256 141.374 125.361 141.288L127.495 141.25L124.564 140.463ZM139.108 140.886C133.81 140.545 132.228 140.357 131.836 140.674C131.758 140.811 131.758 140.811 131.68 140.948C131.68 140.948 131.839 141.039 131.998 141.131C132.711 141.362 134.374 141.779 136.038 142.196C138.333 142.616 140.784 142.762 141.335 142.536C141.886 142.31 143.306 142.042 144.493 142.184C145.521 142.234 146.153 142.236 146.231 142.099C146.782 141.874 143.219 141.084 139.108 140.886ZM148.915 141.836C148.756 141.744 148.597 141.653 148.043 141.514C147.647 141.466 147.33 141.283 147.252 141.419C147.015 141.464 147.015 141.464 147.174 141.556C147.492 141.74 148.205 141.97 148.678 141.881C148.996 142.065 149.074 141.928 148.915 141.836ZM159.159 156.108C158.527 156.106 158.131 156.058 158.053 156.195C158.053 156.195 158.212 156.287 158.371 156.379C158.53 156.47 158.848 156.654 159.243 156.701C160.116 157.024 163.52 157.722 166.921 158.054C170.717 158.434 172.851 158.397 172.766 157.804C172.604 157.347 172.918 157.166 173.473 157.305C174.027 157.444 174.105 157.307 173.787 157.123C173.47 156.94 163.507 156.262 159.159 156.108ZM206.303 161.22C202.659 160.202 193.399 158.66 192.848 158.886C192.374 158.975 192.456 159.204 192.929 159.114C193.561 159.117 193.406 159.39 193.013 159.708C192.384 160.07 193.97 160.624 197.611 161.277C200.697 161.791 204.176 161.987 205.359 161.763C205.833 161.674 206.306 161.585 206.543 161.54C206.779 161.495 207.016 161.451 207.016 161.451C207.175 161.542 206.857 161.359 206.303 161.22ZM245.664 153.301C245.583 153.072 244.078 152.747 239.328 151.816C235.687 151.163 231.972 151.012 232.053 151.24C231.975 151.377 232.53 151.516 233.48 151.702C234.589 151.98 235.62 152.395 235.623 152.76C235.863 153.08 237.922 153.544 240.373 153.691C242.192 153.835 243.929 153.75 244.798 153.708C245.035 153.663 245.271 153.619 245.349 153.482C245.508 153.574 245.586 153.437 245.664 153.301ZM258.328 155.54C256.587 155.26 253.659 154.838 251.921 154.922L248.76 154.91L250.346 155.463C251.218 155.786 252.33 156.429 252.651 156.977C253.053 157.754 253.607 157.893 254.787 157.305C256.126 156.809 256.363 156.764 256.447 157.357C256.451 157.722 256.768 157.906 257.164 157.953C257.164 157.953 257.401 157.908 257.637 157.864C258.111 157.774 258.976 157.367 259.605 157.005C259.92 156.824 260.234 156.642 260.471 156.598C260.941 156.143 260.386 156.004 258.328 155.54ZM265.838 147.177C265.602 147.222 265.365 147.266 265.287 147.403C265.209 147.539 265.131 147.676 265.054 147.812C265.057 148.177 265.611 148.316 265.926 148.135C266.163 148.09 266.399 148.046 266.477 147.909C266.869 147.591 266.629 147.271 265.838 147.177ZM297.905 162.811C296.637 162.442 290.859 161.461 284.845 160.525C278.909 159.453 272.023 158.194 269.568 157.683C266.955 157.079 264.264 156.613 263.473 156.518C262.445 156.469 261.58 156.876 260.873 157.375C260.403 157.829 260.169 158.239 261.119 158.425C261.911 158.519 262.627 159.115 262.87 159.8C263.435 161.034 265.967 161.409 267.225 160.684C268.168 160.14 270.622 160.652 271.024 161.429C271.345 161.977 274.594 162.948 275.541 162.769C275.777 162.724 275.859 162.953 275.703 163.226C275.159 164.182 282.359 165.259 289.868 165.425C294.057 165.488 297.691 165.411 298.083 165.093C298.398 164.912 299.345 164.733 300.372 164.783C301.241 164.74 301.718 165.016 301.403 165.197C301.089 165.378 302.83 165.659 305.122 165.714C307.573 165.86 309.547 165.731 309.784 165.686C310.18 165.733 303.368 163.973 297.905 162.811Z" fill="#BF9BDE"/>
<path d="M220.826 101.361L217.653 100.612L219.251 102.273C220.849 103.935 220.849 103.935 218.787 103.467C216.725 102.998 216.647 103.136 217.615 105.163C218.583 107.189 218.505 107.327 214.952 108.369C212.978 108.866 211.481 109.641 211.484 110.009C211.487 110.377 210.939 110.972 210.309 111.337C209.442 111.747 209.286 112.022 209.76 111.932C210.234 111.842 210.712 112.12 210.793 112.351C210.874 112.581 208.585 113.26 205.659 113.57C202.655 114.016 199.651 114.463 198.703 114.643C197.754 114.823 195.462 115.135 193.565 115.495C191.746 115.717 190.168 116.261 190.331 116.722C190.656 117.643 185.758 118.817 180.299 119.115C177.925 119.197 174.525 119.596 172.707 119.818C169.307 120.217 167.962 120.349 163.451 120.468L163.292 120.375C158.067 120.261 153.157 119.964 150.698 119.448C149.747 119.26 148.717 119.21 148.48 119.254C148.243 119.299 147.847 119.252 147.451 119.204C147.054 119.156 146.184 119.199 145.71 119.289C141.28 119.637 122.743 117.995 114.023 116.578C112.042 116.34 110.139 115.964 109.824 116.146C109.35 116.236 90.4 112.707 70.9726 108.9C62.5678 107.301 59.8689 106.462 58.7549 105.814C57.7189 105.028 57.4818 105.073 58.0404 105.581C58.6803 106.319 56.9363 106.036 50.5904 104.538C46.0697 103.553 41.3119 102.613 40.1233 102.47C34.5764 101.803 23.0699 98.5814 22.8229 97.523C22.7417 97.2928 21.9459 96.8297 20.9944 96.6417C20.0428 96.4538 18.3735 95.6651 16.9412 94.8315C13.9175 93.0717 13.1897 91.3677 15.7327 92.4819C17.9574 93.4108 17.0739 91.9819 14.8459 90.6852C14.0502 90.2221 12.5367 89.1583 11.5785 88.2348C10.7795 87.4039 10.38 86.9884 10.2987 86.7582C10.2175 86.528 10.5325 86.3455 11.1658 86.3482C11.877 86.2134 13.858 86.4517 15.602 86.735L18.7749 87.4842L17.1769 85.8224C15.5789 84.1606 15.5788 84.1606 17.6411 84.6292C19.7034 85.0977 19.7813 84.9601 18.8132 82.9333C17.8451 80.9065 17.9231 80.7689 21.4757 79.7268C23.4501 79.2296 24.9471 78.4546 24.9438 78.0868C24.9405 77.719 25.4893 77.1237 26.1193 76.7587C26.9863 76.3487 27.1421 76.0735 26.668 76.1634C26.1939 76.2533 25.7165 75.9755 25.6352 75.7453C25.554 75.5151 27.8434 74.8353 30.7694 74.5261C33.7733 74.0793 36.7772 73.6325 37.7255 73.4527C38.6737 73.2729 40.9664 72.9609 42.8629 72.6013C44.6815 72.3793 46.2598 71.8344 46.0973 71.374C45.7724 70.4532 50.6695 69.279 56.1286 68.9806C58.5025 68.8989 61.9027 68.4997 63.8804 68.3703C67.2805 67.9712 68.625 67.839 73.1358 67.7205L73.4541 67.9057C78.6794 68.0201 83.5897 68.317 85.889 68.7406C86.8406 68.9285 87.8701 68.9789 88.1072 68.934C88.3442 68.889 88.7404 68.9367 89.1366 68.9844C89.5328 69.032 90.4032 68.9898 90.8773 68.8999C95.3069 68.5511 113.844 70.1937 122.564 71.6102C124.545 71.8485 126.448 72.2245 126.763 72.0419C127.237 71.952 146.028 75.3885 165.615 79.2881C174.019 80.8871 176.718 81.7262 177.832 82.3745C178.868 83.1605 179.105 83.1155 178.547 82.6074C178.066 81.9618 179.651 82.1525 185.997 83.6508C190.517 84.6355 195.275 85.5753 196.464 85.7184C202.011 86.3857 213.517 89.6071 213.764 90.6654C213.846 90.8956 214.641 91.3587 215.593 91.5467C216.544 91.7347 218.214 92.5233 219.646 93.3569C222.67 95.1168 223.397 96.8208 220.854 95.7066C218.63 94.7777 219.435 96.3441 221.741 97.5032C222.537 97.9663 224.05 99.0301 225.009 99.9536C225.808 100.785 226.207 101.2 226.288 101.43C226.37 101.66 226.055 101.843 225.421 101.84C224.551 101.882 222.492 101.782 220.826 101.361ZM114.163 96.9036C115.037 97.2292 116.781 97.5125 118.129 97.7481C119.95 97.8939 120.425 97.804 119.707 97.2033C118.989 96.6026 118.826 96.1422 119.138 95.5919C119.294 95.3167 119.372 95.1791 119.213 95.0865L117.94 94.3455C115.322 93.7367 114.455 94.1467 115.339 95.5756C115.904 96.8192 115.748 97.0943 114.241 96.7661C113.527 96.5332 113.289 96.5781 113.052 96.6231C113.289 96.5781 113.449 96.6707 114.163 96.9036ZM110.36 96.5196C110.678 96.7048 111.393 96.9377 111.867 96.8478C112.104 96.8029 112.104 96.8029 112.182 96.6653C112.023 96.5727 111.864 96.4801 111.308 96.3398C110.912 96.2921 110.594 96.1068 110.357 96.1518C110.201 96.4269 110.201 96.4269 110.36 96.5196ZM122.346 91.4224C121.472 91.0968 119.728 90.8135 118.381 90.5779C116.559 90.4322 116.085 90.5221 116.803 91.1227C117.52 91.7234 117.683 92.1838 117.371 92.7342C117.215 93.0093 117.137 93.1469 117.296 93.2395L118.57 93.9805C121.187 94.5893 121.895 94.0867 121.171 92.7504C120.605 91.5068 120.761 91.2317 122.268 91.5599C122.983 91.7928 123.22 91.7479 123.457 91.703C123.22 91.7479 122.901 91.5627 122.346 91.4224ZM126.149 91.8064C125.831 91.6212 125.116 91.3883 124.642 91.4782C124.405 91.5232 124.405 91.5231 124.327 91.6607C124.486 91.7533 124.645 91.846 125.201 91.9862C125.597 92.0339 125.915 92.2192 126.152 92.1742C126.23 92.0366 126.308 91.8991 126.149 91.8064Z" fill="#BF9BDE"/>
<path d="M41.7538 171.638C42.4643 171.864 43.5656 171.777 44.192 171.421C44.8993 171.289 46.9435 171.027 48.8327 171.033C50.722 171.038 52.2139 170.64 52.0524 170.192C51.8909 169.745 52.3624 169.657 52.9146 169.792C53.4669 169.928 54.0224 170.422 54.1839 170.87C54.4295 171.9 55.2176 171.991 56.7095 171.593C59.0637 170.795 61.5859 171.161 69.9441 172.707C72.9411 173.342 75.1469 173.528 74.8303 173.348C74.5913 173.034 74.8271 172.99 75.4568 172.992C76.0091 173.128 76.6421 173.487 76.6454 173.845C76.6487 174.203 77.9922 174.789 80.7535 175.468C83.6731 176.237 84.6968 176.285 84.6128 175.703C84.2897 174.808 94.2238 176.538 96.8335 177.843C98.81 178.788 105.983 179.839 106.293 179.303C106.68 178.633 113.466 180.353 113.63 181.159C113.792 181.607 114.028 181.563 114.26 181.161C114.57 180.625 114.728 180.715 114.89 181.163C115.051 181.611 115.684 181.97 117.655 182.2C119.072 182.294 122.228 183.019 124.831 183.608C132.956 185.557 137.058 186.464 142.261 187.285C145.019 187.606 152.905 189.24 159.374 190.781C166.079 192.277 171.521 193.412 171.676 193.144C171.831 192.876 172.619 192.968 173.41 193.418C173.726 193.597 173.962 193.553 174.12 193.643L174.275 193.375C174.356 193.599 174.75 193.645 175.38 193.647C176.404 193.695 177.037 194.055 176.959 194.189C176.804 194.457 182.014 195.993 188.482 197.534C194.874 199.208 202.134 201.199 204.74 202.146C209.242 203.815 213.266 204.856 221.234 206.714C223.679 207.213 226.679 208.206 227.864 208.702C229.366 209.378 230.154 209.47 230.781 209.114C231.407 208.758 231.565 208.847 231.255 209.383C231.023 209.785 231.181 209.875 231.73 209.653C232.67 209.119 239.297 210.75 238.909 211.419C238.6 211.955 245.075 214.212 247.358 214.263C250.429 214.407 259.508 217.252 258.41 217.696C257.784 218.052 258.652 218.368 261.572 219.137C264.333 219.817 265.751 219.911 266.142 219.599C266.455 219.421 267.162 219.289 267.714 219.424C268.267 219.56 268.347 219.784 267.876 219.872C267.404 219.96 269.3 220.682 271.984 221.495C279.955 223.711 281.931 224.657 282.968 226.136C283.608 227.211 284.16 227.347 285.413 226.635C285.962 226.413 286.905 226.237 287.457 226.373C288.009 226.509 288.013 226.867 287.622 227.179C287.073 227.401 287.79 228.342 289.214 229.152C290.639 229.962 291.908 231.039 292.07 231.487C292.389 232.025 293.181 232.474 293.733 232.61C294.285 232.746 295.235 233.286 295.868 233.646L296.898 234.409L291.331 236.763C288.273 238.052 285.37 239.072 285.134 239.116C284.898 239.16 282.059 238.614 279.298 237.935C274.092 236.756 271.492 236.525 272.681 237.378C272.997 237.558 273.317 238.096 273.401 238.678C273.404 239.036 273.882 239.663 274.435 239.799C275.145 240.025 274.835 240.561 273.66 241.139C272.72 241.673 271.858 242.073 270.834 242.025C269.261 242.199 267.524 241.568 265.621 240.131C261.739 237.39 257.473 235.677 253.769 235.174C251.957 235.034 250.303 234.985 249.99 235.163C249.364 235.519 243.851 235.234 243.848 234.876C243.925 234.742 244.161 234.698 244.713 234.834C245.265 234.97 245.659 235.015 245.579 234.792C245.575 234.434 242.504 234.29 242.43 234.782C242.275 235.05 241.803 235.138 241.093 234.912C240.541 234.776 235.735 234.359 230.616 234.12C209.589 233.028 187.925 231.218 185.713 230.317C184.844 230.001 184.056 229.909 183.979 230.043C183.901 230.177 183.588 230.355 183.194 230.309C182.8 230.263 179.018 229.894 174.684 229.389C170.273 229.018 164.992 228.331 162.864 228.011C159.948 227.6 150.634 224.798 147.95 223.985C145.977 223.397 141.158 221.549 137.286 219.882C133.336 218.349 130.096 217.042 129.702 216.996C129.308 216.95 129.228 216.726 129.383 216.458C129.46 216.324 128.827 215.964 127.803 215.916C125.439 215.641 106.633 207.8 89.2409 199.696C84.9713 197.625 81.0989 195.958 80.3109 195.866C79.7586 195.73 79.2838 195.461 79.4388 195.193C79.6713 194.791 77.4557 193.531 76.9067 193.753C76.8292 193.887 76.9874 193.977 77.5397 194.113C78.092 194.249 78.4085 194.429 78.1727 194.473C77.782 194.785 73.1183 192.668 73.0343 192.087C72.9535 191.863 71.6875 191.143 69.9499 190.511C66.7106 189.204 61.511 188.741 55.8466 189.082C53.0144 189.253 51.0444 189.023 49.7783 188.303C49.1453 187.944 48.7447 187.182 48.5799 186.376C48.4925 185.437 48.8025 184.901 49.3547 185.036C49.907 185.172 50.85 184.996 51.2407 184.684C51.6314 184.372 52.4936 183.972 53.0459 184.108C54.9351 184.114 52.5646 183.123 47.436 181.81C44.5164 181.04 41.9908 180.317 41.6743 180.137C41.5161 180.047 40.3951 177.986 39.3517 175.791L37.3456 171.624L38.9183 171.45C39.7838 171.408 41.0433 171.412 41.7538 171.638ZM256.437 217.109C256.278 217.019 256.12 216.929 255.726 216.883C255.332 216.837 255.016 216.657 254.938 216.791C254.702 216.835 254.861 216.925 255.019 217.015C255.335 217.195 255.888 217.331 256.359 217.243C256.517 217.333 256.595 217.199 256.437 217.109ZM246.979 224.372C247.295 224.552 248.006 224.778 248.635 224.78C248.794 224.87 248.871 224.736 249.029 224.826C249.265 224.782 248.949 224.602 248.161 224.51C247.608 224.374 247.373 224.418 247.214 224.328C246.979 224.372 246.82 224.282 246.979 224.372ZM249.882 223.352C251.703 224.566 259.987 226.604 263.688 226.749C265.5 226.889 265.5 226.889 263.139 226.971C261.173 227.099 260.937 227.143 261.806 227.459C262.358 227.595 263.776 227.689 264.954 227.468C266.763 227.25 267.315 227.386 268.739 228.196C270.005 228.915 271.11 229.187 273.474 229.462C274.262 229.554 275.127 229.512 275.757 229.514C276.387 229.516 276.858 229.428 277.094 229.384C277.721 229.028 262.335 225.09 253.502 223.274L248.06 222.139L249.882 223.352ZM241.374 214.066C241.613 214.38 242.482 214.696 243.27 214.788C243.9 214.79 244.294 214.836 244.688 214.882C244.923 214.838 245.082 214.927 245.159 214.793C245.237 214.659 244.684 214.524 243.263 214.072C242.553 213.846 242 213.71 241.765 213.754C241.293 213.842 241.293 213.842 241.374 214.066ZM230.017 220.25C230.411 220.296 231.435 220.344 232.458 220.392C232.852 220.438 233.246 220.484 233.482 220.44C233.718 220.396 233.718 220.396 233.718 220.396C233.718 220.396 233.401 220.216 232.533 219.9C231.428 219.628 230.404 219.58 230.091 219.758C229.778 219.937 229.7 220.07 230.017 220.25ZM217.386 216.276C217.702 216.456 218.255 216.591 218.726 216.503C218.962 216.459 218.962 216.459 218.804 216.369C218.645 216.279 218.487 216.189 218.093 216.144C217.699 216.098 217.305 216.052 217.305 216.052C217.305 216.052 217.227 216.186 217.386 216.276ZM207.908 221.392C208.224 221.572 208.777 221.707 209.248 221.619C209.484 221.575 209.484 221.575 209.326 221.485C209.167 221.395 209.009 221.306 208.615 221.26C208.221 221.214 207.905 221.034 207.827 221.168C207.827 221.168 207.827 221.168 207.908 221.392ZM198.139 220.468C198.533 220.513 199.95 220.607 201.368 220.701L203.729 220.619L202.621 219.989C200.88 219 200.803 219.134 198.998 219.71C198.526 219.798 198.213 219.976 198.058 220.244C197.98 220.378 197.98 220.378 198.139 220.468ZM187.252 217.84C188.669 217.934 197.812 219.214 198.365 219.35C198.523 219.44 198.836 219.262 199.072 219.218C199.934 218.818 191.967 216.96 190.552 217.224C189.845 217.356 188.821 217.308 188.269 217.172C187.717 217.036 187.009 217.168 186.538 217.256C186.07 217.702 186.386 217.882 187.252 217.84ZM160.366 213.062C160.446 213.286 160.605 213.376 160.763 213.466C160.921 213.556 161.238 213.736 161.473 213.692C161.632 213.782 161.867 213.738 162.103 213.693L162.181 213.56C162.416 213.515 162.652 213.471 162.73 213.337L162.42 213.873C162.578 213.963 162.736 214.053 162.894 214.143C163.053 214.233 163.447 214.279 163.682 214.235C163.918 214.191 164.154 214.147 164.39 214.103C164.703 213.925 164.464 213.611 163.595 213.295C163.043 213.16 162.413 213.158 162.177 213.202L162.41 212.8C162.252 212.71 161.935 212.53 161.541 212.484C160.834 212.616 160.204 212.614 160.366 213.062ZM141.876 205.401C142.586 205.627 143.219 205.987 143.223 206.345C143.303 206.569 142.99 206.747 142.438 206.611C141.886 206.475 141.966 206.699 142.364 207.103C143.236 207.776 150.896 210.528 153.183 210.938C154.287 211.21 154.207 210.986 152.23 210.04C149.937 208.915 150.015 208.781 153.803 209.866C155.934 210.543 158.46 211.267 159.171 211.493C160.039 211.808 161.302 212.17 162.248 212.352C162.407 212.442 162.565 212.532 162.723 212.622L162.646 212.756L162.804 212.846C163.75 213.027 165.09 213.255 166.037 213.437C166.825 213.529 169.505 213.984 171.714 214.528C175.658 215.345 175.658 215.345 172.745 215.291C170.226 215.284 169.99 215.328 171.094 215.599C173.226 216.277 181.658 217.331 182.995 217.201C183.702 217.069 183.938 217.025 183.386 216.889C182.992 216.843 182.753 216.529 183.066 216.351C183.379 216.173 184.245 216.131 185.033 216.223C187.949 216.634 185.026 215.507 179.82 214.328C172.405 212.606 168.223 211.475 163.411 210.342L163.488 210.208C158.676 209.075 154.652 208.034 147.237 206.312C142.657 204.777 139.269 204.454 141.876 205.401ZM138.969 206.064C139.68 206.289 140.232 206.425 140.071 205.977C139.99 205.753 139.434 205.26 138.882 205.124C138.33 204.988 137.538 204.538 137.141 204.134C136.347 203.327 128.298 201.245 128.541 201.916C128.622 202.14 128.702 202.364 128.938 202.32C129.335 202.724 137.784 205.568 138.969 206.064ZM125.315 202.041C126.264 202.581 127.608 203.166 128.002 203.212C128.16 203.302 128.396 203.258 128.315 203.034C128.392 202.9 128.312 202.676 128.073 202.362C127.352 201.063 127.275 201.197 125.069 201.011L123.415 200.962L125.315 202.041ZM117.97 199.469C118.287 199.649 118.839 199.785 119.233 199.831C119.469 199.787 119.627 199.877 119.546 199.653C119.388 199.563 119.23 199.473 118.836 199.427C118.442 199.381 118.125 199.201 118.048 199.335C117.89 199.245 117.812 199.379 117.97 199.469ZM115.931 191.724C116.248 191.903 116.8 192.039 117.194 192.085C117.43 192.041 117.588 192.131 117.507 191.907C117.349 191.817 117.191 191.727 116.797 191.681C116.403 191.635 116.245 191.546 116.009 191.59C115.773 191.634 115.773 191.634 115.931 191.724ZM100.63 188.367C100.788 188.457 101.104 188.637 101.421 188.817C102.212 189.267 103.239 189.672 103.397 189.762C103.791 189.808 103.869 189.674 103.788 189.45C103.707 189.226 102.758 188.687 101.812 188.505C101.024 188.413 100.471 188.277 100.471 188.277C100.471 188.277 100.471 188.277 100.63 188.367ZM97.5571 179.5C97.7153 179.59 98.1901 179.86 98.7424 179.996C99.6112 180.312 100.557 180.493 100.871 180.315C101.106 180.271 101.184 180.137 100.867 179.957C100.709 179.868 100.157 179.732 99.4463 179.506C97.9478 179.188 97.3181 179.186 97.3181 179.186C97.2406 179.32 97.3988 179.41 97.5571 179.5ZM87.6906 176.563C87.5323 176.473 87.3741 176.383 86.9801 176.337C86.5861 176.291 86.4278 176.201 86.1921 176.245C85.9563 176.289 85.9563 176.289 86.1146 176.379C86.4311 176.559 86.9834 176.695 87.3774 176.741C87.6131 176.697 87.7714 176.787 87.6906 176.563ZM84.1492 185.231C84.6239 185.501 85.4119 185.592 85.8059 185.638C86.0417 185.594 86.0417 185.594 85.8834 185.504C85.7252 185.414 85.3311 185.368 84.7789 185.233C84.0684 185.007 83.5969 185.095 83.7551 185.185C83.9909 185.141 84.1492 185.231 84.1492 185.231ZM58.493 177.235C58.9678 177.505 59.6008 177.865 60.3113 178.091C62.3654 178.902 63.4699 179.174 65.2009 179.09C67.0901 179.095 67.6424 179.231 68.831 180.085C69.5448 180.668 70.6526 181.298 71.2823 181.3C72.2286 181.482 72.3061 181.348 70.801 180.314C69.1376 179.191 69.1376 179.191 70.6395 179.867C73.8013 181.308 82.1627 183.212 84.6817 183.219L87.2782 183.093L81.8331 181.6C73.3101 179.248 57.2979 175.666 57.3819 176.248C57.7792 176.652 58.0182 176.965 58.493 177.235Z" fill="#BF9BDE"/>
</svg>
