<svg width="177" height="141" viewBox="0 0 177 141" fill="none" xmlns="http://www.w3.org/2000/svg">
<path d="M2.30078 116.025C2.5309 113.033 6.0287 104.841 18.179 96.0047C30.3292 87.1681 39.3499 88.1806 42.3414 89.7915M131.397 38.7053C146.861 27.6596 166.375 26.7391 174.199 27.6596" stroke="white" stroke-width="4" stroke-linecap="round"/>
<path d="M116.209 109.121C134.987 123.481 142.903 134.434 144.514 138.116" stroke="white" stroke-width="4" stroke-linecap="round"/>
<path d="M136.23 80.8167C157.216 72.5324 170.287 77.3649 174.199 80.8167" stroke="white" stroke-width="4" stroke-linecap="round"/>
<path d="M72.0267 117.406L65.8135 138.807" stroke="white" stroke-width="4" stroke-linecap="round"/>
<path d="M31.2957 52.5122L5.75256 44.228" stroke="white" stroke-width="4" stroke-linecap="round"/>
<path d="M97.5698 24.898V2.80664" stroke="white" stroke-width="4" stroke-linecap="round"/>
<path d="M80.7049 26.9691C65.1417 33.8179 39.3982 54.9771 60.9304 84.8236C87.8457 122.132 128.494 74.5504 116.959 58.3295C105.423 42.1086 77.4095 39.9458 74.1138 58.3295C71.4771 73.0364 84.001 77.4341 90.5925 77.7945" stroke="white" stroke-width="4" stroke-linecap="round"/>
</svg>
