<svg width="247" height="172" viewBox="0 0 247 172" fill="none" xmlns="http://www.w3.org/2000/svg">
<path d="M126.105 11.4652L101.349 -2.4077e-05L114.052 51.3014L85.7926 52.9264L128.635 122.025L111.602 64.8795L133.724 75.125L126.105 11.4652Z" fill="white"/>
<path d="M175.065 39.397L163.132 28.9996L161.772 59.7805L145.725 56.1544L158.261 101.744L158.166 66.9943L168.83 76.2856L175.065 39.397Z" fill="white"/>
<path d="M60.5881 104.583L115.893 130.197L76.8555 127.469L74.9707 142.589L14.748 126.212L10.4894 96.7328L62.6342 120.883L60.5881 104.583Z" fill="white"/>
<path d="M212.971 90.7425L232.618 74.5408L239.768 80.4343L222.07 92.7015L230.12 101.989C222.371 105.122 206.382 111.646 204.422 112.683C202.462 113.72 214.671 102.422 221.02 96.6437L212.971 90.7425Z" fill="white"/>
<path d="M229.019 44.1614L187.876 101.23L220.065 40.0144L229.019 44.1614Z" fill="white"/>
<path d="M58.1625 171.066L120.683 137.861L55.2013 161.025L58.1625 171.066Z" fill="white"/>
</svg>
