<svg width="330" height="232" viewBox="0 0 330 232" fill="none" xmlns="http://www.w3.org/2000/svg">
<path d="M66.0399 63.7852C95.8222 76.1335 126.082 112.056 137.489 128.474C131.082 126.158 109.878 117.043 76.3178 99.1135C34.3676 76.702 28.8121 48.3498 66.0399 63.7852Z" stroke="white" stroke-width="4.95484"/>
<path d="M187.679 57.052C177.797 69.8123 179.741 94.7952 181.949 105.692C185.753 102.457 195.09 92.6608 202.008 79.3558C210.655 62.7245 200.032 41.1018 187.679 57.052Z" stroke="white" stroke-width="4.95484"/>
<path d="M119.263 144.277C52.159 140.432 15.6658 150.289 18.8422 179.757C21.3833 203.331 86.8479 165.926 119.263 144.277Z" stroke="white" stroke-width="4.95484"/>
<path d="M70.8097 123.465C46.3958 115.774 34.9213 117.075 33.7698 123.904C32.8486 129.366 58.1221 127.457 70.8097 123.465Z" stroke="white" stroke-width="4.95484"/>
<path d="M222.016 109.639C240.265 77.3802 246.896 86.3636 248.755 90.3288C250.242 93.501 231.548 104.524 222.016 109.639Z" stroke="white" stroke-width="4.95484"/>
<path d="M164.607 140.912C144.768 142.96 140.171 146.567 143.518 153.704C146.195 159.414 158.693 147.555 164.607 140.912Z" stroke="white" stroke-width="4.95484"/>
<path d="M215.294 166.483C212.453 191.761 215.318 199.972 221.334 198.961C232.882 197.021 220.414 177.094 215.294 166.483Z" stroke="white" stroke-width="4.95484"/>
<path d="M286.569 136.93C291.54 134.776 319.846 122.659 321.862 135.86C322.82 142.132 298.73 138.418 286.569 136.93Z" stroke="white" stroke-width="4.95484"/>
<path d="M117.845 87.3525C118.173 75.8538 116 43.4996 99.8335 48.3458C84.8737 52.8303 105.51 72.8467 117.845 87.3525Z" fill="white"/>
<path d="M228.891 148.999C232.968 157.909 246.805 181.814 257.335 172.026C267.078 162.969 243.776 155.441 228.891 148.999Z" fill="white"/>
<path d="M232 130C240.091 124.473 270.033 105.681 274 119.499C277.671 132.285 248.074 132.164 232 130Z" fill="white"/>
<path d="M239.254 55.2681C239.53 45.4736 241.897 10.2025 255.412 15.1033C267.917 19.6382 250.443 43.5268 239.254 55.2681Z" fill="white"/>
<path d="M138.473 23.2215C135.646 18.9148 126.056 2.99279 133.358 1.04043C140.115 -0.766209 139.766 14.7921 138.473 23.2215Z" fill="white"/>
<path d="M31.831 84.293C26.7162 84.9111 8.19071 86.4229 9.68824 79.0141C11.074 72.1582 24.8552 79.3874 31.831 84.293Z" fill="white"/>
<path d="M132.5 70.4994C134.1 81.2994 148.5 96.3327 155.5 102.499C154.667 93.9994 152.3 75.0994 149.5 67.4994C146 57.9994 130.5 56.9994 132.5 70.4994Z" stroke="white" stroke-width="4.95484"/>
</svg>
