<svg width="67" height="95" viewBox="0 0 67 95" fill="none" xmlns="http://www.w3.org/2000/svg">
<path d="M57.8835 32.7925C57.1011 33.9675 55.7145 34.0009 55.1577 35.02C54.6008 36.039 54.3613 37.15 53.7989 38.1189C53.2699 39.035 52.8077 39.9983 52.1283 40.8392C51.293 41.8555 51.371 42.4875 52.2286 43.4898C53.3952 44.8569 54.5869 46.2018 55.8259 47.5104C57.8139 49.607 59.1197 52.1268 60.0775 54.8665C61.3305 58.4499 62.5361 62.0472 63.5134 65.7253C64.8359 70.6814 65.557 75.7488 66.3756 80.7995C66.4193 81.0636 66.4379 81.3311 66.4313 81.5986C66.3144 85.4382 66.306 89.2861 65.6573 93.0895C65.532 93.8329 65.2313 94.3842 64.4043 94.3619C63.6554 94.3452 63.4437 93.805 63.3519 93.1452C63.0957 91.3047 62.795 89.4699 62.5166 87.6322C62.4497 87.1867 62.5834 86.5463 62.007 86.4545C60.3114 86.176 60.0942 84.7644 59.6682 83.5421C59.2422 82.3198 59.0334 81.1337 57.8835 80.3151C57.1484 79.7916 57.1484 78.7781 56.8505 77.9735C56.6111 77.3275 56.4022 76.7317 55.5475 76.676C54.8375 76.6314 54.5702 76.0857 54.4115 75.4592C54.133 74.3678 53.8295 73.2791 53.5205 72.1181C52.7771 71.8731 51.978 73.1984 51.2485 72.0652C50.803 71.3774 50.441 70.6953 50.4717 69.8377C50.4912 69.2809 50.4076 68.8382 49.6865 68.6739C48.3083 68.3648 47.8906 67.24 47.7041 66.001C47.6567 65.6724 47.7041 65.3299 47.6567 65.0014C47.4646 63.6594 47.2001 63.4478 45.794 63.4784C44.8474 63.4979 44.5439 62.9354 44.4353 62.1001C44.2933 60.9864 44.7833 60.0036 44.9365 58.9539C45.0506 58.1715 45.1703 57.6258 44.3935 57.0828C43.8951 56.7376 43.9453 55.6183 42.8566 56.0916C42.6756 56.1668 42.18 55.9886 42.1494 55.8522C41.8292 54.4851 40.1168 54.46 39.6797 53.2405C39.4987 52.731 39.173 52.7059 38.7414 52.9036C36.9901 53.7082 35.1886 54.4294 33.635 55.6016C29.2717 58.8805 24.7026 61.876 19.9557 64.5698C19.0146 65.1072 17.9649 65.3077 17.0015 65.7587C16.6925 65.9063 16.3249 65.9091 16.1662 65.522C16.0075 65.135 16.2748 64.9318 16.5282 64.6868C17.7449 63.548 18.9338 62.3758 20.1478 61.2426C21.8184 59.6945 23.1966 57.9014 24.728 56.2308C24.876 56.1047 24.9846 55.9387 25.0409 55.7526C25.0972 55.5665 25.0987 55.3681 25.0454 55.1811C22.3223 55.9218 19.5046 56.2949 16.8818 57.4086C15.1041 58.1711 13.1944 58.5788 11.2603 58.6086C10.7508 58.6086 10.322 58.475 10.1605 57.9432C10.1198 57.8317 10.103 57.713 10.111 57.5946C10.1191 57.4763 10.1518 57.3609 10.2072 57.256C10.2625 57.1511 10.3393 57.0589 10.4324 56.9854C10.5255 56.912 10.633 56.8588 10.748 56.8295C13.7188 55.9023 16.0382 53.7333 18.8447 52.5416C22.1079 51.1495 24.998 49.1141 28.1471 47.5299C30.2687 46.4635 31.8419 44.7094 33.5041 43.075C33.9301 42.6573 33.8438 42.3344 33.6712 41.7246C33.3287 40.5246 32.2512 39.4804 32.7356 38.0604C32.8665 37.6762 32.538 37.4729 32.2484 37.292C31.9588 37.111 31.6358 36.866 31.6915 36.5207C31.892 35.1453 30.8841 34.6775 29.968 34.1457C28.988 33.5888 27.994 33.032 27.0028 32.4751C26.5935 32.2524 26.1675 32.063 25.7582 31.8319C23.8593 30.7544 23.7451 30.2003 25.1317 28.4713C24.1767 27.7028 22.9794 27.4662 21.8991 27.0151C20.898 26.6456 19.9379 26.1735 19.0341 25.6062C17.55 24.5872 17.6865 23.4011 19.4545 22.4099C18.4633 21.8001 17.5361 21.221 16.5978 20.6585C15.5899 20.0543 14.8938 19.3443 15.5314 18.0552C15.8544 17.4065 15.434 17.0612 14.9244 16.7995C14.4149 16.5378 13.8441 16.2733 13.3068 16.006C12.2905 15.5048 11.4802 14.856 11.6362 13.5585C11.7253 12.8513 11.3577 12.4448 10.8009 12.1274C10.102 11.7376 9.40873 11.3228 8.75163 10.8745C7.82167 10.2508 7.09775 9.46283 7.44301 8.23217C7.61842 7.61127 7.22861 7.44978 6.88614 7.11845C5.86152 6.10218 4.55569 5.57874 3.29161 4.98846C2.36556 4.59795 1.54364 3.9963 0.891526 3.23157C0.0562345 2.19024 0.334668 1.34937 1.66 1.04867C2.1785 0.912729 2.72101 0.8956 3.24706 0.99855C6.98638 1.91459 10.8204 2.54384 14.2228 4.52905C18.0763 6.77877 21.81 9.18998 25.4797 11.7348C28.0552 13.5196 30.5889 15.3544 32.9807 17.3369C36.6448 20.3996 40.4509 23.3482 42.851 27.6388C43.5638 28.9112 44.5634 30.0027 45.1871 31.3531C45.8414 32.7731 46.1866 32.8956 47.6929 32.5642C48.8568 32.3053 49.9705 31.8236 51.19 31.8208H51.591C53.7432 31.8097 55.592 33.38 57.8835 32.7925Z" fill="#FFE48E"/>
</svg>
