<svg width="165" height="119" viewBox="0 0 165 119" fill="none" xmlns="http://www.w3.org/2000/svg">
<g opacity="0.2">
<mask id="path-1-inside-1_1_716" fill="white">
<path fill-rule="evenodd" clip-rule="evenodd" d="M145.884 40.5602C144.947 43.9704 143.3 46.9947 141.146 49.5173C144.383 48.3238 148.011 48.0945 151.592 49.078C160.712 51.583 166.074 61.0067 163.569 70.1266C161.101 79.1134 151.914 84.4517 142.92 82.2086C144.087 86.2524 144.19 90.6583 142.994 95.0141C139.534 107.612 126.516 115.019 113.919 111.559C105.635 109.284 99.5956 102.876 97.4144 95.1725C92.7108 97.2865 87.5189 98.3639 82.1973 98.2007C76.9828 112.854 61.2582 121.216 46.0182 117.03C31.3873 113.011 22.2797 98.8221 24.2316 84.1907C22.0872 84.2027 19.9055 83.9249 17.736 83.329C4.97121 79.8229 -2.53448 66.6328 0.971607 53.868C4.47769 41.1032 17.6679 33.5975 30.4327 37.1036C31.5202 37.4023 32.5695 37.7713 33.5771 38.2043C36.5938 31.7397 43.9165 28.1983 51.0269 30.1513C52.8246 30.6451 54.4546 31.4477 55.8753 32.4862C55.3004 28.758 55.4843 24.8511 56.5481 20.9782C60.5876 6.27125 75.7846 -2.3764 90.4916 1.66312C98.6414 3.90163 104.931 9.56642 108.231 16.6754C113.913 11.8176 121.825 9.77266 129.576 11.9016C141.993 15.3122 149.294 28.1431 145.884 40.5602ZM133.024 55.6228C133.075 55.5996 133.126 55.5763 133.177 55.5528C133.148 55.5918 133.12 55.631 133.092 55.6702L133.024 55.6228Z"/>
</mask>
<path fill-rule="evenodd" clip-rule="evenodd" d="M145.884 40.5602C144.947 43.9704 143.3 46.9947 141.146 49.5173C144.383 48.3238 148.011 48.0945 151.592 49.078C160.712 51.583 166.074 61.0067 163.569 70.1266C161.101 79.1134 151.914 84.4517 142.92 82.2086C144.087 86.2524 144.19 90.6583 142.994 95.0141C139.534 107.612 126.516 115.019 113.919 111.559C105.635 109.284 99.5956 102.876 97.4144 95.1725C92.7108 97.2865 87.5189 98.3639 82.1973 98.2007C76.9828 112.854 61.2582 121.216 46.0182 117.03C31.3873 113.011 22.2797 98.8221 24.2316 84.1907C22.0872 84.2027 19.9055 83.9249 17.736 83.329C4.97121 79.8229 -2.53448 66.6328 0.971607 53.868C4.47769 41.1032 17.6679 33.5975 30.4327 37.1036C31.5202 37.4023 32.5695 37.7713 33.5771 38.2043C36.5938 31.7397 43.9165 28.1983 51.0269 30.1513C52.8246 30.6451 54.4546 31.4477 55.8753 32.4862C55.3004 28.758 55.4843 24.8511 56.5481 20.9782C60.5876 6.27125 75.7846 -2.3764 90.4916 1.66312C98.6414 3.90163 104.931 9.56642 108.231 16.6754C113.913 11.8176 121.825 9.77266 129.576 11.9016C141.993 15.3122 149.294 28.1431 145.884 40.5602ZM133.024 55.6228C133.075 55.5996 133.126 55.5763 133.177 55.5528C133.148 55.5918 133.12 55.631 133.092 55.6702L133.024 55.6228Z" fill="white"/>
<path d="M141.146 49.5173L137.645 46.5278L126.197 59.9349L142.738 53.8368L141.146 49.5173ZM142.92 82.2086L144.034 77.7418L136.28 75.8081L138.497 83.4855L142.92 82.2086ZM97.4144 95.1725L101.844 93.9184L100.391 88.7874L95.5272 90.9735L97.4144 95.1725ZM82.1973 98.2007L82.3384 93.5992L78.9849 93.4963L77.8601 96.6572L82.1973 98.2007ZM24.2316 84.1907L28.7948 84.7994L29.4941 79.5574L24.2058 79.5871L24.2316 84.1907ZM33.5771 38.2043L31.7594 42.4339L35.8611 44.1967L37.7489 40.1511L33.5771 38.2043ZM55.8753 32.4862L53.1585 36.2028L62.116 42.7505L60.4252 31.7847L55.8753 32.4862ZM108.231 16.6754L104.056 18.6141L106.611 24.1178L111.223 20.1745L108.231 16.6754ZM133.177 55.5528L136.907 58.2511L147.229 43.982L131.244 51.3743L133.177 55.5528ZM133.024 55.6228L131.122 51.4304L123.727 54.7853L130.403 59.4077L133.024 55.6228ZM133.092 55.6702L130.472 59.4551L134.211 62.0441L136.845 58.337L133.092 55.6702ZM144.647 52.5068C147.231 49.4809 149.204 45.8549 150.323 41.7795L141.445 39.3409C140.691 42.0859 139.369 44.5085 137.645 46.5278L144.647 52.5068ZM152.811 44.6388C148.273 43.3924 143.663 43.6829 139.554 45.1978L142.738 53.8368C145.104 52.9648 147.749 52.7966 150.372 53.5173L152.811 44.6388ZM168.008 71.3459C171.187 59.7743 164.383 47.8171 152.811 44.6388L150.372 53.5173C157.041 55.3488 160.961 62.2392 159.13 68.9073L168.008 71.3459ZM141.806 86.6755C153.22 89.5221 164.876 82.7493 168.008 71.3459L159.13 68.9073C157.325 75.4775 150.608 79.3813 144.034 77.7418L141.806 86.6755ZM147.433 96.2335C148.86 91.037 148.739 85.7669 147.343 80.9317L138.497 83.4855C139.436 86.7378 139.52 90.2797 138.554 93.7948L147.433 96.2335ZM112.699 115.998C127.749 120.132 143.299 111.283 147.433 96.2335L138.554 93.7948C135.768 103.941 125.284 109.906 115.138 107.12L112.699 115.998ZM92.9849 96.4267C95.5867 105.616 102.798 113.279 112.699 115.998L115.138 107.12C108.472 105.289 103.604 100.136 101.844 93.9184L92.9849 96.4267ZM82.0562 102.802C88.0923 102.987 93.9765 101.765 99.3017 99.3716L95.5272 90.9735C91.4451 92.8081 86.9456 93.7405 82.3384 93.5992L82.0562 102.802ZM44.7989 121.469C62.3808 126.299 80.5178 116.652 86.5346 99.7441L77.8601 96.6572C73.4478 109.056 60.1355 116.134 47.2376 112.591L44.7989 121.469ZM19.6683 83.5819C17.4162 100.464 27.9178 116.833 44.7989 121.469L47.2376 112.591C34.8568 109.19 27.1433 97.1798 28.7948 84.7994L19.6683 83.5819ZM24.2058 79.5871C22.4779 79.5968 20.7153 79.3732 18.9553 78.8898L16.5167 87.7683C19.0956 88.4766 21.6965 88.8087 24.2574 88.7943L24.2058 79.5871ZM18.9553 78.8898C8.64227 76.0571 2.57821 65.4004 5.41088 55.0873L-3.46766 52.6486C-7.64716 67.8652 1.30014 83.5888 16.5167 87.7683L18.9553 78.8898ZM5.41088 55.0873C8.24354 44.7742 18.9003 38.7102 29.2133 41.5428L31.652 32.6643C16.4354 28.4848 0.711835 37.4321 -3.46766 52.6486L5.41088 55.0873ZM29.2133 41.5428C30.0962 41.7853 30.9456 42.0842 31.7594 42.4339L35.3949 33.9747C34.1934 33.4583 32.9442 33.0192 31.652 32.6643L29.2133 41.5428ZM52.2462 25.7121C42.9352 23.1546 33.3552 27.7931 29.4053 36.2575L37.7489 40.1511C39.8325 35.6862 44.8977 33.242 49.8076 34.5906L52.2462 25.7121ZM58.592 28.7696C56.7271 27.4065 54.5911 26.3561 52.2462 25.7121L49.8076 34.5906C51.0581 34.9341 52.182 35.489 53.1585 36.2028L58.592 28.7696ZM52.1088 19.7589C50.87 24.2693 50.6536 28.8312 51.3253 33.1878L60.4252 31.7847C59.9472 28.6849 60.0987 25.433 60.9874 22.1975L52.1088 19.7589ZM91.7109 -2.77615C74.5522 -7.48908 56.8218 2.60018 52.1088 19.7589L60.9874 22.1975C64.3535 9.94231 77.017 2.73628 89.2722 6.10239L91.7109 -2.77615ZM112.407 14.7368C108.561 6.45268 101.221 -0.164129 91.7109 -2.77615L89.2722 6.10239C96.0623 7.96739 101.301 12.6802 104.056 18.6141L112.407 14.7368ZM130.795 7.46236C121.51 4.9119 112.032 7.36844 105.239 13.1764L111.223 20.1745C115.793 16.2668 122.14 14.6334 128.357 16.3409L130.795 7.46236ZM150.323 41.7795C154.407 26.9107 145.664 11.5464 130.795 7.46236L128.357 16.3409C138.322 19.0781 144.182 29.3755 141.445 39.3409L150.323 41.7795ZM131.244 51.3743C131.203 51.3933 131.162 51.412 131.122 51.4304L134.926 59.8151C134.987 59.7873 135.048 59.7593 135.109 59.7313L131.244 51.3743ZM136.845 58.337C136.865 58.3082 136.886 58.2796 136.907 58.2511L129.446 52.8545C129.411 52.9041 129.375 52.9537 129.34 53.0035L136.845 58.337ZM130.403 59.4077L130.472 59.4551L135.713 51.8853L135.645 51.8379L130.403 59.4077Z" fill="white" mask="url(#path-1-inside-1_1_716)"/>
</g>
</svg>
