<svg width="279" height="193" viewBox="0 0 279 193" fill="none" xmlns="http://www.w3.org/2000/svg">
<mask id="path-1-inside-1_1_668" fill="white">
<path fill-rule="evenodd" clip-rule="evenodd" d="M114.482 11.6691C131.214 13.743 144.646 24.7785 150.563 39.3664C154.276 30.172 163.816 24.2423 174.123 25.5199C186.254 27.0237 194.917 37.9499 193.682 50.0511C199.683 45.8837 207.183 43.8268 215.005 44.7963C231.867 46.8865 243.843 62.2506 241.752 79.1129C239.714 95.5551 225.056 107.351 208.693 105.991C208.652 106.423 208.605 106.856 208.551 107.29C205.503 131.881 183.097 149.345 158.506 146.297C152.863 145.597 147.595 143.879 142.865 141.348C136.047 163.504 114.128 178.257 90.3238 175.306C71.4654 172.969 56.4676 160.145 50.4516 143.407C45.2814 145.926 39.3462 147.027 33.2129 146.267C16.3505 144.177 4.37526 128.813 6.46543 111.95C8.44758 95.9593 22.3672 84.3634 38.1815 84.9902C36.9643 81.6993 36.496 78.0936 36.9545 74.3948C38.5222 61.7481 50.33 52.8019 63.328 54.4131C63.5952 54.4462 63.8608 54.4835 64.1247 54.525C64.1736 53.2496 64.2771 51.9656 64.437 50.6757C67.4851 26.0848 89.891 8.6209 114.482 11.6691Z"/>
</mask>
<path d="M150.563 39.3664L147.306 40.6873L150.569 48.7336L153.821 40.6825L150.563 39.3664ZM193.682 50.0511L190.186 49.6943L189.41 57.2958L195.686 52.9378L193.682 50.0511ZM208.693 105.991L208.984 102.488L205.523 102.201L205.195 105.658L208.693 105.991ZM142.865 141.348L144.522 138.249L140.761 136.237L139.506 140.314L142.865 141.348ZM50.4516 143.407L53.7588 142.218L52.4338 138.531L48.912 140.248L50.4516 143.407ZM38.1815 84.9902L38.0423 88.5018L43.3045 88.7104L41.4776 83.7711L38.1815 84.9902ZM64.1247 54.525L63.5796 57.9968L67.4848 58.61L67.6364 54.6597L64.1247 54.525ZM153.819 38.0455C147.443 22.3247 132.961 10.4184 114.914 8.18142L114.05 15.1567C129.466 17.0676 141.849 27.2324 147.306 40.6873L153.819 38.0455ZM174.555 22.0323C162.628 20.5539 151.599 27.4166 147.304 38.0503L153.821 40.6825C156.953 32.9273 165.003 27.9307 173.691 29.0075L174.555 22.0323ZM197.178 50.4079C198.607 36.4094 188.588 23.7717 174.555 22.0323L173.691 29.0075C183.921 30.2757 191.227 39.4903 190.186 49.6943L197.178 50.4079ZM215.437 41.3087C206.724 40.2287 198.362 42.5228 191.677 47.1644L195.686 52.9378C201.005 49.2447 207.642 47.4249 214.573 48.284L215.437 41.3087ZM245.24 79.5452C247.569 60.7567 234.226 43.6376 215.437 41.3087L214.573 48.284C229.509 50.1354 240.116 63.7444 238.265 78.6806L245.24 79.5452ZM208.402 109.493C226.636 111.009 242.969 97.8664 245.24 79.5452L238.265 78.6806C236.46 93.2438 223.475 103.693 208.984 102.488L208.402 109.493ZM212.039 107.723C212.097 107.255 212.148 106.789 212.192 106.323L205.195 105.658C205.157 106.057 205.113 106.457 205.063 106.858L212.039 107.723ZM158.074 149.785C184.591 153.071 208.752 134.24 212.039 107.723L205.063 106.858C202.254 129.523 181.603 145.619 158.938 142.809L158.074 149.785ZM141.207 144.447C146.313 147.178 151.995 149.031 158.074 149.785L158.938 142.809C153.731 142.164 148.878 140.579 144.522 138.249L141.207 144.447ZM89.8915 178.794C115.417 181.958 138.913 166.139 146.224 142.382L139.506 140.314C133.18 160.87 112.839 174.556 90.7561 171.818L89.8915 178.794ZM47.1444 144.595C53.5911 162.532 69.6675 176.287 89.8915 178.794L90.7561 171.818C73.2633 169.65 59.3441 157.758 53.7588 142.218L47.1444 144.595ZM48.912 140.248C44.3348 142.478 39.0831 143.453 33.6452 142.779L32.7805 149.754C39.6094 150.601 46.2279 149.375 51.9913 146.566L48.912 140.248ZM33.6452 142.779C18.709 140.928 8.10166 127.319 9.95307 112.383L2.97779 111.518C0.648868 130.306 13.992 147.426 32.7805 149.754L33.6452 142.779ZM9.95307 112.383C11.7086 98.22 24.0381 87.9467 38.0423 88.5018L38.3207 81.4786C20.6963 80.7801 5.18658 93.6986 2.97779 111.518L9.95307 112.383ZM33.4669 73.9625C32.9373 78.235 33.4788 82.4064 34.8854 86.2094L41.4776 83.7711C40.4497 80.9922 40.0548 77.9522 40.4422 74.8271L33.4669 73.9625ZM63.7604 50.9255C48.9268 49.0868 35.2844 59.3001 33.4669 73.9625L40.4422 74.8271C41.7599 64.196 51.7331 56.5171 62.8957 57.9007L63.7604 50.9255ZM64.6698 51.0532C64.3684 51.0059 64.0652 50.9633 63.7604 50.9255L62.8957 57.9007C63.1252 57.9292 63.3531 57.9612 63.5796 57.9968L64.6698 51.0532ZM60.9493 50.2434C60.7772 51.6322 60.6657 53.0154 60.6129 54.3902L67.6364 54.6597C67.6816 53.4837 67.777 52.299 67.9246 51.108L60.9493 50.2434ZM114.914 8.18142C88.3972 4.8945 64.2363 23.7263 60.9493 50.2434L67.9246 51.108C70.734 28.4433 91.3849 12.3473 114.05 15.1567L114.914 8.18142Z" fill="white" mask="url(#path-1-inside-1_1_668)"/>
<mask id="path-3-inside-2_1_668" fill="white">
<path fill-rule="evenodd" clip-rule="evenodd" d="M263.499 98.7088C263.018 100.461 262.171 102.015 261.065 103.311C262.728 102.697 264.592 102.579 266.432 103.085C271.117 104.372 273.872 109.213 272.586 113.899C271.317 118.515 266.598 121.258 261.978 120.106C262.577 122.183 262.63 124.447 262.016 126.684C260.238 133.156 253.55 136.962 247.078 135.184C242.822 134.015 239.719 130.723 238.599 126.765C236.182 127.852 233.514 128.406 230.779 128.322C228.1 135.85 220.021 140.146 212.192 137.995C204.675 135.931 199.996 128.641 200.999 121.124C199.898 121.13 198.778 120.987 197.664 120.682C191.106 118.88 187.25 112.104 189.051 105.546C190.852 98.9878 197.629 95.1317 204.187 96.933C204.745 97.0863 205.284 97.2758 205.801 97.4981C207.351 94.177 211.113 92.3578 214.766 93.3611C215.689 93.6148 216.526 94.027 217.256 94.5603C216.961 92.6449 217.055 90.6376 217.602 88.6478C219.677 81.092 227.485 76.6493 235.04 78.7246C239.228 79.8747 242.459 82.7854 244.155 86.438C247.074 83.9422 251.139 82.8915 255.121 83.9853C261.5 85.7375 265.251 92.3294 263.499 98.7088ZM256.932 106.429C256.945 106.423 256.958 106.417 256.971 106.411C256.957 106.431 256.942 106.451 256.928 106.472L256.892 106.447C256.905 106.441 256.919 106.435 256.932 106.429Z"/>
</mask>
<path fill-rule="evenodd" clip-rule="evenodd" d="M263.499 98.7088C263.018 100.461 262.171 102.015 261.065 103.311C262.728 102.697 264.592 102.579 266.432 103.085C271.117 104.372 273.872 109.213 272.586 113.899C271.317 118.515 266.598 121.258 261.978 120.106C262.577 122.183 262.63 124.447 262.016 126.684C260.238 133.156 253.55 136.962 247.078 135.184C242.822 134.015 239.719 130.723 238.599 126.765C236.182 127.852 233.514 128.406 230.779 128.322C228.1 135.85 220.021 140.146 212.192 137.995C204.675 135.931 199.996 128.641 200.999 121.124C199.898 121.13 198.778 120.987 197.664 120.682C191.106 118.88 187.25 112.104 189.051 105.546C190.852 98.9878 197.629 95.1317 204.187 96.933C204.745 97.0863 205.284 97.2758 205.801 97.4981C207.351 94.177 211.113 92.3578 214.766 93.3611C215.689 93.6148 216.526 94.027 217.256 94.5603C216.961 92.6449 217.055 90.6376 217.602 88.6478C219.677 81.092 227.485 76.6493 235.04 78.7246C239.228 79.8747 242.459 82.7854 244.155 86.438C247.074 83.9422 251.139 82.8915 255.121 83.9853C261.5 85.7375 265.251 92.3294 263.499 98.7088ZM256.932 106.429C256.945 106.423 256.958 106.417 256.971 106.411C256.957 106.431 256.942 106.451 256.928 106.472L256.892 106.447C256.905 106.441 256.919 106.435 256.932 106.429Z" fill="white"/>
<path d="M261.065 103.311L258.392 101.029L249.65 111.266L262.281 106.608L261.065 103.311ZM261.978 120.106L262.828 116.696L256.91 115.221L258.601 121.08L261.978 120.106ZM238.599 126.765L241.98 125.808L240.871 121.89L237.158 123.56L238.599 126.765ZM230.779 128.322L230.887 124.809L228.327 124.73L227.468 127.143L230.779 128.322ZM200.999 121.124L204.482 121.589L205.016 117.588L200.98 117.61L200.999 121.124ZM205.801 97.4981L204.414 100.727L207.545 102.072L208.986 98.9843L205.801 97.4981ZM217.256 94.5603L215.183 97.3976L222.02 102.395L220.729 94.0247L217.256 94.5603ZM244.155 86.438L240.967 87.9177L242.918 92.1196L246.438 89.109L244.155 86.438ZM256.971 106.411L259.819 108.471L267.699 97.5779L255.496 103.221L256.971 106.411ZM256.932 106.429L255.469 103.234L255.468 103.234L256.932 106.429ZM256.928 106.472L254.927 109.361L257.781 111.338L259.792 108.507L256.928 106.472ZM256.892 106.447L255.44 103.247L249.796 105.808L254.891 109.336L256.892 106.447ZM263.737 105.593C265.172 103.913 266.267 101.9 266.888 99.6396L260.11 97.778C259.768 99.0222 259.171 100.117 258.392 101.029L263.737 105.593ZM267.363 99.6959C264.792 98.9898 262.178 99.1546 259.849 100.013L262.281 106.608C263.278 106.24 264.392 106.169 265.501 106.474L267.363 99.6959ZM275.974 114.829C277.775 108.272 273.92 101.497 267.363 99.6959L265.501 106.474C268.315 107.246 269.97 110.154 269.197 112.968L275.974 114.829ZM261.128 123.516C267.596 125.128 274.2 121.291 275.974 114.829L269.197 112.968C268.435 115.74 265.601 117.387 262.828 116.696L261.128 123.516ZM265.404 127.615C266.195 124.736 266.128 121.813 265.354 119.131L258.601 121.08C259.026 122.554 259.065 124.157 258.627 125.753L265.404 127.615ZM246.147 138.573C254.491 140.865 263.113 135.958 265.404 127.615L258.627 125.753C257.363 130.354 252.609 133.059 248.009 131.795L246.147 138.573ZM235.217 127.723C236.659 132.814 240.657 137.065 246.147 138.573L248.009 131.795C244.988 130.965 242.78 128.631 241.98 125.808L235.217 127.723ZM230.671 131.834C233.952 131.935 237.148 131.27 240.04 129.971L237.158 123.56C235.215 124.433 233.076 124.876 230.887 124.809L230.671 131.834ZM211.261 141.384C220.878 144.025 230.798 138.749 234.09 129.5L227.468 127.143C225.401 132.951 219.164 136.266 213.123 134.606L211.261 141.384ZM197.515 120.66C196.284 129.895 202.027 138.848 211.261 141.384L213.123 134.606C207.324 133.014 203.709 127.387 204.482 121.589L197.515 120.66ZM200.98 117.61C200.196 117.614 199.396 117.513 198.594 117.293L196.733 124.07C198.159 124.462 199.599 124.646 201.018 124.638L200.98 117.61ZM198.594 117.293C193.908 116.006 191.152 111.163 192.44 106.477L185.662 104.615C183.347 113.045 188.303 121.755 196.733 124.07L198.594 117.293ZM192.44 106.477C193.727 101.79 198.569 99.0346 203.256 100.322L205.117 93.5442C196.688 91.2288 187.977 96.1854 185.662 104.615L192.44 106.477ZM203.256 100.322C203.658 100.432 204.044 100.568 204.414 100.727L207.188 94.2692C206.523 93.9833 205.832 93.7404 205.117 93.5442L203.256 100.322ZM215.697 89.9723C210.364 88.5076 204.879 91.1643 202.617 96.0118L208.986 98.9843C209.823 97.1898 211.862 96.208 213.835 96.75L215.697 89.9723ZM219.33 91.7229C218.261 90.9419 217.038 90.3406 215.697 89.9723L213.835 96.75C214.341 96.8889 214.792 97.1121 215.183 97.3976L219.33 91.7229ZM214.213 87.717C213.533 90.1934 213.414 92.7007 213.783 95.0959L220.729 94.0247C220.508 92.589 220.578 91.0818 220.991 89.5786L214.213 87.717ZM235.971 75.3358C226.544 72.7464 216.802 78.2897 214.213 87.717L220.991 89.5786C222.552 83.8944 228.426 80.5522 234.11 82.1134L235.971 75.3358ZM247.342 84.9583C245.23 80.4085 241.197 76.771 235.971 75.3358L234.11 82.1134C237.259 82.9784 239.688 85.1622 240.967 87.9177L247.342 84.9583ZM256.052 80.5965C250.898 79.181 245.638 80.5458 241.871 83.7669L246.438 89.109C248.509 87.3386 251.379 86.6021 254.19 87.3741L256.052 80.5965ZM266.888 99.6396C269.154 91.3887 264.303 82.8628 256.052 80.5965L254.19 87.3741C258.698 88.6123 261.348 93.2702 260.11 97.778L266.888 99.6396ZM255.496 103.221C255.487 103.226 255.478 103.23 255.469 103.234L258.395 109.624C258.412 109.616 258.43 109.609 258.447 109.601L255.496 103.221ZM259.792 108.507C259.801 108.496 259.81 108.483 259.819 108.471L254.124 104.351C254.104 104.379 254.084 104.407 254.063 104.436L259.792 108.507ZM254.891 109.336L254.927 109.361L258.929 103.583L258.893 103.558L254.891 109.336ZM255.468 103.234C255.458 103.239 255.449 103.243 255.44 103.247L258.344 109.648C258.362 109.64 258.379 109.632 258.395 109.624L255.468 103.234Z" fill="white" mask="url(#path-3-inside-2_1_668)"/>
</svg>
