<svg width="23" height="45" viewBox="0 0 23 45" fill="none" xmlns="http://www.w3.org/2000/svg">
<path d="M13.0185 1.56934C13.0185 0.740909 12.347 0.0693359 11.5185 0.0693359C10.6901 0.0693359 10.0185 0.740909 10.0185 1.56934H13.0185ZM10.4579 44.4579C11.0437 45.0437 11.9934 45.0437 12.5792 44.4579L22.1251 34.912C22.7109 34.3262 22.7109 33.3764 22.1251 32.7907C21.5393 32.2049 20.5896 32.2049 20.0038 32.7907L11.5185 41.2759L3.03325 32.7907C2.44746 32.2049 1.49772 32.2049 0.91193 32.7907C0.326143 33.3764 0.326143 34.3262 0.91193 34.912L10.4579 44.4579ZM10.0185 1.56934L10.0185 43.3973H13.0185L13.0185 1.56934H10.0185Z" fill="black"/>
</svg>
