<svg width="355" height="239" viewBox="0 0 355 239" fill="none" xmlns="http://www.w3.org/2000/svg">
<g filter="url(#filter0_d_1_764)">
<path d="M73.0789 110.842C73.5407 111.229 74.041 111.578 74.4644 112.004C75.6381 113.206 76.6195 114.639 78.6592 113.806C79.1402 113.612 79.9291 114.155 80.5641 114.426C83.2773 115.666 85.9904 116.926 88.6843 118.224C89.1076 118.418 89.4348 118.824 89.8581 119.076C90.57 119.503 91.4744 120.355 92.0132 120.161C93.9567 119.464 95.3806 120.684 97.0354 120.975C103.558 122.138 110.178 123.145 116.778 121.498C120.395 120.588 123.974 119.444 127.515 118.204C128.342 117.914 128.92 116.848 129.632 116.151C130.305 115.492 130.902 114.717 131.652 114.213C135.116 111.966 138.387 109.582 140.292 105.63C142.812 100.36 140.831 93.7141 134.327 91.7184C127.996 89.7809 121.569 88.599 114.969 87.9984C107.542 87.3202 100.095 86.2546 92.8021 84.6271C88.184 83.5808 83.3927 81.9145 80.1216 78.0007C76.6772 73.8932 75.5034 69.3013 76.5618 63.4693C77.6201 57.7536 82.4306 55.6611 84.8166 51.4179C85.0283 51.0304 85.7403 50.8366 86.2598 50.7204C91.2628 49.5579 96.2272 48.0854 101.288 47.4072C106.079 46.7485 110.947 46.9228 115.796 46.7678C116.682 46.7485 117.567 46.9616 118.452 47.0003C126.822 47.4266 134.269 50.5073 141.138 55.3317C141.542 55.603 141.677 56.2811 141.947 56.7461C143.082 58.7224 144.313 60.6405 145.314 62.6943C145.622 63.3143 145.506 64.3218 145.256 65.0193C145.025 65.62 144.352 66.0656 143.775 66.4531C143.294 66.7825 142.601 67.2087 142.177 67.0537C141.793 66.9181 141.677 66.0656 141.427 65.5231C141.081 64.7868 140.792 64.0118 140.349 63.3337C138.137 59.9043 134.769 58.2961 131.113 57.1336C128.823 56.4167 126.611 55.2348 124.282 54.9248C119.068 54.2273 113.815 53.5492 108.561 53.6267C104.521 53.6848 100.287 54.3436 96.4774 55.7192C92.629 57.1142 88.6073 58.4511 85.3939 61.4737C82.0843 64.5931 82.0458 69.9019 85.3554 73.0601C89.2616 76.7607 94.0721 77.6326 98.9404 78.2914C108.523 79.5895 118.125 80.6939 127.727 81.8952C127.996 81.9339 128.285 81.9145 128.535 82.0308C132.672 83.6971 137.271 84.0846 141.023 86.9327C145.487 90.304 147.796 94.7216 148.046 100.476C148.335 107.199 145.352 112.101 140.811 116.499C134.077 123.029 125.976 126.245 117.086 127.601C113.18 128.202 109.216 128.686 105.271 128.745C102.654 128.783 99.9987 128.066 97.401 127.563C95.3229 127.156 93.3024 126.361 91.205 126.09C88.4727 125.741 86.2598 124.153 84.7974 122.215C82.9309 119.754 80.3332 119.076 78.0434 117.604C76.1384 116.383 74.3104 115.027 72.6171 113.516C72.1746 113.128 72.4055 111.946 72.3285 111.113C72.5786 111.016 72.8288 110.919 73.0789 110.842Z" fill="white"/>
<path d="M177.603 101.601C185.608 101.097 193.459 100.942 200.29 95.9626C203.811 93.3857 204.08 88.4451 200.328 86.3138C192.189 81.7025 183.857 81.6444 175.583 85.965C170.349 88.6969 166.635 92.882 164.942 98.8496C164.519 100.322 164.923 100.845 166.27 100.942C170.118 101.155 173.928 101.388 177.603 101.601ZM181.259 121.596C187.224 120.763 193.247 120.124 199.174 119.019C202.964 118.322 206.659 116.907 210.392 115.842C210.777 115.725 211.277 115.551 211.604 115.706C213.817 116.675 216.107 117.101 218.512 117.101C218.858 117.101 219.436 118.109 219.493 118.69C219.513 119.077 218.897 119.775 218.435 119.949C214.818 121.189 211.239 122.894 207.525 123.32C204.273 123.689 201.464 125.374 198.212 125.607C194.748 125.859 191.361 126.944 187.898 127.292C184.915 127.602 181.875 127.351 178.854 127.467C177.353 127.525 175.891 127.816 174.39 127.99C173.851 128.048 173.255 128.281 172.773 128.126C168.194 126.731 163.903 124.754 160.824 120.724C160.285 120.007 159.785 119.213 159.458 118.38C157.514 113.613 156.533 108.789 156.879 103.48C157.264 97.2995 160.266 92.3976 163.152 87.4763C166.135 82.4 171.061 79.5712 176.237 77.5949C185.723 73.9911 194.998 74.708 203.657 80.2881C207.294 82.6325 209.487 86.0619 208.737 90.9057C208.506 92.3589 209.083 93.9476 208.795 95.362C208.487 96.8733 207.948 98.7333 206.871 99.5664C204.273 101.601 201.348 103.209 198.481 104.856C194.94 106.89 190.957 107.452 187.051 107.646C181.105 107.956 175.14 107.82 169.175 107.82C167.944 107.82 166.731 107.51 165.5 107.491C163.768 107.472 163.172 108.285 163.576 109.835C165.134 115.958 168.867 119.717 174.871 120.802C176.949 121.17 179.104 121.092 181.24 121.228C181.221 121.325 181.24 121.46 181.259 121.596Z" fill="white"/>
<path d="M272.37 97.591C271.427 100.149 270.561 102.725 269.542 105.264C267.059 111.464 264.288 117.606 259.805 122.488C256.899 125.666 253.205 128.107 248.933 129.095C244.95 130.025 241.352 128.669 237.907 126.712C236.464 125.879 235.04 125.026 233.655 124.116C233.174 123.786 232.423 123.166 232.481 122.798C232.962 119.834 230.692 117.761 230.307 115.106C229.806 111.599 229.133 108.092 229.037 104.566C228.864 98.5792 229.095 92.5728 229.133 86.5859C229.152 83.6602 229.883 81.1414 232.327 79.3395C232.943 78.8745 233.193 77.8864 233.79 77.3826C234.309 76.937 235.098 76.8207 235.772 76.5688C235.887 77.247 236.272 78.022 236.079 78.6033C235.271 81.2383 234.078 83.7571 234.983 86.6827C235.29 87.6709 235.214 88.7946 235.214 89.8603C235.194 96.2154 234.752 102.59 235.233 108.906C235.637 114.196 237.292 119.349 242.756 121.636C245.2 122.663 247.759 122.488 250.145 121.326C253.917 119.485 256.707 116.404 258.824 112.781C262.999 105.632 265.982 97.901 268.349 89.9184C269.137 87.264 269.715 84.5515 270.542 81.9164C270.946 80.5989 271.581 79.3201 272.332 78.177C273.217 76.8595 275.93 77.0145 276.873 78.487C277.546 79.5139 278.143 80.7733 278.2 81.9745C278.431 86.179 278.393 90.3834 278.508 94.5879C278.566 96.9323 278.874 99.296 278.797 101.64C278.624 106.504 278.778 111.386 276.546 115.959C275.545 118.032 275.199 120.434 274.429 122.643C274.237 123.186 273.505 123.535 273.024 123.961C272.793 123.438 272.332 122.895 272.351 122.372C272.543 115.901 272.832 109.429 273.044 102.958C273.101 101.234 273.063 99.4898 273.063 97.7654C272.832 97.7073 272.601 97.6491 272.37 97.591Z" fill="white"/>
<path d="M303.679 66.8409C304.103 68.139 304.564 69.4178 304.911 70.7159C305.046 71.2391 305.007 71.8203 304.93 72.3628C304.584 74.8816 304.122 77.4004 303.872 79.9386C303.371 85.1117 303.025 90.3043 302.448 95.4581C302.332 96.5431 301.447 97.5507 300.966 98.5969C300.35 99.9532 299.35 101.329 299.292 102.724C299.138 106.425 299.465 110.145 299.484 113.845C299.504 116.538 299.273 119.212 299.254 121.905C299.234 124.909 296.521 126.207 295.424 128.532C295.309 128.784 294.25 128.9 294.173 128.745C293.827 128.125 293.462 127.369 293.5 126.691C293.673 122.215 294.02 117.759 294.173 113.303C294.289 110.086 294.481 106.851 294.116 103.673C293.057 94.2569 293.731 84.8405 294.173 75.4435C294.404 70.4447 295.578 65.4458 296.598 60.5245C296.829 59.4589 298.157 58.3158 299.234 57.8895C299.927 57.6182 301.312 58.3739 301.986 59.0908C303.987 61.1833 303.987 63.9733 303.679 66.8409Z" fill="white"/>
<path d="M55.2996 69.1265C56.0885 69.0296 56.5888 68.8746 57.0314 68.9521C57.7433 69.0684 58.4168 69.359 59.0903 69.5722C58.8786 70.2503 58.7054 70.9672 58.4745 71.6453C58.2436 72.3622 57.7626 73.0597 57.7241 73.7766C57.3777 80.5192 56.9352 87.2811 56.8582 94.0431C56.8005 98.9256 57.3777 103.828 57.5317 108.71C57.6664 113.186 57.6471 117.681 57.5124 122.157C57.4932 122.97 56.7043 123.803 56.204 124.559C55.7421 125.237 54.9725 125.76 54.7223 126.497C54.2605 127.911 53.4331 128.066 52.3363 127.62C51.1433 127.136 49.9695 125.935 50.7584 124.888C52.1823 122.99 51.2972 121.091 51.4127 119.212C51.5666 116.731 51.6051 114.368 50.489 111.926C49.7771 110.338 50.2774 108.168 50.2581 106.249C50.2389 99.4875 50.5468 92.6868 50.0465 85.9636C49.8733 83.6386 50.2004 81.8173 50.7584 79.7054C51.3549 77.516 51.0471 75.0747 51.1048 72.7303C51.1818 69.7078 51.7205 69.1265 54.5684 69.1071H55.2996" fill="white"/>
<path d="M54.9725 48.356C56.4734 49.5185 57.8588 50.1579 58.5708 51.2623C59.3597 52.5023 58.6477 53.8004 57.474 54.7498C56.9929 55.1373 56.6081 55.893 56.4926 56.5324C56.1463 58.5474 55.0495 58.3536 53.818 57.6174C52.0285 56.5517 50.8932 53.6261 51.8169 51.4173C52.2787 50.2547 53.6833 49.5379 54.9725 48.356Z" fill="white"/>
<path d="M135.308 158.718C135.635 158.718 135.943 158.699 136.232 158.679C136.52 158.641 136.79 158.544 137.021 158.35C137.252 158.156 137.521 158.059 137.81 158.021C138.195 157.962 138.56 157.962 138.887 157.962C139.214 157.982 139.599 158.021 140.003 158.098C140.696 158.253 141.004 158.66 140.908 159.28C140.811 159.9 140.35 160.229 139.503 160.229H135.308V167.728C135.308 169.181 135.116 170.479 134.75 171.661C134.385 172.843 133.788 173.424 132.961 173.424C132.383 173.424 132.018 173.191 131.845 172.726C131.671 172.261 131.575 171.777 131.575 171.273V149.534C131.575 148.914 131.325 148.43 130.806 148.081C130.286 147.732 129.882 147.5 129.574 147.364C128.901 147.074 128.65 146.764 128.804 146.473C128.958 146.163 129.382 146.027 130.074 146.085C130.825 146.124 131.671 146.221 132.595 146.415C133.538 146.589 134.173 146.764 134.5 146.88C135.27 147.151 135.597 147.461 135.481 147.829C135.366 148.197 135.308 148.565 135.308 148.972V158.718ZM124.129 158.641C124.129 156.8 123.647 155.366 122.685 154.378C121.723 153.371 120.607 152.867 119.337 152.867C118.086 152.867 116.99 153.371 116.047 154.378C115.104 155.366 114.642 156.8 114.642 158.641C114.642 160.52 115.104 161.954 116.047 162.961C116.99 163.949 118.086 164.453 119.337 164.453C120.588 164.453 121.723 163.949 122.685 162.961C123.647 161.954 124.129 160.52 124.129 158.641ZM110.986 158.641C110.986 156.529 111.717 154.707 113.18 153.138C114.45 151.84 116.124 151.084 118.221 150.91L118.298 150.716C118.337 150.619 118.356 150.464 118.375 150.27C118.414 150.115 118.394 149.941 118.337 149.767C118.279 149.592 118.144 149.399 117.913 149.147C117.721 148.934 117.682 148.682 117.817 148.391C117.952 148.1 118.317 148.023 118.875 148.159C119.126 148.217 119.395 148.294 119.664 148.391C119.934 148.507 120.222 148.643 120.569 148.837C120.857 148.992 121.031 149.166 121.127 149.36C121.204 149.554 121.223 149.728 121.184 149.96C121.108 150.27 121.031 150.542 120.992 150.735C120.973 150.774 120.954 150.871 120.915 150.968C122.82 151.2 124.34 151.937 125.495 153.157C126.957 154.707 127.688 156.548 127.688 158.699C127.688 160.811 126.957 162.632 125.514 164.201C124.052 165.771 121.993 166.546 119.318 166.546C116.682 166.546 114.623 165.771 113.161 164.201C111.698 162.632 110.986 160.791 110.986 158.641Z" fill="white"/>
<path d="M167.251 163.621C167.251 165.016 167.058 166.218 166.674 167.245C166.289 168.271 165.692 168.795 164.903 168.795C164.345 168.795 163.96 168.562 163.787 168.097C163.614 167.632 163.518 167.128 163.518 166.625V149.516C163.518 148.896 163.325 148.431 162.921 148.121C162.517 147.792 162.19 147.579 161.94 147.482C161.247 147.172 160.978 146.843 161.151 146.513C161.324 146.184 161.748 146.068 162.44 146.106C163.191 146.145 163.96 146.242 164.769 146.416C165.577 146.591 166.135 146.746 166.443 146.881C167.232 147.153 167.578 147.463 167.443 147.811C167.309 148.179 167.251 148.548 167.251 148.954V163.621ZM163.287 171.817L154.109 171.895L154.186 180.555L162.941 180.439C162.998 180.439 163.056 180.342 163.133 180.148C163.21 179.974 163.268 179.78 163.287 179.587V171.817ZM164.634 169.744C164.923 169.783 165.25 169.802 165.635 169.821C166.019 169.86 166.481 169.899 166.981 169.957C167.328 169.976 167.501 170.112 167.54 170.364C167.578 170.635 167.482 170.984 167.289 171.468L165.962 179.955C166.116 179.974 166.327 180.032 166.558 180.071C166.789 180.129 166.962 180.265 167.097 180.439C167.424 180.846 167.482 181.195 167.251 181.524C167.02 181.853 166.481 182.028 165.615 182.086L154.051 182.163C153.993 182.59 153.839 183.016 153.551 183.462C153.262 183.907 152.858 184.14 152.358 184.198C151.876 184.295 151.492 184.198 151.241 183.888C150.991 183.578 150.818 183.074 150.741 182.396L150.241 172.321C150.087 171.992 149.875 171.759 149.644 171.565C149.394 171.391 149.048 171.178 148.586 170.926C148.105 170.713 147.913 170.48 148.047 170.228C148.182 169.976 148.625 169.821 149.394 169.763C149.933 169.705 150.626 169.725 151.472 169.783C152.319 169.841 152.973 170.054 153.435 170.364C153.512 170.383 155.013 170.364 157.918 170.306C160.843 170.248 162.498 170.19 162.902 170.151C163.075 170.015 163.268 169.899 163.46 169.783C163.691 169.725 164.057 169.686 164.634 169.744ZM152.454 149.264C152.165 149.264 151.665 149.284 150.914 149.303C150.683 149.303 150.299 149.303 149.779 149.342C149.24 149.361 148.875 149.361 148.682 149.342C148.451 149.284 148.278 149.226 148.144 149.187C148.028 149.148 147.932 149.109 147.874 149.09C147.585 148.896 147.297 148.683 146.989 148.412C146.681 148.141 146.412 147.908 146.181 147.676C145.892 147.404 145.738 147.133 145.7 146.843C145.661 146.552 146.046 146.513 146.874 146.726C147.509 146.881 147.99 146.978 148.317 147.017C148.644 147.056 149.163 147.094 149.875 147.114C150.78 147.133 151.492 147.153 152.03 147.153H153.57C154.262 147.153 154.724 147.249 154.936 147.443C155.167 147.637 155.263 147.869 155.263 148.102C155.263 148.315 155.167 148.548 154.994 148.819C154.821 149.09 154.301 149.226 153.493 149.226H152.454V149.264ZM157.688 153.353C156.764 154.883 155.475 156.608 153.839 158.565C154.012 158.681 154.205 158.797 154.378 158.933C155.302 159.553 155.86 159.921 156.033 160.056C156.552 160.328 157.014 160.463 157.437 160.463C157.861 160.483 158.361 160.754 158.881 161.296C159.4 161.8 159.9 162.381 160.401 163.001C160.901 163.641 161.151 164.164 161.151 164.629C161.151 164.939 160.939 165.23 160.535 165.501C160.131 165.772 159.554 165.598 158.804 164.978L152.781 159.843L152.704 159.921C150.53 162.44 147.509 164.687 143.641 166.663C142.852 167.07 142.352 167.128 142.178 166.857C142.005 166.566 142.198 166.237 142.756 165.83C144.969 164.358 147.162 162.343 149.375 159.746C151.588 157.15 153.069 154.903 153.839 153.004C153.3 153.023 152.204 153.081 150.587 153.159C148.952 153.217 147.893 153.333 147.393 153.449C147.22 153.508 147.047 153.566 146.893 153.624L146.546 153.74C146.45 153.798 146.316 153.837 146.181 153.895C146.046 153.934 145.777 153.895 145.373 153.779C144.969 153.721 144.545 153.566 144.122 153.372C143.699 153.178 143.371 153.023 143.179 152.907C142.794 152.694 142.583 152.442 142.544 152.113C142.506 151.803 142.794 151.706 143.41 151.803C143.622 151.841 144.083 151.861 144.795 151.88C145.507 151.899 146.046 151.919 146.373 151.919C146.623 151.919 147.278 151.899 148.297 151.861C149.337 151.822 149.972 151.783 150.26 151.764C150.568 151.764 151.068 151.744 151.761 151.686C152.454 151.628 153.204 151.589 153.993 151.531C154.051 151.531 154.166 151.473 154.339 151.338C154.513 151.221 154.782 151.163 155.148 151.163C155.263 151.163 155.667 151.202 156.321 151.279C156.976 151.376 157.437 151.434 157.688 151.493C158.361 151.609 158.342 152.229 157.688 153.353Z" fill="white"/>
<path d="M209.7 167.707C209.7 169.141 209.507 170.458 209.142 171.64C208.776 172.822 208.18 173.403 207.352 173.403C206.794 173.403 206.409 173.171 206.236 172.706C206.044 172.241 205.967 171.756 205.967 171.233V149.494C205.967 148.874 205.697 148.39 205.159 148.021C204.62 147.653 204.216 147.421 203.966 147.324C203.311 147.033 203.042 146.723 203.196 146.413C203.35 146.103 203.773 145.968 204.466 146.026C205.216 146.065 206.044 146.161 206.987 146.355C207.93 146.53 208.565 146.704 208.892 146.84C209.7 147.111 210.027 147.421 209.892 147.77C209.777 148.138 209.7 148.506 209.7 148.932V167.707ZM197.731 158.639C197.731 156.799 197.25 155.365 196.288 154.377C195.326 153.369 194.21 152.865 192.959 152.865C191.708 152.865 190.612 153.369 189.669 154.377C188.726 155.365 188.264 156.799 188.264 158.639C188.264 160.519 188.726 161.952 189.669 162.96C190.612 163.967 191.708 164.452 192.959 164.452C194.21 164.452 195.326 163.948 196.288 162.96C197.25 161.952 197.731 160.519 197.731 158.639ZM184.608 158.639C184.608 156.527 185.339 154.706 186.802 153.156C188.072 151.858 189.746 151.102 191.862 150.928L191.939 150.734C191.959 150.637 191.997 150.482 192.016 150.288C192.035 150.133 192.016 149.959 191.978 149.785C191.92 149.61 191.785 149.397 191.554 149.165C191.362 148.952 191.324 148.7 191.458 148.409C191.612 148.118 191.959 148.021 192.517 148.157C192.767 148.215 193.036 148.293 193.305 148.409C193.575 148.506 193.883 148.661 194.21 148.855C194.479 149.01 194.672 149.184 194.768 149.378C194.864 149.552 194.883 149.746 194.826 149.978C194.749 150.288 194.691 150.56 194.633 150.734C194.614 150.792 194.575 150.87 194.556 150.967C196.461 151.199 197.981 151.955 199.155 153.175C200.618 154.725 201.349 156.566 201.349 158.717C201.349 160.829 200.637 162.65 199.174 164.219C197.731 165.789 195.653 166.564 192.998 166.564C190.342 166.564 188.302 165.789 186.821 164.219C185.32 162.63 184.608 160.77 184.608 158.639Z" fill="white"/>
<path d="M223.92 182.453C223.093 182.375 222.438 182.085 221.938 181.62C221.438 181.155 221.168 180.38 221.111 179.314V176.912C220.841 176.582 220.61 176.369 220.36 176.272C220.11 176.156 219.86 176.059 219.571 175.943C218.84 175.672 218.667 175.4 219.032 175.129C219.398 174.858 219.802 174.703 220.264 174.703C221.188 174.703 222.015 174.761 222.746 174.819C223.477 174.897 223.997 175.013 224.305 175.149C225.382 175.149 227.249 175.09 229.904 175.013C232.56 174.916 233.964 174.858 234.118 174.858C234.176 174.858 234.234 174.819 234.33 174.761C234.407 174.683 234.465 174.625 234.465 174.509V170.712C233.714 170.673 232.175 170.673 229.866 170.731C227.538 170.808 225.96 170.886 225.151 171.002C224.94 171.022 224.747 171.06 224.574 171.118C224.401 171.177 224.209 171.254 224.035 171.37C223.843 171.467 223.651 171.525 223.439 171.525C223.208 171.525 222.881 171.448 222.419 171.312C222.015 171.177 221.592 171.022 221.168 170.847C220.745 170.673 220.322 170.46 219.918 170.227C219.494 169.975 219.302 169.685 219.321 169.394C219.321 169.103 219.667 169.026 220.341 169.162C220.649 169.22 221.014 169.258 221.438 169.278C221.861 169.297 222.361 169.336 222.919 169.355C224.209 169.375 226.325 169.355 229.289 169.297C232.252 169.22 233.887 169.181 234.215 169.123C234.349 169.065 234.445 169.026 234.484 168.987C234.542 168.948 234.599 168.929 234.676 168.89C234.773 168.832 234.907 168.793 235.1 168.793C235.273 168.793 235.581 168.813 235.985 168.832C236.274 168.852 236.562 168.89 236.832 168.89C237.12 168.91 237.428 168.929 237.755 168.987C238.506 169.084 238.871 169.278 238.852 169.549C238.833 169.82 238.737 170.169 238.525 170.634L237.409 174.528C238.255 174.722 238.64 175.09 238.544 175.652C238.467 176.214 237.909 176.485 236.908 176.447L224.844 176.718V179.74C224.844 179.934 224.882 180.147 224.959 180.399C225.036 180.651 225.286 180.806 225.729 180.864L234.465 180.787C234.907 180.787 235.234 180.748 235.446 180.69C235.658 180.632 235.869 180.554 236.043 180.457C236.216 180.38 236.37 180.283 236.485 180.205C236.601 180.109 236.87 180.07 237.313 180.07C237.774 180.05 238.236 180.012 238.717 180.012C239.198 180.012 239.679 180.07 240.122 180.167C240.507 180.264 240.795 180.399 241.026 180.632C241.238 180.864 241.353 181.077 241.353 181.29C241.353 181.542 241.2 181.814 240.911 182.027C240.622 182.259 240.122 182.375 239.429 182.375L223.92 182.453ZM228.076 150.658C228.307 150.213 228.288 149.748 227.999 149.302C227.73 148.837 227.403 148.488 227.037 148.217C226.518 147.771 226.46 147.461 226.845 147.248C227.23 147.054 227.768 147.093 228.461 147.384C228.884 147.519 229.385 147.733 229.943 148.043C230.501 148.353 230.982 148.682 231.386 149.031C231.944 149.496 232.194 149.883 232.136 150.232C232.079 150.581 231.944 150.891 231.732 151.201C231.271 151.821 230.789 152.383 230.27 152.886C230.674 153.099 231.059 153.274 231.386 153.409C232.002 153.681 232.54 153.894 233.002 154.01C234.157 154.359 235.061 154.514 235.715 154.514C236.37 154.494 237.062 154.649 237.774 154.94C238.14 155.095 238.775 155.386 239.679 155.831C240.603 156.258 241.103 156.684 241.238 157.149C241.411 157.75 241.296 158.195 240.892 158.466C240.488 158.718 240.026 158.757 239.506 158.583C238.987 158.408 237.178 157.633 234.061 156.238C231.867 155.25 230.231 154.494 229.135 153.991L229.096 154.029C228.134 154.843 227.018 155.657 225.709 156.51C224.228 157.498 222.727 158.292 221.226 158.912C219.744 159.532 218.763 159.9 218.301 160.036C217.532 160.23 217.089 160.191 216.973 159.92C216.858 159.668 217.031 159.396 217.493 159.164C218.744 158.544 219.841 157.943 220.726 157.323C221.63 156.703 222.573 156.025 223.535 155.269C224.574 154.456 225.44 153.719 226.094 153.119C226.787 152.46 227.441 151.666 228.076 150.658ZM237.255 163.485C237.524 163.485 237.794 163.426 238.044 163.33C238.275 163.213 238.525 163.116 238.794 163C239.006 162.923 239.218 162.845 239.448 162.787C239.679 162.729 239.949 162.69 240.257 162.69C240.68 162.69 241.103 162.69 241.488 162.71C241.873 162.729 242.296 162.748 242.758 162.806C243.239 162.884 243.605 163.039 243.816 163.252C244.028 163.465 244.144 163.698 244.144 163.969C244.144 164.24 244.009 164.511 243.759 164.744C243.489 164.996 243.085 165.131 242.527 165.131H222.034C221.765 165.151 221.495 165.209 221.188 165.306C220.88 165.403 220.63 165.5 220.456 165.616C220.264 165.732 220.033 165.81 219.764 165.887C219.513 165.945 219.167 165.926 218.725 165.829C218.128 165.674 217.551 165.461 216.993 165.209C216.435 164.957 215.954 164.705 215.569 164.473C215.126 164.182 214.953 163.872 215.03 163.562C215.107 163.252 215.473 163.155 216.146 163.291C216.839 163.426 217.647 163.485 218.532 163.485C219.437 163.465 220.36 163.465 221.303 163.504H237.255V163.485Z" fill="white"/>
<path d="M258.074 143.432C258.074 143.18 257.958 142.967 257.708 142.792C257.458 142.618 257.035 142.521 256.438 142.521C256.15 142.521 255.842 142.541 255.553 142.579C255.264 142.618 254.995 142.657 254.764 142.696C254.764 142.618 254.783 142.502 254.841 142.386C254.899 142.269 254.918 142.153 254.918 142.076C254.918 141.959 254.918 141.785 254.899 141.572C254.88 141.359 254.841 141.126 254.783 140.894C254.726 140.681 254.629 140.467 254.495 140.312C254.36 140.138 254.187 140.061 253.975 140.061C253.879 140.061 253.744 140.099 253.571 140.177C253.398 140.254 253.225 140.371 253.071 140.506C252.898 140.642 252.744 140.797 252.609 140.952C252.474 141.107 252.378 141.281 252.32 141.456C252.224 141.804 252.128 142.095 252.07 142.308C252.012 142.541 251.935 142.754 251.839 142.986C251.685 142.986 251.512 142.967 251.339 142.967C251.147 142.947 250.916 142.928 250.608 142.889C250.031 142.812 249.569 142.851 249.203 143.044C248.837 143.238 248.664 143.509 248.664 143.897C248.664 144.129 248.722 144.343 248.837 144.536C248.953 144.73 249.107 144.904 249.261 145.04C249.434 145.176 249.626 145.311 249.838 145.408C250.05 145.505 250.261 145.583 250.454 145.66C249.819 146.299 249.396 146.861 249.203 147.307C249.011 147.753 248.914 148.121 248.914 148.431C249.049 148.857 249.299 149.07 249.684 149.07C249.8 149.07 249.992 149.012 250.242 148.915C250.492 148.799 250.781 148.663 251.089 148.45C251.397 148.256 251.705 148.024 252.012 147.753C252.32 147.481 252.57 147.191 252.763 146.881C252.936 147.288 253.109 147.617 253.34 147.908C253.552 148.198 253.764 148.411 253.975 148.586C254.187 148.76 254.398 148.876 254.572 148.954C254.764 149.031 254.918 149.07 255.053 149.07C255.11 149.07 255.207 149.051 255.303 149.012C255.418 148.973 255.515 148.915 255.611 148.818C255.707 148.741 255.784 148.625 255.861 148.489C255.919 148.353 255.957 148.198 255.957 147.985C255.957 147.598 255.899 147.229 255.784 146.861C255.668 146.493 255.418 146.048 255.053 145.524C256.13 145.137 256.881 144.827 257.304 144.575C257.727 144.323 257.939 144.129 257.939 143.974C258.035 143.781 258.074 143.626 258.074 143.432Z" fill="white"/>
</g>
<defs>
<filter id="filter0_d_1_764" x="0" y="0.766602" width="355" height="237.467" filterUnits="userSpaceOnUse" color-interpolation-filters="sRGB">
<feFlood flood-opacity="0" result="BackgroundImageFix"/>
<feColorMatrix in="SourceAlpha" type="matrix" values="0 0 0 0 0 0 0 0 0 0 0 0 0 0 0 0 0 0 127 0" result="hardAlpha"/>
<feOffset dy="4"/>
<feGaussianBlur stdDeviation="25"/>
<feComposite in2="hardAlpha" operator="out"/>
<feColorMatrix type="matrix" values="0 0 0 0 0.8875 0 0 0 0 0.19599 0 0 0 0 0.334292 0 0 0 1 0"/>
<feBlend mode="normal" in2="BackgroundImageFix" result="effect1_dropShadow_1_764"/>
<feBlend mode="normal" in="SourceGraphic" in2="effect1_dropShadow_1_764" result="shape"/>
</filter>
</defs>
</svg>
