<svg width="173" height="179" viewBox="0 0 173 179" fill="none" xmlns="http://www.w3.org/2000/svg">
<path d="M121.41 136.836C121.167 137.326 120.438 137.414 119.784 137.029C80.6076 114.066 47.2591 79.1482 51.3628 42.3739C51.4253 41.8005 52.0415 41.5332 52.7391 41.7765C53.4335 42.0184 53.9449 42.6813 53.8817 43.2572C49.8905 79.0295 82.554 112.911 120.663 135.25C121.317 135.635 121.653 136.346 121.41 136.836ZM120.104 136.22L120.105 136.221C120.299 136.335 120.487 136.367 120.617 136.352C120.631 136.35 120.643 136.348 120.654 136.346C120.602 136.264 120.502 136.153 120.342 136.059C101.232 124.856 83.4412 110.735 70.9164 94.8811C58.3972 79.0345 51.0649 61.3541 53.0938 43.1022C53.0891 43.0857 53.0727 43.042 53.0193 42.9728C52.9256 42.8513 52.7643 42.7216 52.5586 42.65L52.5582 42.6498C52.3526 42.5781 52.2071 42.5979 52.14 42.625C50.1574 60.6154 57.3036 78.2381 69.9134 94.2929C82.5401 110.369 100.573 124.772 120.104 136.22ZM120.735 136.314C120.735 136.314 120.734 136.315 120.733 136.316C120.734 136.315 120.735 136.314 120.735 136.314Z" stroke="white" stroke-width="2"/>
<path d="M114.225 131.854C108.844 124.627 104.771 117.338 101.593 109.566C101.558 109.48 101.457 109.341 101.274 109.222C101.093 109.105 100.9 109.052 100.747 109.063C100.701 109.066 100.668 109.074 100.645 109.082C103.852 116.913 107.96 124.262 113.397 131.565L113.397 131.565C113.479 131.675 113.837 132.137 114.332 132.776C115.041 133.69 116.03 134.966 116.895 136.094L118.726 138.484L116.147 137.556C114.724 137.044 113.273 136.499 111.804 135.946C107.655 134.386 103.369 132.774 99.2079 131.737C93.1888 130.238 87.6217 129.987 83.239 132.514C83.2548 132.546 83.2824 132.591 83.3304 132.646C83.4542 132.79 83.6361 132.907 83.8289 132.962C84.0281 133.019 84.1591 132.988 84.211 132.957L84.2117 132.957C88.5757 130.421 94.009 130.817 99.5053 132.186C103.653 133.219 107.96 134.843 112.039 136.38C113.625 136.978 115.177 137.564 116.672 138.096L116.673 138.096C116.773 138.132 116.96 138.207 117.18 138.295C117.369 138.37 117.583 138.455 117.786 138.534C118.269 138.721 118.732 138.885 119.002 138.944C119.321 139.013 119.509 138.975 119.596 138.944C119.569 138.885 119.522 138.797 119.444 138.684L119.441 138.68C118.898 137.894 116.655 134.997 115.285 133.228C114.737 132.52 114.328 131.993 114.225 131.854ZM114.225 131.854L114.804 131.282M114.225 131.854C114.225 131.853 114.224 131.853 114.224 131.853L114.804 131.282M114.804 131.282C109.474 124.123 105.445 116.912 102.302 109.225L120.042 138.138C119.481 137.327 117.116 134.272 115.757 132.517C115.253 131.867 114.888 131.395 114.804 131.282ZM100.596 109.109C100.596 109.109 100.596 109.108 100.597 109.108L100.596 109.109Z" stroke="white" stroke-width="2"/>
</svg>
