<svg width="214" height="394" viewBox="0 0 214 394" fill="none" xmlns="http://www.w3.org/2000/svg">
<path d="M166.987 326.339L167.029 326.364L167.073 326.385C167.079 326.388 167.153 326.43 167.203 326.615C167.254 326.804 167.235 327.001 167.179 327.127C167.119 327.262 167.018 327.347 166.924 327.38C166.84 327.409 166.771 327.398 166.701 327.348L166.652 327.313L166.6 327.282C143.604 313.868 135.693 301.006 134.482 289.318C133.258 277.464 138.923 265.748 145.106 253.964L145.109 253.959C145.301 253.591 145.493 253.221 145.686 252.852C149.383 245.757 153.162 238.504 155.082 231.343L155.083 231.342C157.023 224.083 157.108 216.653 153.113 209.194C152.143 207.139 150.266 205.615 148.11 204.268C144.402 201.903 139.249 199.508 133.128 197.379C123.342 193.828 111.086 190.445 98.5107 186.975C95.4994 186.144 92.4698 185.308 89.4515 184.463C73.7706 180.074 58.395 175.455 47.192 170.089L47.1883 170.087C40.4981 166.909 35.4082 163.503 32.4557 159.956L32.4525 159.952C30.2698 157.348 29.2582 154.501 29.3213 151.736C29.4013 148.963 30.5345 145.88 33.3146 142.595L33.3241 142.584L33.3334 142.573C37.1744 137.827 44.1056 132.607 55.097 126.833L55.1012 126.831C59.663 124.412 64.4235 122.309 69.234 120.24C69.9747 119.921 70.7168 119.603 71.4596 119.285C75.5276 117.542 79.6143 115.791 83.5816 113.877L83.5881 113.874L83.5947 113.871C97.9934 106.708 112.786 99.0379 125.287 89.2273L125.3 89.2167L125.314 89.2056C125.462 89.0826 125.593 89.0713 125.659 89.0837C125.691 89.0896 125.714 89.1013 125.734 89.1168C125.752 89.1315 125.786 89.1642 125.823 89.2388L125.859 89.3094L125.901 89.3755C126.01 89.5471 126.029 89.8801 125.741 90.1273C113.291 99.8854 98.5165 107.577 83.9055 114.861L83.9039 114.861C79.6699 116.98 75.3127 118.842 70.9197 120.719C70.5088 120.894 70.0976 121.07 69.6861 121.246C64.8897 123.298 60.0668 125.396 55.418 127.87L55.4178 127.87C44.8843 133.478 37.9194 138.446 33.9492 143.312L33.9443 143.318C31.6376 146.178 30.2923 148.869 30.2289 151.695C30.1477 155.211 32.0653 158.206 34.7282 160.84L34.737 160.848L34.7459 160.857C37.8615 163.832 42.2809 166.574 47.5463 169.003C58.9351 174.465 74.4563 179.118 90.0495 183.482C93.0846 184.332 96.1226 185.17 99.1354 186.002C111.66 189.459 123.751 192.796 133.402 196.3L133.411 196.304L133.421 196.307C139.738 198.486 144.93 200.873 148.543 203.302L148.567 203.318L148.592 203.333C151.237 204.947 152.972 206.777 153.871 208.408C157.971 216.227 158.019 223.879 155.949 231.596L155.949 231.597C153.948 239.074 149.932 246.722 145.888 254.404L145.885 254.41L145.879 254.422C143.007 259.947 140.079 265.58 138.027 271.306C135.969 277.05 134.753 282.986 135.375 289.137C136.623 301.555 145.362 313.599 166.987 326.339Z" stroke="#D3FF1F" stroke-width="3"/>
<path d="M165.964 330.712C166.574 330.69 167.3 330.551 167.724 330.418C168.138 330.313 168.379 329.999 168.409 329.961L168.41 329.958C168.52 329.817 168.578 329.684 168.595 329.645C168.638 329.545 168.662 329.458 168.669 329.433L168.669 329.433C168.689 329.362 168.702 329.298 168.709 329.263C168.717 329.223 168.725 329.179 168.732 329.137C168.733 329.127 168.735 329.111 168.738 329.092C168.809 328.681 168.805 328.371 168.802 328.118C168.802 328.074 168.801 328.032 168.801 327.992L168.801 327.969L168.8 327.945C168.761 326.704 168.472 325.252 168.149 323.759L168.141 323.726L168.133 323.693C167.588 321.605 166.839 319.362 166.165 317.345C166.047 316.99 165.931 316.642 165.819 316.303C165.438 315.156 165.103 314.115 164.854 313.223C164.598 312.307 164.465 311.654 164.44 311.249L164.439 311.241L164.439 311.233C163.816 302.547 167.801 294.433 177.521 289.768C177.626 289.747 177.751 289.761 177.868 289.82C177.998 289.885 178.085 289.986 178.13 290.104C178.214 290.327 178.146 290.651 177.853 290.809C168.954 294.948 164.671 302.661 165.296 311.147L165.296 311.148C165.343 311.784 165.532 312.541 165.75 313.279C165.975 314.043 166.268 314.905 166.576 315.789C166.607 315.882 166.639 315.976 166.671 316.07C167.728 319.192 168.963 322.841 169.447 325.752L169.45 325.774L169.455 325.796C169.721 327.163 169.754 328.383 169.586 329.312L169.585 329.314C169.441 330.112 169.117 330.717 168.818 330.99L168.759 331.044L168.706 331.105C168.618 331.207 168.448 331.353 168.126 331.509C167.719 331.638 167.026 331.738 166.064 331.799L166.05 331.8L166.035 331.801C164.674 331.922 162.943 331.945 161.35 331.957C161.176 331.958 161.001 331.959 160.829 331.96C159.525 331.968 158.305 331.975 157.639 332.05C146.243 332.493 133.768 332.228 122.515 329.01C122.401 328.978 122.319 328.904 122.265 328.802C122.212 328.701 122.169 328.53 122.219 328.287L122.219 328.287C122.263 328.077 122.482 327.905 122.728 327.975C134.04 331.21 146.45 331.53 157.671 330.83C157.892 330.831 158.214 330.836 158.609 330.843C160.384 330.872 163.643 330.927 165.964 330.712Z" stroke="#D3FF1F" stroke-width="3"/>
</svg>
