<svg width="66" height="34" viewBox="0 0 66 34" fill="none" xmlns="http://www.w3.org/2000/svg">
<path fill-rule="evenodd" clip-rule="evenodd" d="M62.9852 4.49675C50.4993 27.714 25.5574 37.1531 2.39177 24.0824C1.62058 23.6471 0.642627 23.9192 0.207388 24.6809C-0.227851 25.4562 0.0442024 26.4355 0.815392 26.8707C25.6458 40.8936 52.4252 30.8967 65.8088 6.02008C66.2277 5.24481 65.9353 4.26539 65.156 3.84375C64.3766 3.43571 63.4041 3.72148 62.9852 4.49675Z" fill="white"/>
<path d="M21.8863 14.1251C24.4655 14.1251 26.5564 12.0343 26.5564 9.45514C26.5564 6.87596 24.4655 4.78516 21.8863 4.78516C19.3071 4.78516 17.2163 6.87596 17.2163 9.45514C17.2163 12.0343 19.3071 14.1251 21.8863 14.1251Z" fill="white"/>
<path d="M41.2193 9.15743C43.7481 9.15743 45.7981 7.10749 45.7981 4.57871C45.7981 2.04994 43.7481 0 41.2193 0C38.6906 0 36.6406 2.04994 36.6406 4.57871C36.6406 7.10749 38.6906 9.15743 41.2193 9.15743Z" fill="white"/>
</svg>
