<svg width="827" height="830" viewBox="0 0 827 830" fill="none" xmlns="http://www.w3.org/2000/svg">
<path fill-rule="evenodd" clip-rule="evenodd" d="M357.345 437.026C339.206 435.582 358.184 412.576 367.383 398.43C376.137 384.968 393.052 371.214 408.905 357.738C422.88 345.859 442.679 335.582 455.464 323.557C471.788 308.203 469.031 284.214 494.004 277.696C528.063 268.806 523.551 304.545 557.144 297.016C584.649 290.851 597.63 252.823 624.242 248.506C648.887 244.507 618.233 278.633 632.605 284.773C643.915 289.606 681.58 269.659 689.677 276.463C697.63 283.147 667.085 301.879 665.672 312.565C664.396 322.214 694.558 322.064 682.188 333.085C666.127 347.396 625.93 345.93 611.989 360.394C595.863 377.127 626.314 383.365 618.307 399.369C610.42 415.134 587.658 450.932 568.032 448.257C531.751 443.312 571.931 389.284 532.149 387.627C506.582 386.563 491.245 434.491 459.333 443.731C436.305 450.399 485.391 407.57 467.365 406.385C438.339 404.476 385.986 439.304 357.345 437.026Z" fill="#FBE5E5"/>
<path fill-rule="evenodd" clip-rule="evenodd" d="M517.329 473.068C525.601 464.376 539.582 477.676 549.124 484.637C558.205 491.262 564.432 501.958 570.81 512.084C576.432 521.009 578.348 532.531 584.559 540.894C592.491 551.574 615.693 554.332 612.159 567.758C607.339 586.069 576.067 577.713 570.169 595.561C565.339 610.174 595.484 623.097 589.29 636.953C583.555 649.785 563.773 628.822 552.606 634.852C543.819 639.596 547.827 661.582 538.448 664.405C529.234 667.177 523.624 648.91 514.298 646.38C505.878 644.095 494.478 658.986 489.035 650.999C481.966 640.627 498.696 621.068 490.674 611.716C481.394 600.897 463.986 614.834 452.272 608.142C440.735 601.55 416.39 584.189 426.367 574.975C444.811 557.943 479.324 587.016 496.071 567.694C506.834 555.277 468.449 539.494 472.126 522.181C474.778 509.688 495.544 541.228 503.534 532.548C516.399 518.57 504.27 486.792 517.329 473.068Z" fill="white"/>
<path fill-rule="evenodd" clip-rule="evenodd" d="M218.397 598.78C208.599 600.269 182.062 619.096 179.223 614.223C176.895 610.224 196.099 591.88 207.237 579.617C216.952 568.919 229.179 557.959 240.281 546.991C250.203 537.19 259.72 527.647 269.771 517.84C281.45 506.444 291.727 494.636 304.899 483.941C318.216 473.13 332.014 464.236 343.952 457.616C355.811 451.039 365.082 448.024 373.217 446.055C381.028 444.164 385.463 445.581 390.639 446.314C395.917 447.063 405.46 444.364 404.261 450.456C403.042 456.647 386.35 472.384 384.151 479.269C381.34 488.069 400.757 481.34 390.136 494.679C379.819 507.637 357.316 519.524 341.231 533.175C329.211 543.376 320.124 555.342 307.815 564.542C295.24 573.941 287.092 573.322 274.517 583.039C255.442 597.78 236.927 623.919 221.352 631.36C205.923 638.732 223.891 614.572 223.252 607.531C222.893 603.574 224.222 597.894 218.397 598.78Z" fill="#ED72A9"/>
<path fill-rule="evenodd" clip-rule="evenodd" d="M194.514 309.719C186.226 301.814 153.892 297.116 155.036 288.834C155.975 282.038 182.528 280.108 199.013 277.152C213.393 274.574 229.818 274.157 245.411 272.631C259.345 271.267 272.807 269.799 286.841 268.555C303.149 267.11 318.69 263.826 335.641 264.635C352.777 265.452 368.991 268.906 382.301 273.108C395.523 277.283 404.438 282.948 411.809 288.683C418.886 294.19 421.24 300.13 424.602 306.024C428.031 312.033 436.937 318.323 431.974 324.03C426.929 329.831 403.988 331.276 397.75 336.902C389.778 344.092 408.726 355.489 391.907 360.165C375.568 364.708 350.876 356.117 329.781 355.799C314.018 355.561 299.258 360.187 283.948 358.535C268.307 356.848 262.656 348.176 246.803 346.85C222.755 344.837 191.506 356.248 174.94 349.414C158.531 342.644 188.049 332.934 192.279 324.355C194.657 319.534 199.441 314.418 194.514 309.719Z" fill="#ED72A9"/>
<path fill-rule="evenodd" clip-rule="evenodd" d="M398.352 318.277C397.839 316.332 397.112 314.25 398.048 312.482C399.019 310.648 401.051 309.59 403.094 309.323C404.967 309.079 406.634 310.15 408.249 311.151C409.874 312.159 411.563 313.187 412.232 314.99C412.981 317.01 412.946 319.287 411.974 321.197C410.93 323.249 409.159 325.032 406.912 325.448C404.735 325.852 402.599 324.684 400.888 323.251C399.411 322.013 398.846 320.149 398.352 318.277Z" fill="#C58686"/>
<path fill-rule="evenodd" clip-rule="evenodd" d="M417.387 338.249C415.568 337.388 413.507 336.604 412.758 334.749C411.98 332.825 412.479 330.589 413.591 328.855C414.61 327.265 416.503 326.679 418.309 326.088C420.126 325.494 422.001 324.863 423.811 325.513C425.839 326.241 427.558 327.734 428.393 329.708C429.291 331.828 429.514 334.332 428.386 336.318C427.293 338.243 425.023 339.126 422.825 339.512C420.927 339.845 419.137 339.077 417.387 338.249Z" fill="#C58686"/>
<path fill-rule="evenodd" clip-rule="evenodd" d="M436.139 325.302C435.787 323.964 435.287 322.533 435.931 321.317C436.598 320.056 437.995 319.329 439.4 319.146C440.688 318.978 441.834 319.714 442.944 320.402C444.062 321.095 445.223 321.802 445.683 323.042C446.198 324.431 446.174 325.996 445.506 327.31C444.788 328.72 443.57 329.947 442.025 330.233C440.529 330.51 439.059 329.707 437.883 328.722C436.867 327.871 436.479 326.589 436.139 325.302Z" fill="#C58686"/>
<path fill-rule="evenodd" clip-rule="evenodd" d="M435.741 309.814C435.747 312.209 435.573 314.712 433.896 316.367C432.168 318.073 429.658 318.552 427.287 318.161C424.904 317.769 422.773 316.433 421.494 314.324C420.137 312.086 419.418 309.295 420.449 306.889C421.452 304.546 424.022 303.691 426.389 302.898C428.885 302.063 431.727 300.818 433.864 302.398C435.987 303.969 435.735 307.129 435.741 309.814Z" fill="#C58686"/>
<path fill-rule="evenodd" clip-rule="evenodd" d="M622.835 371.322C622.018 370.205 621.031 369.055 621.187 367.688C621.349 366.271 622.384 365.084 623.625 364.401C624.763 363.775 626.099 364.042 627.384 364.278C628.677 364.516 630.016 364.75 630.897 365.737C631.883 366.842 632.431 368.309 632.288 369.776C632.134 371.351 631.447 372.937 630.113 373.767C628.821 374.571 627.16 374.359 625.705 373.871C624.449 373.449 623.62 372.397 622.835 371.322Z" fill="#100E0D"/>
<path fill-rule="evenodd" clip-rule="evenodd" d="M557.576 338.555C556.26 336.755 554.667 334.899 554.919 332.696C555.18 330.41 556.849 328.496 558.85 327.395C560.685 326.386 562.839 326.817 564.911 327.197C566.996 327.581 569.155 327.958 570.575 329.55C572.165 331.332 573.049 333.697 572.818 336.062C572.57 338.601 571.463 341.159 569.312 342.496C567.228 343.793 564.55 343.452 562.205 342.664C560.179 341.984 558.842 340.288 557.576 338.555Z" fill="#100E0D"/>
<path fill-rule="evenodd" clip-rule="evenodd" d="M597.402 301.392C600.038 301.325 602.912 301.027 604.884 302.755C606.93 304.547 607.666 307.457 607.389 310.143C607.135 312.605 605.266 314.408 603.501 316.165C601.725 317.933 599.904 319.778 597.402 320.086C594.6 320.431 591.707 319.698 589.564 317.882C587.263 315.932 585.524 313.134 585.671 310.143C585.814 307.245 587.949 304.873 590.293 303.124C592.318 301.614 594.865 301.456 597.402 301.392Z" fill="#C58686"/>
<path fill-rule="evenodd" clip-rule="evenodd" d="M625.071 320.231C627.707 320.164 630.582 319.865 632.554 321.594C634.599 323.386 635.335 326.296 635.058 328.982C634.804 331.444 632.935 333.247 631.17 335.004C629.394 336.772 627.573 338.617 625.071 338.925C622.269 339.27 619.376 338.537 617.233 336.721C614.932 334.771 613.193 331.973 613.34 328.982C613.484 326.084 615.618 323.712 617.962 321.963C619.987 320.453 622.535 320.295 625.071 320.231Z" fill="#C58686"/>
<path fill-rule="evenodd" clip-rule="evenodd" d="M625.071 287.263C627.707 287.197 630.582 286.898 632.554 288.626C634.599 290.418 635.335 293.329 635.058 296.014C634.804 298.476 632.935 300.28 631.17 302.037C629.394 303.805 627.573 305.649 625.071 305.957C622.269 306.302 619.376 305.57 617.233 303.753C614.932 301.803 613.193 299.005 613.34 296.014C613.484 293.117 615.618 290.744 617.962 288.995C619.987 287.485 622.535 287.327 625.071 287.263Z" fill="#C58686"/>
<path fill-rule="evenodd" clip-rule="evenodd" d="M300.603 548.977C302.052 551.18 303.824 553.463 303.399 556.05C302.958 558.733 300.875 560.896 298.448 562.08C296.224 563.165 293.706 562.53 291.281 561.96C288.842 561.386 286.314 560.815 284.731 558.853C282.957 556.656 282.051 553.813 282.461 551.034C282.902 548.05 284.358 545.095 286.976 543.64C289.512 542.231 292.654 542.79 295.377 543.856C297.729 544.777 299.209 546.857 300.603 548.977Z" fill="#100E0D"/>
<path fill-rule="evenodd" clip-rule="evenodd" d="M299.225 582.422C300.674 584.625 302.446 586.908 302.02 589.496C301.579 592.179 299.497 594.341 297.07 595.525C294.845 596.61 292.327 595.976 289.903 595.405C287.464 594.832 284.936 594.26 283.352 592.298C281.579 590.101 280.673 587.258 281.083 584.479C281.523 581.495 282.98 578.54 285.597 577.085C288.133 575.676 291.275 576.235 293.999 577.302C296.35 578.223 297.83 580.303 299.225 582.422Z" fill="#100E0D"/>
<path fill-rule="evenodd" clip-rule="evenodd" d="M327.217 565.007C328.666 567.209 330.438 569.493 330.012 572.08C329.571 574.763 327.489 576.926 325.062 578.109C322.837 579.194 320.319 578.56 317.895 577.99C315.455 577.416 312.928 576.844 311.344 574.882C309.571 572.685 308.665 569.842 309.075 567.063C309.515 564.079 310.972 561.124 313.589 559.67C316.125 558.26 319.267 558.819 321.991 559.886C324.342 560.807 325.822 562.887 327.217 565.007Z" fill="#100E0D"/>
</svg>
