<svg width="171" height="160" viewBox="0 0 171 160" fill="none" xmlns="http://www.w3.org/2000/svg">
<path d="M55.4842 96.8734C59.1075 98.2322 68.0407 99.1201 74.787 91.8012" stroke="white" stroke-width="3.74882" stroke-linecap="round"/>
<path d="M58.8046 91.1859C60.4215 91.8241 64.9065 92.2713 69.912 88.9551" stroke="white" stroke-width="3.74882" stroke-linecap="round"/>
<path d="M79.054 121.845C76.9595 124.356 81.1135 130.3 84.7952 129.936C91.4843 129.273 90.7998 124.749 95.7854 125.264C101.728 125.879 99.9227 130.842 105.925 131.244C110.543 131.554 111.162 128.938 113.284 125.303C115.407 121.668 117.823 124.03 121.478 126.164C124.402 127.871 126.623 126.509 126.366 122.371" stroke="white" stroke-width="3.74882" stroke-linecap="round"/>
<path d="M107.039 99.8375C112.737 91.0549 119.17 67.3081 104.033 49.2446C85.1117 26.6652 55.5108 29.0561 41.9195 41.5971C28.3282 54.138 21.2988 76.1448 37.7011 92.0074C54.1034 107.87 75.8486 104.847 82.4325 91.5154C89.0164 78.1835 91.8243 62.5786 75.0133 51.0005C58.2023 39.4225 47.445 50.8871 44.8033 55.4059C40.4676 62.8226 36.8378 73.7591 49.7106 82.2176C62.5834 90.6762 72.3221 81.4685 73.8326 75.4496C75.4815 68.8793 73.4329 66.534 69.406 63.9919C64.0136 60.5877 57.0612 66.5266 61.9476 71.3019" stroke="white" stroke-width="3.74882" stroke-linecap="round"/>
<path d="M78.1285 96.8519C83.5371 100.159 97.0995 106.226 106.958 99.807C119.282 91.7827 119.222 76.5548 128.295 70.1876C136.907 64.143 136.405 58.143 138.744 54.137C141.083 50.131 146.8 52.344 144.212 57.5471C141.623 62.7502 136.25 67.2122 137.691 68.9759C139.131 70.7397 140.249 71.2843 142.923 67.474C145.597 63.6636 147.131 61.3902 150.366 59.6978C153.601 58.0054 157.38 59.5904 154.706 63.4008C152.032 67.2113 148.271 67.5266 145.402 71.6707C142.533 75.8149 144.465 75.8185 145.946 77.1306C147.426 78.4426 150.942 82.9622 146.733 86.3238C142.524 89.6853 139.446 83.4123 135.657 88.3623C131.869 93.3123 132.601 98.2158 132.943 103.787C133.285 109.358 131.952 113.951 128.803 117.036C125.653 120.122 124.935 125.969 130.072 127.177C134.18 128.144 133.908 130.611 133.259 131.724C132.674 132.725 130.746 134.643 127.709 134.303C123.913 133.877 121.957 131.84 119.198 134.257C116.439 136.675 117.17 141.578 110.335 142.512C103.499 143.445 98.2708 135.468 93.7502 135.515C89.2297 135.561 89.5172 141.996 80.0246 138.244C70.5319 134.493 76.6663 130.912 72.1149 128.703C67.5635 126.493 64.6092 129.244 57.5717 125.136C50.5343 121.027 48.3763 113.948 48.8445 109.298C49.3128 104.648 45.9925 104.947 42.5558 101.598C39.8064 98.9187 39.5248 95.5015 39.7276 94.1279" stroke="white" stroke-width="3.74882" stroke-linecap="round"/>
<path d="M92.3757 92.7946C94.6352 93.5175 98.1298 93.0355 100.844 89.6114C104.236 85.3314 104.61 70.8522 103.752 65.4321M52.3022 60.0158C50.0811 61.6955 46.2574 68.6577 50.7668 73.7946C55.2762 78.9315 60.7172 79.6097 62.2749 76.9416" stroke="white" stroke-width="3.74882" stroke-linecap="round"/>
<circle cx="135.382" cy="74.6819" r="0.940833" transform="rotate(30.2771 135.382 74.6819)" fill="white"/>
<circle cx="139.145" cy="76.5636" r="0.940833" transform="rotate(30.2771 139.145 76.5636)" fill="white"/>
</svg>
