<svg width="158" height="150" viewBox="0 0 158 150" fill="none" xmlns="http://www.w3.org/2000/svg">
<path d="M105.203 84.4276C102.288 85.956 94.8374 87.6492 88.3601 82.1948" stroke="white" stroke-width="3.74882" stroke-linecap="round"/>
<path d="M102.568 80.6488C101.312 81.3441 97.709 82.2157 93.3524 80.1395" stroke="white" stroke-width="3.74882" stroke-linecap="round"/>
<path d="M89.3256 108.113C91.362 110.008 88.4869 115.457 85.3386 115.539C79.6186 115.688 79.7148 111.803 75.5589 112.765C70.6051 113.911 72.6588 117.903 67.6319 118.877C63.7647 119.626 62.9636 117.487 60.7838 114.648C58.604 111.809 56.8153 114.055 53.9555 116.24C51.6677 117.988 49.6468 117.075 49.4233 113.561" stroke="white" stroke-width="3.74882" stroke-linecap="round"/>
<path d="M62.6587 92.3977C57.0648 85.7734 49.3401 66.9175 59.9789 50.4658C73.2775 29.9011 97.9274 28.7515 110.412 37.6363C122.897 46.5212 130.936 63.883 119.03 78.6576C107.123 93.4323 88.8859 93.2351 82.0982 82.962C75.3105 72.6888 71.4044 60.1485 84.0848 48.8551C96.7651 37.5618 106.803 45.8596 109.442 49.2985C113.773 54.9427 117.881 63.5564 108.13 71.8692C98.3783 80.182 89.4099 73.6334 87.5509 68.8416C85.5215 63.6107 86.9715 61.4659 90.0325 58.951C94.1315 55.5831 100.469 59.7363 96.9272 64.1787" stroke="white" stroke-width="3.74882" stroke-linecap="round"/>
<path d="M86.9759 87.6134C82.8493 90.9005 72.2751 97.3154 63.485 93.0787C52.4974 87.7829 50.9947 75.2631 42.8592 70.9865C35.1359 66.9266 34.9384 61.9432 32.6002 58.8977C30.262 55.8521 25.7693 58.2729 28.4355 62.2759C31.1017 66.2789 35.9906 69.3795 34.9815 70.9806C33.9724 72.5817 33.1053 73.147 30.5104 70.2976C27.9156 67.4481 26.4176 65.7416 23.5756 64.6916C20.7337 63.6416 17.7763 65.3422 20.3712 68.1917C22.9661 71.0413 26.1023 70.9042 28.892 74.0074C31.6818 77.1107 30.0881 77.3172 28.9998 78.5513C27.9116 79.7855 25.4705 83.8698 29.2868 86.1888C33.103 88.5078 35.0038 83.0287 38.6347 86.6973C42.2656 90.3659 42.1611 94.4724 42.4464 99.0866C42.7316 103.701 44.3 107.335 47.2132 109.538C50.1265 111.742 51.3147 116.471 47.1992 118.005C43.9067 119.232 44.3827 121.231 45.0322 122.077C45.6167 122.838 47.4037 124.211 49.8749 123.611C52.9639 122.862 54.3706 120.982 56.8941 122.678C59.4177 124.374 59.3132 128.48 65.0493 128.527C70.7855 128.574 74.2878 121.468 78.0232 121.03C81.7585 120.592 82.1768 125.91 89.6285 121.827C97.0801 117.745 91.6529 115.449 95.1838 113.153C98.7148 110.858 101.433 112.808 106.822 108.69C112.211 104.573 113.271 98.5284 112.411 94.7563C111.551 90.9841 114.321 90.8806 116.816 87.7663C118.812 85.2749 118.696 82.4372 118.389 81.3297" stroke="white" stroke-width="3.74882" stroke-linecap="round"/>
<path d="M74.8045 85.5928C73.0042 86.4284 70.0551 86.3981 67.4503 83.8536C64.1944 80.6728 62.3925 68.7427 62.5459 64.1717M104.676 54.2735C106.692 55.428 110.582 60.7805 107.37 65.5021C104.158 70.2238 99.7134 71.3577 98.146 69.3161" stroke="white" stroke-width="3.74882" stroke-linecap="round"/>
<circle r="1" transform="matrix(-0.794608 0.607123 0.608974 0.79319 36.6629 74.4977)" fill="white"/>
<circle r="0.5" transform="matrix(-0.794608 0.607123 0.608974 0.79319 33.7952 75.8556)" fill="white"/>
</svg>
