<svg width="98" height="201" viewBox="0 0 98 201" fill="none" xmlns="http://www.w3.org/2000/svg">
<path fill-rule="evenodd" clip-rule="evenodd" d="M72.758 49.1049L72.6775 49.2226C72.3157 49.7056 71.9362 50.1886 71.7262 50.5414C68.8724 55.355 63.9505 59.5427 59.4576 62.9996C48.703 71.2658 38.4219 80.0739 28.3328 89.0542C25.5057 91.5702 23.0092 94.4097 20.3652 97.0895C19.5836 97.8833 18.8199 98.6856 18.0517 99.4878C17.7212 99.8407 16.8415 100.408 16.4619 100.773C16.185 101.034 16.051 101.29 15.9974 101.458C15.8724 101.886 15.9884 102.226 16.234 102.495C16.3903 102.672 16.6851 102.915 17.2747 102.911C23.4737 102.848 31.62 100.055 40.137 96.2829C52.6468 90.7427 65.9871 83.1192 75.0043 79.4397C77.3759 78.4736 81.8467 75.7224 85.96 73.8071C87.7822 72.9544 89.5151 72.2446 90.9086 72.022C90.0734 72.7528 88.9433 73.5718 88.3939 74.1304C86.0224 76.5456 83.2625 78.608 80.748 80.8846C73.0975 87.8067 54.5046 113.08 49.0916 121.754C44.7103 128.768 23.822 170.902 21.9417 197.88C21.9015 198.46 22.366 198.96 22.9823 198.998C23.5987 199.036 24.1302 198.595 24.1704 198.019C26.0283 171.364 46.6888 129.747 51.0165 122.816C56.3715 114.239 74.7321 89.2391 82.2933 82.4009C84.8435 80.095 87.6304 77.999 90.0332 75.5544C90.8996 74.6723 93.0568 73.1476 93.6731 72.232C94.0215 71.7153 94.0527 71.2406 93.9455 70.9004C93.8115 70.4846 93.4765 70.0394 92.6146 69.9092C91.2033 69.6992 89.2203 70.157 87.0318 71.0264C82.4763 72.841 76.8713 76.3902 74.1157 77.5159C65.0851 81.1996 51.7178 88.8317 39.1858 94.3845C32.2007 97.4759 25.4923 99.9331 19.9766 100.618C20.6465 99.9121 21.321 99.2148 22.0043 98.5175C24.6125 95.8671 27.0734 93.0656 29.8648 90.579C39.9182 81.6365 50.1591 72.8578 60.8689 64.6251C65.5718 61.0087 70.6901 56.5983 73.678 51.5663C74.0978 50.8564 75.1921 49.5964 75.4154 48.8823C75.5583 48.4245 75.4912 48.0381 75.3304 47.7567C75.1383 47.408 74.79 47.0929 74.1111 47.0425C71.3332 46.8283 66.6483 47.618 61.1817 48.9453C48.7657 51.9653 32.1962 57.7072 25.3138 59.7906C20.6913 61.1893 16.1046 62.7728 11.4375 64.0329C11.2052 64.0959 6.67641 64.9486 4.51925 65.3518C4.95247 64.1715 5.84578 62.5796 6.94446 60.7777C10.8122 54.4478 17.4802 45.8455 19.4676 43.2119C23.2773 38.1589 27.2163 33.2109 30.9009 28.0739C36.7158 19.9673 42.2405 11.6926 48.1493 3.64482C48.5021 3.17018 48.3726 2.51494 47.868 2.18732C47.3588 1.85549 46.6621 1.97725 46.3138 2.45189C40.3961 10.5039 34.8669 18.7869 29.0474 26.902C25.3763 32.0222 21.4461 36.9575 17.6454 41.9979C15.6401 44.6567 8.91401 53.3431 5.01057 59.7318C3.21963 62.6594 2.04939 65.1628 2.00026 66.4943C1.99133 66.8639 2.20577 67.6116 3.29105 67.662C4.68003 67.725 11.7232 66.1414 12.0537 66.0532C16.7432 64.7847 21.3522 63.1928 25.997 61.7899C32.8571 59.715 49.3686 53.9899 61.7399 50.9825C66.1927 49.8988 70.0917 49.1554 72.758 49.1049Z" stroke="#D3FF1A" stroke-width="4"/>
</svg>
