<svg width="255" height="152" viewBox="0 0 255 152" fill="none" xmlns="http://www.w3.org/2000/svg">
<path d="M183.515 142L183.515 142L183.525 142C187.038 142.082 190.548 142.13 194.052 142.178C214.107 142.453 233.93 142.725 252.682 149.189C252.971 149.291 253.036 149.537 252.979 149.702C252.903 149.892 252.622 150.079 252.29 149.968C233.494 143.486 213.584 143.245 194.189 143.011C190.606 142.967 187.041 142.924 183.503 142.842C183.333 142.836 183.198 142.767 183.111 142.68C183.026 142.595 182.998 142.506 183 142.423L183 142.416L183.001 142.408C183.004 142.242 183.176 141.991 183.515 142Z" stroke="#D3FF1F" stroke-width="4"/>
<path d="M180.803 109.876L180.8 109.879C180.611 110.051 180.294 110.038 180.121 109.851L180.121 109.851L180.115 109.844C179.955 109.674 179.959 109.412 180.145 109.244L180.148 109.241C187.617 102.461 195.696 97.4958 205.4 95.0163L205.402 95.0157C205.669 94.9473 205.924 95.1126 205.988 95.3361C206.04 95.5543 205.912 95.8009 205.648 95.8682L205.646 95.8685C195.972 98.3417 188.013 103.327 180.803 109.876Z" stroke="#D3FF1F" stroke-width="4"/>
<path d="M160.065 39.6171L160.065 39.617L160.062 39.6254C159.988 39.8842 159.697 40.0658 159.389 39.9773C159.093 39.8903 158.945 39.5876 159.021 39.3312L159.022 39.3263C162.559 27.2706 169.504 17.8901 180.163 11.0859L180.163 11.0856C180.42 10.9214 180.758 11.0041 180.911 11.2418L180.911 11.2418L180.917 11.252C181.07 11.4865 181.007 11.8084 180.756 11.9693C170.335 18.6183 163.513 27.8615 160.065 39.6171Z" stroke="#D3FF1F" stroke-width="4"/>
<mask id="path-4-inside-1_1_855" fill="white">
<path fill-rule="evenodd" clip-rule="evenodd" d="M49.934 24.8727C47.9976 27.1554 46.2607 29.615 44.7834 32.2336C44.1246 33.3994 42.9667 35.877 42.787 38.0017C42.5874 40.2653 43.3559 42.1751 45.3323 43.1809C47.9575 44.5147 50.0538 44.3758 51.6709 43.5689C53.228 42.794 54.4458 41.2712 55.2144 39.2295C56.6817 35.3271 56.4621 29.3631 55.6935 25.9596C57.7597 23.8239 60.0256 21.8872 62.4512 20.1655C80.5183 7.34243 107.02 12.0707 127.413 31.2438C134.55 37.9567 137.984 52.0545 139.771 67.2652C142.556 90.9485 140.968 117.4 140.749 125.15C140.699 127.064 140.879 128.2 140.978 128.427C141.448 129.543 142.276 129.833 142.855 129.943C143.693 130.093 144.362 129.933 144.901 129.653C145.63 129.269 146.229 128.593 146.508 127.55C146.658 126.974 146.698 126.172 146.678 125.317C146.658 124.724 146.538 124.076 146.658 123.652C147.437 120.93 148.375 118.272 149.293 115.596C152.358 106.598 156.32 98.1665 160.722 89.7448C174.707 62.9849 188.232 34.7102 211.161 14.3224C212.189 13.4075 212.289 11.8258 211.37 10.7939C210.462 9.76207 208.885 9.66806 207.847 10.5839C184.459 31.3747 170.565 60.1363 156.3 87.4261C152.557 94.59 149.123 101.764 146.269 109.268C146.558 95.9938 146.448 77.6196 144.023 61.3621C141.867 46.9033 137.764 34.1253 130.827 27.5993C108.487 6.59554 79.3504 2.03927 59.5664 16.0871C57.4503 17.5909 55.434 19.2446 53.5575 21.0384C43.2063 2.31625 21.0465 -5.18764 1.46218 3.76698C0.204464 4.33989 -0.344528 5.82368 0.224437 7.07848C0.803384 8.33329 2.28064 8.88723 3.53835 8.31431C21.1862 0.245558 41.1999 7.44642 49.934 24.8727ZM51.3814 31.1407C50.5728 32.2846 49.8242 33.4704 49.1255 34.6962C48.7561 35.3541 48.1173 36.6189 47.8478 37.8568C47.7879 38.1467 47.7779 38.6006 47.7779 38.8106C48.4667 39.1505 49.0056 39.3145 49.4448 39.0936C49.9938 38.8216 50.2734 38.1817 50.5429 37.4668C51.2217 35.6731 51.4413 33.2954 51.3814 31.1407Z"/>
</mask>
<path d="M49.934 24.8727L65.1853 37.8111L73.7375 27.73L67.814 15.9113L49.934 24.8727ZM44.7834 32.2336L62.1955 42.0732L62.199 42.067L62.2025 42.0608L44.7834 32.2336ZM42.787 38.0017L62.7097 39.7587L62.7129 39.7229L62.7159 39.687L42.787 38.0017ZM45.3323 43.1809L36.261 61.0054L36.2731 61.0116L45.3323 43.1809ZM51.6709 43.5689L42.7607 25.6633L42.751 25.6682L42.7412 25.673L51.6709 43.5689ZM55.2144 39.2295L73.932 46.2759L73.9347 46.2685L55.2144 39.2295ZM55.6935 25.9596L41.3196 12.053L33.8037 19.8215L36.1847 30.3652L55.6935 25.9596ZM62.4512 20.1655L50.8755 3.85582L50.8747 3.85642L62.4512 20.1655ZM127.413 31.2438L141.116 16.6755L141.113 16.6725L127.413 31.2438ZM139.771 67.2652L119.907 69.5985L119.907 69.6009L139.771 67.2652ZM140.749 125.15L120.757 124.584L120.756 124.606L120.756 124.629L140.749 125.15ZM140.978 128.427L159.415 120.675L159.352 120.525L159.286 120.375L140.978 128.427ZM142.855 129.943L139.122 149.591L139.228 149.611L139.333 149.63L142.855 129.943ZM144.901 129.653L154.12 147.401L154.172 147.374L154.224 147.347L144.901 129.653ZM146.508 127.55L165.827 132.727L165.846 132.655L165.865 132.582L146.508 127.55ZM146.678 125.317L166.673 124.85L166.67 124.747L166.667 124.644L146.678 125.317ZM146.658 123.652L127.429 118.151L127.419 118.188L127.408 118.225L146.658 123.652ZM149.293 115.596L168.211 122.086L168.218 122.065L168.225 122.044L149.293 115.596ZM160.722 89.7448L178.447 99.0094L178.448 99.008L160.722 89.7448ZM211.161 14.3224L224.45 29.2682L224.456 29.2636L211.161 14.3224ZM211.37 10.7939L196.358 24.0092L196.394 24.0499L196.43 24.0904L211.37 10.7939ZM207.847 10.5839L194.615 -4.41371L194.587 -4.38873L194.559 -4.36365L207.847 10.5839ZM156.3 87.4261L138.576 78.1615L138.574 78.1641L156.3 87.4261ZM146.269 109.268L126.273 108.832L164.962 116.379L146.269 109.268ZM144.023 61.3621L124.241 64.3119L124.242 64.3134L144.023 61.3621ZM130.827 27.5993L144.53 13.0318L144.527 13.0283L130.827 27.5993ZM59.5664 16.0871L47.9873 -0.220096L47.9813 -0.215823L59.5664 16.0871ZM53.5575 21.0384L36.0545 30.7155L48.6135 53.4309L67.3768 35.4961L53.5575 21.0384ZM1.46218 3.76698L9.75292 21.9676L9.76583 21.9617L9.77873 21.9559L1.46218 3.76698ZM0.224437 7.07848L-17.9905 15.3377L-17.9634 15.3976L-17.9358 15.4573L0.224437 7.07848ZM3.53835 8.31431L11.8291 26.515L11.8418 26.5092L11.8545 26.5034L3.53835 8.31431ZM51.3814 31.1407L71.3736 30.585L69.7054 -29.4312L35.0496 19.5964L51.3814 31.1407ZM49.1255 34.6962L31.75 24.792L31.7176 24.8488L31.6856 24.9059L49.1255 34.6962ZM47.8478 37.8568L28.3056 33.6018L28.2829 33.7063L28.2612 33.8111L47.8478 37.8568ZM47.7779 38.8106H27.7779V51.2426L38.926 56.745L47.7779 38.8106ZM49.4448 39.0936L40.567 21.1719L40.5115 21.1994L40.4561 21.2273L49.4448 39.0936ZM50.5429 37.4668L31.8374 30.3884L31.833 30.4L31.8286 30.4116L50.5429 37.4668ZM34.6828 11.9344C31.9802 15.1201 29.5034 18.6148 27.3643 22.4064L62.2025 42.0608C63.018 40.6152 64.0149 39.1906 65.1853 37.8111L34.6828 11.9344ZM27.3712 22.394C26.3161 24.2612 23.4091 29.8017 22.8581 36.3164L62.7159 39.687C62.6409 40.5738 62.4958 41.1828 62.4273 41.4436C62.3525 41.7287 62.2933 41.8833 62.2854 41.9038C62.2742 41.9332 62.275 41.9287 62.2838 41.9101C62.2954 41.8858 62.2747 41.933 62.1955 42.0732L27.3712 22.394ZM22.8643 36.2447C22.1518 44.3238 25.141 55.3462 36.261 61.0054L54.4036 25.3565C57.2899 26.8254 59.8408 29.3398 61.3618 32.5935C62.7679 35.6015 62.843 38.2467 62.7097 39.7587L22.8643 36.2447ZM36.2731 61.0116C43.8394 64.8558 52.6416 65.436 60.6005 61.4647L42.7412 25.673C44.7153 24.688 47.0426 24.1147 49.4697 24.1864C51.8262 24.2559 53.5218 24.9084 54.3915 25.3503L36.2731 61.0116ZM60.5811 61.4744C67.9161 57.8244 71.9475 51.5475 73.932 46.2759L36.4967 32.1832C36.9441 30.9949 38.54 27.7636 42.7607 25.6633L60.5811 61.4744ZM73.9347 46.2685C75.8055 41.2931 76.2423 36.2536 76.2906 32.6773C76.3411 28.933 75.9806 25.0007 75.2022 21.554L36.1847 30.3652C36.1593 30.2527 36.2007 30.4153 36.2412 30.8362C36.2792 31.2315 36.3003 31.688 36.2942 32.1377C36.288 32.5976 36.2555 32.9023 36.2366 33.0285C36.2285 33.0826 36.2316 33.0445 36.2609 32.9247C36.2893 32.8088 36.3574 32.5537 36.494 32.1905L73.9347 46.2685ZM70.0673 39.8662C71.2547 38.6389 72.58 37.5021 74.0277 36.4745L50.8747 3.85642C47.4713 6.27225 44.2647 9.00898 41.3196 12.053L70.0673 39.8662ZM74.0268 36.4751C81.6351 31.0752 97.529 30.5987 113.713 45.815L141.113 16.6725C116.511 -6.45723 79.4015 -16.3903 50.8755 3.85582L74.0268 36.4751ZM113.71 45.8121C113.644 45.7494 114.973 47.1597 116.523 52.0781C117.967 56.6609 119.086 62.6084 119.907 69.5985L159.634 64.9319C158.668 56.7113 157.178 48.0046 154.674 40.0576C152.276 32.4462 148.319 23.4511 141.116 16.6755L113.71 45.8121ZM119.907 69.6009C122.475 91.4371 121.002 115.937 120.757 124.584L160.741 125.717C160.935 118.864 162.636 90.4599 159.634 64.9295L119.907 69.6009ZM120.756 124.629C120.712 126.289 120.761 127.847 120.893 129.268C120.958 129.966 121.055 130.764 121.206 131.609C121.251 131.861 121.602 134.049 122.671 136.478L159.286 120.375C159.648 121.198 159.881 121.882 160.011 122.29C160.152 122.731 160.253 123.103 160.321 123.372C160.455 123.899 160.536 124.317 160.581 124.567C160.672 125.076 160.708 125.428 160.722 125.574C160.751 125.892 160.735 125.926 160.742 125.672L120.756 124.629ZM122.542 136.178C126.591 145.809 134.912 148.791 139.122 149.591L146.588 110.294C147.704 110.506 150.241 111.099 152.979 112.927C155.956 114.914 158.154 117.675 159.415 120.675L122.542 136.178ZM139.333 149.63C144.875 150.621 150 149.541 154.12 147.401L135.683 111.904C137.059 111.189 138.754 110.554 140.721 110.228C142.703 109.899 144.624 109.942 146.376 110.255L139.333 149.63ZM154.224 147.347C159.954 144.327 164.126 139.074 165.827 132.727L127.19 122.372C127.708 120.44 128.665 118.358 130.21 116.412C131.752 114.469 133.622 112.989 135.578 111.959L154.224 147.347ZM165.865 132.582C166.744 129.2 166.702 126.097 166.673 124.85L126.683 125.784C126.683 125.773 126.682 125.719 126.683 125.626C126.685 125.535 126.689 125.377 126.704 125.161C126.719 124.95 126.747 124.628 126.806 124.22C126.864 123.822 126.965 123.234 127.152 122.518L165.865 132.582ZM166.667 124.644C166.645 123.997 166.6 123.45 166.585 123.258C166.557 122.917 166.572 123.094 166.579 123.215C166.589 123.378 166.625 123.992 166.591 124.824C166.559 125.616 166.445 127.171 165.908 129.078L127.408 118.225C126.811 120.345 126.667 122.14 126.624 123.191C126.58 124.282 126.625 125.176 126.652 125.628C126.667 125.877 126.683 126.089 126.694 126.22C126.699 126.287 126.704 126.349 126.707 126.388C126.711 126.436 126.713 126.455 126.714 126.476C126.723 126.585 126.701 126.341 126.689 125.99L166.667 124.644ZM165.887 129.152C166.485 127.06 167.204 125.021 168.211 122.086L130.376 109.105C129.546 111.524 128.388 114.8 127.429 118.151L165.887 129.152ZM168.225 122.044C170.829 114.398 174.284 106.974 178.447 99.0094L142.998 80.4801C138.357 89.3594 133.886 98.798 130.361 109.148L168.225 122.044ZM178.448 99.008C193.104 70.9625 204.889 46.6623 224.45 29.2682L197.871 -0.62351C171.576 22.7581 156.31 55.0072 142.997 80.4815L178.448 99.008ZM224.456 29.2636C233.671 21.0639 234.631 6.84639 226.31 -2.50256L196.43 24.0904C189.946 16.8051 190.707 5.75108 197.865 -0.618854L224.456 29.2636ZM226.382 -2.42133C218.083 -11.8492 203.844 -12.5552 194.615 -4.41371L221.078 25.5816C213.926 31.8914 202.841 31.3734 196.358 24.0092L226.382 -2.42133ZM194.559 -4.36365C167.82 19.4067 152.207 52.0819 138.576 78.1615L174.025 96.6906C188.922 68.1907 201.099 43.3428 221.135 25.5315L194.559 -4.36365ZM138.574 78.1641C134.63 85.7125 130.813 93.6482 127.576 102.156L164.962 116.379C167.434 109.88 170.484 103.467 174.027 96.6881L138.574 78.1641ZM166.264 109.704C166.559 96.1556 166.488 76.4018 163.804 58.4108L124.242 64.3134C126.409 78.8374 126.557 95.832 126.273 108.832L166.264 109.704ZM163.804 58.4123C162.596 50.3132 160.76 42.0576 157.965 34.538C155.245 27.2206 151.117 19.2283 144.53 13.0318L117.123 42.1668C117.473 42.4963 118.866 44.156 120.471 48.4738C122 52.5894 123.293 57.9522 124.241 64.3119L163.804 58.4123ZM144.527 13.0283C117.633 -12.2571 77.9262 -21.4785 47.9873 -0.220095L71.1455 32.3943C80.7747 25.557 99.3414 25.4482 117.127 42.1703L144.527 13.0283ZM47.9813 -0.215823C45.114 1.82171 42.3461 4.08779 39.7381 6.58063L67.3768 35.4961C68.522 34.4015 69.7865 33.36 71.1515 32.39L47.9813 -0.215823ZM71.0604 11.3612C55.7138 -16.3961 22.3569 -27.7782 -6.85437 -14.4219L9.77873 21.9559C19.7362 17.4029 30.6988 21.0286 36.0545 30.7155L71.0604 11.3612ZM-6.82857 -14.4337C-18.2 -9.25375 -23.0816 4.10968 -17.9905 15.3377L18.4394 -1.18071C22.3926 7.53767 18.609 17.9335 9.75292 21.9676L-6.82857 -14.4337ZM-17.9358 15.4573C-12.7762 26.6403 0.486755 31.6816 11.8291 26.515L-4.75239 -9.88633C4.07453 -13.9072 14.3829 -9.97374 18.3847 -1.30036L-17.9358 15.4573ZM11.8545 26.5034C19.5453 22.9871 28.0629 25.871 32.0541 33.8342L67.814 15.9113C54.3369 -10.9782 22.8272 -22.496 -4.77782 -9.87473L11.8545 26.5034ZM35.0496 19.5964C33.8385 21.3097 32.7446 23.0471 31.75 24.792L66.5009 44.6005C66.9038 43.8937 67.3072 43.2594 67.7132 42.6851L35.0496 19.5964ZM31.6856 24.9059C31.0405 26.0549 29.2196 29.4042 28.3056 33.6018L67.3899 42.1117C67.2632 42.6938 67.1264 43.1322 67.0337 43.4032C66.9383 43.6824 66.8547 43.8855 66.8019 44.0074C66.7054 44.2303 66.6277 44.3755 66.5653 44.4866L31.6856 24.9059ZM28.2612 33.8111C27.7354 36.3567 27.7779 38.7228 27.7779 38.8106H67.7779C67.7779 38.9706 67.7753 39.1966 67.7584 39.4948C67.7495 39.6509 67.7321 39.9114 67.696 40.2459C67.6638 40.5438 67.5918 41.1397 67.4343 41.9024L28.2612 33.8111ZM38.926 56.745C39.6981 57.1261 41.8694 58.1838 44.733 58.7641C47.9544 59.4168 53.0654 59.6606 58.4335 56.9598L40.4561 21.2273C45.385 18.7475 50.007 19.0198 52.6769 19.5608C54.9891 20.0293 56.5465 20.835 56.6299 20.8762L38.926 56.745ZM58.3226 57.0152C63.1564 54.6207 65.8537 51.0318 67.1894 48.8341C68.4242 46.8025 69.1159 44.8968 69.2572 44.522L31.8286 30.4116C31.7004 30.7517 32.1176 29.5234 33.0079 28.0585C33.9993 26.4275 36.2823 23.2945 40.567 21.1719L58.3226 57.0152ZM69.2484 44.5452C71.2402 39.2818 71.4671 33.9482 71.3736 30.585L31.3891 31.6965C31.3957 31.9347 31.3807 32.0635 31.3853 32.0257C31.3891 31.9947 31.4073 31.852 31.4616 31.6119C31.5141 31.3798 31.6234 30.954 31.8374 30.3884L69.2484 44.5452Z" fill="#D3FF1F" mask="url(#path-4-inside-1_1_855)"/>
</svg>
