<svg width="99" height="151" viewBox="0 0 99 151" fill="none" xmlns="http://www.w3.org/2000/svg">
<path fill-rule="evenodd" clip-rule="evenodd" d="M75.4749 38.8031C61.5206 29.789 46.1582 28.8728 28.9976 29.6779C26.1 29.8144 19.0401 30.3859 13.7588 32.2947C10.0238 33.6436 7.20276 35.6981 7.01009 38.5972C6.83964 41.1307 8.60095 43.1065 11.3701 44.5734C17.3826 47.7593 28.1947 48.59 31.5147 48.5853C46.4695 48.5599 61.5403 45.5544 75.3267 40.1196C76.1764 40.6841 77.0237 41.281 77.8661 41.9103C80.4005 43.8099 83.2116 46.3133 85.1656 49.1753C87.0652 51.9564 88.1595 55.0799 87.3097 58.3098C85.5386 65.0495 77.7179 70.2067 68.0692 74.0428C65.967 74.8804 63.7783 75.6508 61.5403 76.3611C60.2459 75.5328 58.7737 74.7716 57.1606 74.0752C44.6465 68.6704 23.8274 67 17.5357 67.2915C14.7345 67.4211 9.5767 67.5945 5.82195 69.1031C3.13682 70.1812 1.15811 71.9304 1.00743 74.7068C0.871564 77.1801 2.61061 79.0519 5.33774 80.4054C11.2268 83.3276 21.7944 83.8482 25.2329 83.8204C33.0512 83.7603 47.9615 81.8029 61.3625 77.636C63.9192 79.362 65.6137 81.3772 65.9324 83.751C66.377 87.0526 63.8105 90.0813 59.8803 92.7906C58.6946 93.6073 57.3854 94.3939 55.9897 95.1413C55.8588 95.1065 55.7303 95.0742 55.5994 95.0395C45.0787 92.3209 31.7494 92.196 25.8752 92.624C23.2247 92.816 18.4497 93.4754 15.0556 95.2176C12.6348 96.4624 10.9155 98.2555 10.9254 100.74C10.9353 103.292 13.0004 104.697 15.7794 105.365C19.5712 106.275 24.6821 105.821 26.5792 105.641C31.9223 105.136 46.0842 101.645 56.1404 96.3884C59.2109 97.2375 62.0048 98.3249 64.2304 99.7154C66.5821 101.18 68.2989 102.98 68.993 105.203C70.7 110.689 66.3276 115.298 59.9273 118.914C57.9782 120.016 55.8391 121.022 53.6085 121.927C51.946 120.263 49.5573 118.894 46.7585 117.822C40.163 115.3 31.2949 114.398 24.7438 114.937C22.4836 115.122 18.593 115.643 15.8881 117.11C13.9317 118.169 12.5854 119.715 12.6867 121.908C12.8077 124.574 14.7296 126.221 17.3431 127.204C20.9792 128.569 25.9716 128.634 28.6073 128.692C33.7824 128.803 44.1549 126.878 53.27 123.315C53.8826 124.048 54.3396 124.84 54.6113 125.696C55.6389 128.916 53.9864 132.931 48.2851 137.903C45.5234 140.309 42.4999 142.44 39.1058 143.992C34.2147 146.232 29.1334 147.412 23.8002 148.273C23.4643 148.328 23.237 148.627 23.2963 148.941C23.3531 149.256 23.6742 149.469 24.0102 149.413C29.4595 148.534 34.6519 147.319 39.6492 145.031C43.152 143.428 46.2768 141.232 49.1274 138.75C55.3326 133.338 56.9136 128.87 55.797 125.365C55.5105 124.47 55.0461 123.632 54.431 122.85C56.5949 121.961 58.6675 120.978 60.5646 119.905C67.5183 115.976 72.0338 110.837 70.1787 104.88C68.8077 100.479 63.8648 97.5035 57.5929 95.5994C58.6625 94.9932 59.6753 94.3685 60.6115 93.723C64.969 90.7198 67.6517 87.2655 67.1601 83.6076C66.8315 81.1713 65.2284 79.0357 62.7508 77.194C64.7344 76.5485 66.6784 75.8544 68.5533 75.1071C78.6121 71.1068 86.6625 65.614 88.5102 58.5851C89.2587 55.7392 88.6634 52.9652 87.322 50.3993C85.3631 46.6627 81.8011 43.3772 78.6367 41.008C77.9797 40.5152 77.3177 40.0409 76.6532 39.5875C78.1823 38.9628 79.6965 38.3103 81.191 37.6255C84.8889 35.9342 89.2588 33.7593 92.6084 30.8556C94.8958 28.8705 96.709 26.5475 97.5489 23.815C98.7568 19.9026 97.4204 16.5709 94.9502 13.8246C92.5615 11.1662 89.0982 9.06302 85.9462 7.51748C72.15 0.752274 55.891 -1.12181 41.203 4.51201C40.8893 4.63232 40.7386 4.97012 40.867 5.26627C40.9955 5.56011 41.3561 5.70358 41.6723 5.58096C56.0169 0.0790218 71.898 1.93455 85.3731 8.54243C88.3917 10.0209 91.7166 12.0245 94.0065 14.5696C96.2124 17.0244 97.4426 19.9952 96.3631 23.4935C95.3849 26.6678 92.969 29.2314 90.0788 31.3484C87.1195 33.5163 83.6563 35.2123 80.6475 36.5866C78.9456 37.364 77.2189 38.1044 75.4749 38.8031ZM52.4005 122.406C50.8714 120.992 48.7421 119.831 46.2916 118.894C39.869 116.436 31.2331 115.564 24.8525 116.089C22.7232 116.265 19.0524 116.728 16.5081 118.109C14.9642 118.947 13.8403 120.129 13.9193 121.86C14.0206 124.039 15.6657 125.326 17.805 126.131C21.3003 127.443 26.1025 127.48 28.6369 127.535C33.6317 127.642 43.5694 125.802 52.4005 122.406ZM54.4335 95.9441C44.2018 93.4685 31.6061 93.3667 25.9691 93.7762C23.4445 93.959 18.8845 94.5698 15.6485 96.2333C13.65 97.2583 12.1507 98.6835 12.1605 100.736C12.1679 102.737 13.907 103.72 16.0857 104.243C19.7268 105.118 24.6351 104.662 26.4557 104.491C31.5172 104.012 44.6464 100.807 54.4335 95.9441ZM60.0532 76.8192C59.0157 76.2177 57.8696 75.6554 56.6444 75.1256C44.313 69.7995 23.7953 68.1591 17.5975 68.446C14.8975 68.571 9.92746 68.7144 6.30858 70.1674C4.07797 71.0605 2.36611 72.4602 2.24013 74.767C2.16849 76.0881 2.80083 77.1755 3.87044 78.0802C5.02898 79.0635 6.68403 79.8293 8.56387 80.4401C14.3887 82.3327 22.3551 82.6867 25.2231 82.6636C32.7795 82.6057 47.0376 80.7525 60.0532 76.8192ZM74.1163 39.3399C60.572 30.8672 45.6642 30.0528 29.0593 30.8325C26.2359 30.9667 19.3514 31.515 14.2034 33.3729C12.541 33.9744 11.0613 34.7079 9.9793 35.6218C8.97639 36.4709 8.32177 37.4704 8.24273 38.6689C8.15133 40.0409 8.79363 41.1885 9.88794 42.1602C11.0712 43.2083 12.7633 44.0505 14.6851 44.7354C20.6285 46.8524 28.7457 47.4331 31.5123 47.4285C46.0397 47.403 60.6807 44.5341 74.1163 39.3399Z" stroke="#D3FF1A" stroke-width="2"/>
</svg>
