<svg class="makeup__item-arrow" width="246" height="227" viewBox="0 0 246 227" fill="none" xmlns="http://www.w3.org/2000/svg">
<path class="makeup-arrow" fill-rule="evenodd" clip-rule="evenodd" d="M116.021 125.153C110.582 124.293 106.267 122.762 103.008 121.39C71.882 108.159 67.8999 78.2621 73.2971 52.0401C74.7391 45.0132 79.5211 34.935 86.6656 29.3705C91.684 25.4583 97.8349 23.7298 104.786 26.4231C112.373 29.3334 117.881 36.5632 121.599 45.2497C126.988 57.8103 128.685 73.399 128.194 82.2949C127.624 92.5554 124.922 108.124 120.152 122.769C126.05 123.265 133.094 122.922 141.357 120.852C145.034 119.946 148.861 117.986 152.539 115.37C148.271 109.336 144.998 102.346 143.032 94.5817C141.389 88.0535 140.61 73.9843 143.782 63.7569C146.053 56.4585 150.369 51.1506 157.377 51.0572C166.082 50.9534 171.346 55.7921 174.231 62.4677C178.299 71.8659 177.449 85.0239 175.202 91.7965C172.584 99.6744 165.214 109.338 156.683 116.082C172.171 135.853 199.322 143.639 223.364 132.142C224.084 131.808 225.031 132.114 225.48 132.824C225.916 133.556 225.676 134.437 224.956 134.771C199.515 146.931 170.767 138.732 154.354 117.827C150.431 120.602 146.332 122.705 142.405 123.677C133.301 125.951 125.59 126.238 119.206 125.583C118.261 128.307 117.241 130.988 116.14 133.592C111.205 145.292 104.731 155.203 96.9208 159.663C78.8747 169.973 58.4117 163.918 42.5731 150.844C26.8904 137.89 15.8104 118.084 16.1803 100.928C16.1981 100.129 16.9076 99.5485 17.7548 99.6476C18.6022 99.7469 19.2803 100.468 19.2622 101.268C18.9096 117.593 29.536 136.417 44.4678 148.728C59.244 160.919 78.3166 166.741 95.1422 157.136C102.571 152.876 108.571 143.411 113.263 132.291C114.24 129.975 115.155 127.593 116.021 125.153ZM154.867 113.623C150.914 107.952 147.864 101.421 146.035 94.1554C144.47 87.942 143.715 74.5774 146.752 64.8114C148.634 58.7582 151.898 54.0434 157.71 53.9793C164.812 53.8795 169.04 57.9107 171.392 63.3484C175.2 72.0862 174.346 84.3727 172.249 90.6915C169.795 98.0939 162.879 107.24 154.867 113.623ZM116.961 122.397C111.532 121.602 107.251 120.09 104.04 118.746C74.5255 106.206 71.2111 77.7141 76.3248 52.8583C77.6648 46.3125 82.0857 36.8957 88.7592 31.6892C92.9443 28.4358 98.0579 26.8584 103.871 29.1046C110.67 31.7102 115.427 38.3262 118.763 46.1022C123.964 58.2241 125.584 73.2888 125.115 81.867C124.546 92.1278 121.815 107.77 116.961 122.397Z" stroke="white" stroke-width="4"/>
<path class="makeup-arrow-1" fill-rule="evenodd" clip-rule="evenodd" d="M225.468 130.216C223.954 130.427 219.594 131.018 218.932 131.091C217.074 131.286 216.097 131.151 215.117 130.917C214.332 130.719 213.543 130.421 212.035 130.211C211.202 130.103 210.609 129.396 210.704 128.67C210.798 127.944 211.549 127.465 212.382 127.573C213.746 127.781 214.592 128.015 215.332 128.229C216.186 128.465 216.858 128.616 218.425 128.441C219.188 128.361 223.358 127.511 225.358 127.467C226.402 127.441 227.132 127.703 227.43 127.932C227.857 128.261 228.221 128.776 228.4 129.505C228.624 130.44 228.578 131.92 228.569 133.58C228.557 135.14 228.582 136.906 229.033 138.529C229.421 139.892 230.119 141.14 231.52 141.95C232.237 142.358 232.476 143.172 232.047 143.786C231.618 144.399 230.684 144.57 229.967 144.162C227.842 142.967 226.681 141.111 226.096 139.041C225.58 137.208 225.521 135.212 225.539 133.43C225.544 132.364 225.579 131.378 225.524 130.599C225.516 130.473 225.492 130.345 225.468 130.216Z" stroke="white" stroke-width="4"/>
</svg>
