<svg width="70" height="70" viewBox="0 0 70 70" fill="none" xmlns="http://www.w3.org/2000/svg">
<path d="M70 34.9999C70 54.3298 54.33 69.9997 35 69.9997C15.67 69.9997 0 54.3298 0 34.9999C0 15.67 15.67 0 35 0C54.33 0 70 15.67 70 34.9999Z" fill="black"/>
<path d="M31.5307 49.416V36.2306H26.4804V31.1871H31.5319V27.3802C31.5319 22.9971 34.5378 20.5835 38.9857 20.5835C41.1153 20.5835 42.9845 20.7155 43.5187 20.7755V25.423H40.3608C37.9415 25.423 37.4888 26.4318 37.4888 27.9208V31.1871H43.2778L42.5257 36.2306H37.4888V49.416H31.5307Z" fill="#F6ABD1"/>
</svg>
