<svg width="108" height="108" viewBox="0 0 108 108" fill="none" xmlns="http://www.w3.org/2000/svg">
<g clip-path="url(#clip0_1_612)">
<path fill-rule="evenodd" clip-rule="evenodd" d="M42.9076 21.8067C42.621 20.1062 42.4051 18.4249 42.2656 16.7435C42.0554 14.2214 42.1853 11.6799 42.1108 9.1578C42.0783 8.0878 41.9503 5.29819 42.0019 4.89694C42.47 1.40033 45.2921 0.86527 46.1176 0.769734C46.5169 0.712413 50.6173 0.254046 51.5019 4.80155C52.5872 10.3617 52.935 15.96 52.5509 21.4438C53.4471 26.1059 54.9795 30.7489 57.0029 34.9524C65.0547 51.6712 80.3977 53.2953 97.0209 53.1425C99.5774 53.1043 101.7 55.1105 101.834 57.6517C101.968 60.2121 100.065 62.4285 97.5197 62.6578C88.2279 63.5558 71.7421 71.0077 66.0425 78.7652C64.8502 80.3893 64.1566 84.3064 63.2395 88.1469C61.9593 93.4778 60.4365 98.7513 58.7302 100.968C58.4742 101.312 55.3616 104.827 54.433 105.343C52.2013 106.566 50.4148 105.859 49.4002 105.209C48.3856 104.56 47.2373 103.28 46.7787 101.159C46.2991 98.9423 46.7042 94.3947 46.6297 93.4203C46.3583 89.8854 45.6514 82.9496 44.2088 76.9882C43.4312 73.7782 42.6019 70.8166 41.23 69.3453C36.1513 63.8998 28.0308 64.7023 21.1923 65.6004C20.407 65.6959 19.6217 65.8106 18.8383 65.9062C16.0544 66.7278 13.0985 67.3391 9.97446 67.7021C5.25691 68.2562 4.48121 63.9189 4.43918 63.6323C4.35128 63.0017 4.02452 59.7536 7.58036 58.4543C7.96823 58.3206 10.8305 57.69 11.933 57.4416C13.4692 57.0977 15.0226 56.8303 16.5817 56.5819C32.6871 51.5758 41.4344 37.5128 42.9076 21.8067ZM48.4353 39.1753C54.5152 51.7478 63.742 57.8238 74.6789 60.5752H74.6771C67.8482 64.1482 61.6364 68.6194 58.3442 73.1096C57.0946 74.8101 55.9482 78.2302 54.9145 82.0707C54.3547 78.4977 53.5981 74.6953 52.5988 71.447C51.4619 67.7403 49.9313 64.6642 48.2232 62.8299C44.9253 59.2951 40.7866 57.327 36.3366 56.3526C41.6637 51.6331 45.703 45.7481 48.4353 39.1753Z" fill="#D48BFF"/>
</g>
<defs>
<clipPath id="clip0_1_612">
<rect width="107" height="107" fill="white" transform="translate(0.524414 0.720703)"/>
</clipPath>
</defs>
</svg>
