<svg width="70" height="70" viewBox="0 0 70 70" fill="none" xmlns="http://www.w3.org/2000/svg">
<path fill-rule="evenodd" clip-rule="evenodd" d="M35 68.5998C53.5568 68.5998 68.6 53.5566 68.6 34.9999C68.6 16.4432 53.5568 1.4 35 1.4C16.4432 1.4 1.4 16.4432 1.4 34.9999C1.4 53.5566 16.4432 68.5998 35 68.5998ZM35 69.9998C54.33 69.9998 70 54.3298 70 34.9999C70 15.67 54.33 0 35 0C15.67 0 0 15.67 0 34.9999C0 54.3298 15.67 69.9998 35 69.9998ZM33.5609 40.891C31.2975 40.6581 29.2552 40.1082 27.5059 38.7594C27.4634 38.7265 27.4206 38.6938 27.3778 38.6611C27.2023 38.5269 27.0266 38.3925 26.8676 38.242C26.1031 37.5167 26.0258 36.6868 26.6305 35.8301C27.1487 35.0976 28.0184 34.9014 28.9221 35.3218C29.0969 35.404 29.264 35.5059 29.4239 35.615C32.6824 37.8231 37.1567 37.8854 40.4286 35.7139C40.7529 35.469 41.0979 35.2686 41.4998 35.1667C42.2812 34.9693 43.0086 35.2523 43.427 35.926C43.9066 36.6955 43.899 37.4473 43.3104 38.0443C42.4051 38.9598 41.3174 39.6233 40.1089 40.0864C38.9661 40.5226 37.7155 40.7423 36.4756 40.8894C36.5308 40.9483 36.5772 40.9984 36.6183 41.0427L36.6185 41.0429C36.7174 41.1495 36.7851 41.2225 36.8683 41.3038C37.5021 41.9325 38.137 42.5599 38.7717 43.1872L38.7741 43.1896L38.7748 43.1903C39.824 44.2272 40.8729 45.2638 41.9167 46.3058C42.4873 46.8764 42.6067 47.5825 42.2931 48.246C41.9481 48.9698 41.1786 49.4472 40.424 49.3959C39.9459 49.3634 39.5727 49.1291 39.2407 48.7988C38.829 48.3903 38.4149 47.9841 38.0009 47.5779L38.0007 47.5778C37.1379 46.7313 36.2751 45.8849 35.4341 45.0174C35.0727 44.643 34.8979 44.7136 34.5798 45.0381C33.3024 46.3352 32.0043 47.6134 30.6986 48.8826C30.1127 49.4532 29.4151 49.5563 28.7355 49.2306C28.0123 48.8856 27.5522 48.1573 27.5881 47.4263C27.6118 46.9307 27.8585 46.5518 28.2035 46.2129C29.3687 45.0653 30.5315 43.9148 31.6942 42.7645C32.1923 42.2716 32.6905 41.7787 33.1888 41.2861C33.2595 41.2163 33.3266 41.1435 33.4077 41.0557C33.4533 41.0063 33.5033 40.9521 33.5609 40.891ZM27.6127 27.8652C27.589 31.8586 30.9026 35.1637 34.9421 35.1769C39.0236 35.1901 42.3598 31.9601 42.3804 27.9758C42.3999 23.8967 39.1192 20.5962 35.0304 20.586C30.9504 20.5739 27.6353 23.8273 27.6127 27.8652ZM35.0021 24.3126C37.0069 24.3141 38.6064 25.8927 38.6144 27.8754C38.6197 29.8566 37.0249 31.4458 35.0197 31.4529C33.0092 31.4605 31.3956 29.8921 31.3807 27.918C31.3658 25.9164 32.9789 24.3096 35.0021 24.3126Z" fill="black"/>
</svg>
