<svg width="70" height="70" viewBox="0 0 70 70" fill="none" xmlns="http://www.w3.org/2000/svg">
<path fill-rule="evenodd" clip-rule="evenodd" d="M35.0001 68.6C53.557 68.6 68.6003 53.5568 68.6003 35C68.6003 16.4432 53.557 1.4 35.0001 1.4C16.4433 1.4 1.4 16.4432 1.4 35C1.4 53.5568 16.4433 68.6 35.0001 68.6ZM35.0001 70C54.3302 70 70.0003 54.33 70.0003 35C70.0003 15.67 54.3302 0 35.0001 0C15.6701 0 0 15.67 0 35C0 54.33 15.6701 70 35.0001 70ZM35.0007 24.2788C35.2943 24.4985 35.5518 24.5219 36.3191 24.567C38.5704 24.6948 39.9968 25.1757 41.5835 26.341C43.5268 27.762 44.7461 29.745 45.209 32.2341C45.3279 32.8788 45.3855 33.4264 45.4269 34.2512C45.4503 34.8042 45.4701 35.0185 45.5944 35.2598C45.7727 35.5894 46.1167 35.8092 46.5148 35.847C46.5544 35.8506 46.5922 35.8524 46.6318 35.8524C46.9866 35.8524 47.3162 35.7011 47.5251 35.4399C47.8043 35.0995 47.8043 34.7826 47.7773 34.1C47.6962 31.9855 47.2352 30.0854 46.4031 28.4537C45.8087 27.292 45.2432 26.5301 44.2364 25.5449C43.1648 24.5003 42.3363 23.9186 41.0738 23.3152C39.7375 22.6759 38.7901 22.4741 37.4051 22.3048C37.126 22.2724 36.6 22.231 36.2344 22.2184C35.5374 22.1968 35.2655 22.2148 34.9449 22.5012C34.6982 22.7173 34.5649 23.0469 34.5757 23.4053C34.5865 23.7619 34.7414 24.0789 35.0007 24.2788ZM42.6566 34.8726C42.0659 34.5826 42.0172 34.0207 42.0172 33.421C42.0172 32.4538 41.7633 31.447 41.3238 30.6618C40.8213 29.7631 40.0883 29.0174 39.2022 28.5041H39.2004C38.4386 28.0593 37.2769 27.7207 36.2395 27.6378C35.8775 27.609 35.4669 27.537 35.1823 27.2128C34.8221 26.8112 34.7843 26.2384 35.0869 25.79C35.4741 25.1992 36.1315 25.2443 37.0176 25.3757C39.6291 25.7485 41.63 26.9228 42.9664 28.8625C43.703 29.936 44.1767 31.2255 44.337 32.5907C44.3712 32.8951 44.4252 33.9793 44.3063 34.2819C44.2127 34.516 43.9713 34.7753 43.7318 34.8978C43.5967 34.9662 43.4184 34.9987 43.2347 34.9987C43.0294 34.9987 42.8187 34.9572 42.6566 34.8726ZM39.7447 29.762C39.1612 29.2271 38.4786 28.8921 37.5961 28.7084C37.3944 28.667 37.0522 28.6291 36.8378 28.6165C36.4704 28.5949 36.3191 28.5985 36.058 28.7246C35.7428 28.8849 35.5213 29.1785 35.451 29.5315C35.3808 29.8827 35.4709 30.2357 35.6996 30.5041C35.9661 30.8085 36.2381 30.8841 36.7874 30.9489C37.706 31.0588 38.2228 31.3686 38.5164 31.981C38.6641 32.2944 38.7469 32.6366 38.7956 33.1301C38.846 33.5911 38.9361 33.8883 39.2656 34.1315C39.4728 34.2864 39.7339 34.3638 39.9933 34.3638C40.276 34.3638 40.557 34.2719 40.7623 34.0882L40.7641 34.0864C41.1892 33.7028 41.2072 33.2291 41.0919 32.4871C40.9136 31.2984 40.4994 30.4572 39.7447 29.762ZM47.3092 41.5976C47.6064 41.956 47.7649 42.3721 47.7865 42.8349V42.8367C47.8009 43.1879 47.7361 43.5536 47.5902 43.9174C47.4353 44.3082 47.1255 44.7639 46.8914 45.0772C46.4537 45.6644 45.9116 46.2587 45.438 46.6676C45.3389 46.754 45.2398 46.8368 45.148 46.9053C45.0705 46.9629 44.9985 47.0134 44.9247 47.062C44.5104 47.3501 44.1466 47.5339 43.7846 47.6437C43.5253 47.723 43.2533 47.768 42.9489 47.7824C42.8517 47.7878 42.7634 47.7896 42.6788 47.7896C42.2087 47.7896 41.8989 47.7068 41.2289 47.4366C40.676 47.2133 40.1015 46.9647 39.4729 46.673L39.3072 46.5973C38.7741 46.3488 38.2446 46.0822 37.6863 45.785L37.4774 45.6716C36.9371 45.3798 36.4148 45.0808 35.9249 44.7801L35.7862 44.6918C32.4074 42.6008 29.5636 40.0199 27.0962 36.8087C26.8656 36.5061 26.6423 36.2035 26.4244 35.8991C26.3511 35.797 26.2795 35.6934 26.2078 35.5897C26.172 35.5379 26.1362 35.4861 26.1002 35.4345L25.8138 35.0166C25.6319 34.7447 25.4572 34.4727 25.2861 34.1989L25.2411 34.1287C25.0682 33.8495 24.9025 33.5722 24.7422 33.2948L24.7008 33.2246C23.9011 31.8342 23.2275 30.4113 22.7034 28.9957C22.1523 27.5135 21.9974 26.6292 22.6044 25.6098C22.8619 25.1883 23.8111 24.3076 24.427 23.8574C25.5491 23.0415 26.0588 22.7497 26.5216 22.6543C26.8566 22.5822 27.3951 22.6272 27.7716 22.7605C27.9463 22.82 28.193 22.946 28.3443 23.0397C29.2574 23.6322 31.4493 26.4382 32.1409 27.7566C32.6038 28.6391 32.7442 29.3019 32.5839 29.8404C32.4182 30.4222 32.1067 30.7355 31.1251 31.5082C30.9018 31.6865 30.6856 31.8648 30.538 31.9981C30.4964 32.0344 30.4665 32.0624 30.4387 32.0886L30.4353 32.0917L30.3939 32.1349C30.2984 32.2934 30.212 32.5816 30.212 32.7815C30.2156 33.2966 30.5776 34.4043 31.1737 35.3606C31.6024 36.0504 32.3768 36.9401 33.1477 37.6263C34.05 38.435 34.8497 38.9879 35.7412 39.4202C36.7966 39.9335 37.4467 40.0829 37.843 39.9028C37.9402 39.8578 38.0195 39.8146 38.0699 39.7858C38.0694 39.7858 38.0772 39.7766 38.0991 39.7507C38.1587 39.6804 38.3229 39.4865 38.7111 39.0167C39.2082 38.4062 39.4639 38.118 39.8133 37.9343C39.9142 37.8821 40.0204 37.837 40.1717 37.7866C40.8597 37.5597 41.5585 37.6191 42.2537 37.9649C42.7238 38.2045 43.7306 38.8132 44.3681 39.2473C45.1858 39.8074 47.0211 41.259 47.3092 41.5976Z" fill="black"/>
</svg>
