<svg width="70" height="70" viewBox="0 0 70 70" fill="none" xmlns="http://www.w3.org/2000/svg">
<path fill-rule="evenodd" clip-rule="evenodd" d="M68.6 34.9998C68.6 53.5565 53.5568 68.5997 35 68.5997C16.4432 68.5997 1.4 53.5565 1.4 34.9998C1.4 16.4432 16.4432 1.4 35 1.4C53.5568 1.4 68.6 16.4432 68.6 34.9998ZM70 34.9998C70 54.3297 54.33 69.9997 35 69.9997C15.67 69.9997 0 54.3297 0 34.9998C0 15.67 15.67 0 35 0C54.33 0 70 15.67 70 34.9998ZM43.2443 47.2972C43.4386 47.4236 43.664 47.4886 43.8912 47.4886C44.0415 47.4886 44.1917 47.4605 44.3328 47.4043C44.692 47.2621 44.9522 46.9548 45.0255 46.5896L49.5498 23.8381C49.559 23.7959 49.5645 23.7538 49.5682 23.7116C49.5737 23.6519 49.5737 23.594 49.57 23.5343C49.5517 23.3025 49.4582 23.076 49.2878 22.8881C49.2695 22.867 49.2493 22.846 49.2273 22.8266C49.0202 22.6335 48.7564 22.5281 48.4888 22.5123C48.4412 22.5106 48.3954 22.5106 48.3496 22.5123C48.2195 22.5211 48.0894 22.5492 47.9684 22.5984L21.1595 32.8214C20.7179 32.9899 20.4284 33.3991 20.432 33.8556C20.4357 34.3104 20.7289 34.7178 21.1742 34.8811L28.2237 37.464L30.1972 44.63C30.2943 44.9812 30.5655 45.2656 30.9229 45.3885C31.2802 45.5097 31.6779 45.457 31.9857 45.2445L35.9163 42.5351L43.2443 47.2972ZM43.0867 44.5246L36.5595 40.2823C36.5504 40.2753 36.5394 40.2682 36.5284 40.2612L33.8896 38.5474L46.6087 26.8196L43.0867 44.5246ZM32.0004 42.5123L31.1263 39.3376C31.2051 39.4447 31.304 39.536 31.4176 39.6115L33.8841 41.2129L32.0004 42.5123ZM29.5998 35.601L24.7585 33.8275L43.3836 26.7265L31.2655 37.8995C31.0676 38.0821 30.9467 38.3244 30.9174 38.5808L30.3035 36.3508C30.2101 36.0066 29.948 35.7274 29.5998 35.601Z" fill="black"/>
</svg>
