<svg width="70" height="70" viewBox="0 0 70 70" fill="none" xmlns="http://www.w3.org/2000/svg">
<path fill-rule="evenodd" clip-rule="evenodd" d="M68.6 35.0001C68.6 53.5569 53.5568 68.6001 35 68.6001C16.4432 68.6001 1.4 53.5569 1.4 35.0001C1.4 16.4433 16.4432 1.4 35 1.4C53.5568 1.4 68.6 16.4433 68.6 35.0001ZM70 35.0001C70 54.3301 54.33 70.0001 35 70.0001C15.67 70.0001 0 54.3301 0 35.0001C0 15.6701 15.67 0 35 0C54.33 0 70 15.6701 70 35.0001ZM49.3519 41.4412C49.3827 41.4916 49.4156 41.5535 49.4511 41.6291C49.4859 41.7039 49.5213 41.837 49.5577 42.0267C49.5925 42.2174 49.5906 42.3874 49.5496 42.5377C49.5087 42.687 49.3827 42.8247 49.1694 42.9497C48.9571 43.0747 48.6572 43.1376 48.2726 43.1376L44.3783 43.1979C44.1349 43.2484 43.8513 43.223 43.527 43.1224C43.2024 43.0225 42.9389 42.9129 42.7356 42.7922L42.4311 42.6123C42.1277 42.4019 41.773 42.0816 41.3665 41.6516C40.9618 41.2217 40.6144 40.8339 40.3255 40.4885C40.0356 40.1431 39.7267 39.8536 39.3974 39.6178C39.0674 39.3831 38.7813 39.3049 38.5379 39.3848C38.5069 39.3956 38.4667 39.4126 38.4166 39.438C38.3657 39.4631 38.2789 39.5351 38.1578 39.6556C38.0355 39.7753 37.9272 39.9227 37.8306 40.0982C37.7337 40.2736 37.6472 40.5336 37.5716 40.8781C37.4959 41.2235 37.463 41.6111 37.4731 42.0413C37.4731 42.1914 37.4549 42.3291 37.4194 42.4539C37.3846 42.579 37.3464 42.6718 37.3055 42.7321L37.2453 42.8067C37.0631 42.9965 36.794 43.107 36.4395 43.1367H34.6902C33.9701 43.1772 33.2298 43.0946 32.4696 42.8894C31.7083 42.6842 31.0421 42.4189 30.4687 42.0942C29.8963 41.7686 29.3738 41.4384 28.9026 41.1029C28.4303 40.7683 28.073 40.4804 27.8296 40.2402L27.4495 39.8796C27.3484 39.7797 27.2089 39.6305 27.031 39.4299C26.8542 39.2293 26.4915 38.7741 25.9436 38.0634C25.3956 37.3537 24.8589 36.5982 24.331 35.7975C23.8041 34.997 23.1834 33.9419 22.4686 32.6302C21.7531 31.3197 21.0922 29.9588 20.4834 28.5483C20.4222 28.3883 20.3921 28.2533 20.3921 28.1425C20.3921 28.0327 20.4075 27.9528 20.4376 27.9024L20.4988 27.8123C20.6509 27.6226 20.9401 27.5272 21.3657 27.5272L25.5333 27.4975C25.6556 27.5173 25.7714 27.5498 25.8834 27.5947C25.9947 27.6405 26.0757 27.6829 26.1268 27.7225L26.2024 27.7674C26.3648 27.8782 26.4868 28.0382 26.5681 28.2478C26.7704 28.7489 27.0037 29.2661 27.2672 29.8012C27.5307 30.3373 27.7384 30.7449 27.8908 31.0247L28.1341 31.4599C28.4286 32.061 28.712 32.5807 28.9855 33.0208C29.2599 33.4615 29.5061 33.8042 29.7238 34.0487C29.9418 34.2944 30.1523 34.487 30.3546 34.6272C30.5578 34.7677 30.7303 34.8377 30.8715 34.8377C31.0138 34.8377 31.1506 34.8126 31.2827 34.7621C31.3027 34.7522 31.3282 34.7271 31.3583 34.6875C31.3893 34.647 31.4505 34.5374 31.5415 34.3573C31.6327 34.1765 31.7011 33.9419 31.7466 33.6513C31.7923 33.3616 31.8406 32.9558 31.8906 32.4361C31.9417 31.9152 31.9417 31.29 31.8906 30.5596C31.8707 30.1593 31.825 29.7941 31.7541 29.4639C31.6838 29.1339 31.6126 28.9036 31.5415 28.774L31.4505 28.5932C31.1961 28.2533 30.7658 28.0382 30.1569 27.9482C30.0255 27.9284 30.0512 27.808 30.2335 27.5876C30.4057 27.3978 30.598 27.2475 30.8113 27.1378C31.3492 26.8779 32.5608 26.7572 34.4468 26.777C35.2781 26.7878 35.9628 26.8525 36.5004 26.9723C36.703 27.0227 36.8724 27.0902 37.0091 27.1756C37.1459 27.2601 37.2497 27.3806 37.3209 27.5353C37.3921 27.691 37.4458 27.851 37.4805 28.0157C37.516 28.1812 37.5342 28.4088 37.5342 28.6984C37.5342 28.9891 37.5288 29.2642 37.5188 29.5242C37.5088 29.7842 37.4959 30.1368 37.4805 30.5821C37.4658 31.0273 37.4586 31.4401 37.4586 31.8208C37.4586 31.9304 37.453 32.1409 37.443 32.4513C37.4329 32.7608 37.4304 33.0019 37.4348 33.1718C37.4404 33.3418 37.4586 33.5442 37.4887 33.7791C37.5188 34.0147 37.5772 34.2099 37.6637 34.3647C37.7494 34.5201 37.8633 34.6426 38.0056 34.7324C38.0866 34.7522 38.1732 34.772 38.2644 34.7928C38.3556 34.8126 38.4868 34.7578 38.66 34.6272C38.8324 34.4978 39.0247 34.3251 39.238 34.11C39.4504 33.8951 39.7138 33.5594 40.0284 33.1044C40.3427 32.6491 40.6874 32.1112 41.0629 31.4906C41.672 30.4499 42.2134 29.3246 42.6911 28.1138C42.7312 28.0138 42.7821 27.9259 42.8423 27.851C42.9034 27.7755 42.959 27.7234 43.0101 27.6937L43.0703 27.6488L43.1459 27.6108C43.1459 27.6108 43.1668 27.6061 43.2085 27.5966C43.2411 27.5892 43.2865 27.579 43.3445 27.5659C43.4759 27.5353 43.5778 27.5337 43.6481 27.5579L48.0292 27.5282C48.4248 27.4777 48.7494 27.4904 49.0028 27.5659C49.2562 27.6405 49.4128 27.7234 49.474 27.8133L49.5643 27.9627C49.7976 28.6031 49.0373 30.0739 47.2825 32.3758C47.04 32.6959 46.71 33.1214 46.2944 33.6513C45.5031 34.6525 45.0473 35.3072 44.9253 35.6176C44.753 36.0278 44.824 36.4335 45.1386 36.8337C45.3108 37.0433 45.722 37.4536 46.3709 38.0643H46.3856L46.401 38.0795L46.4167 38.094L46.4466 38.1247C47.8759 39.4352 48.8451 40.5408 49.3519 41.4412Z" fill="black"/>
</svg>
