<svg width="70" height="70" viewBox="0 0 70 70" fill="none" xmlns="http://www.w3.org/2000/svg">
<path fill-rule="evenodd" clip-rule="evenodd" d="M68.6 34.9999C68.6 53.5566 53.5568 68.5998 35 68.5998C16.4432 68.5998 1.4 53.5566 1.4 34.9999C1.4 16.4432 16.4432 1.4 35 1.4C53.5568 1.4 68.6 16.4432 68.6 34.9999ZM70 34.9999C70 54.3298 54.33 69.9998 35 69.9998C15.67 69.9998 0 54.3298 0 34.9999C0 15.67 15.67 0 35 0C54.33 0 70 15.67 70 34.9999ZM35.2765 49.4295C43.5269 49.4295 50.2136 42.7942 50.2136 34.6081C50.2136 26.422 43.529 19.7867 35.2765 19.7867C27.0262 19.7867 20.3395 26.422 20.3395 34.6081C20.3395 37.4081 21.1224 40.0284 22.4828 42.2616L19.7876 50.2124L28.0572 47.5856C30.1984 48.76 32.6583 49.4295 35.2765 49.4295ZM22.7181 34.6081C22.7181 27.7375 28.3524 22.1461 35.2765 22.1461C42.2028 22.1461 47.8349 27.7375 47.8349 34.6081C47.8349 41.4787 42.2028 47.068 35.2765 47.068C32.7268 47.068 30.3503 46.3108 28.3674 45.0081L23.5417 46.5418L25.1117 41.9129C23.608 39.8594 22.7181 37.3354 22.7181 34.6081ZM42.3066 37.6882C42.5688 37.8139 42.7441 37.898 42.821 38.022C42.9108 38.1717 42.9108 38.899 42.6071 39.7482C42.3012 40.5974 40.806 41.4145 40.1343 41.4765C40.0191 41.4868 39.9236 41.5096 39.8257 41.533C39.3531 41.646 38.8239 41.7724 35.7407 40.5675C32.3081 39.226 30.0435 35.8995 29.5679 35.2009C29.5278 35.142 29.5004 35.1018 29.4861 35.083C29.3021 34.8413 27.9909 33.1129 27.9909 31.3268C27.9909 29.6523 28.82 28.7749 29.2012 28.3715C29.227 28.3441 29.2509 28.3189 29.2722 28.2958C29.608 27.9322 30.0038 27.8423 30.2498 27.8423C30.3757 27.8423 30.5016 27.8503 30.6234 27.858C30.7375 27.8653 30.8479 27.8723 30.9514 27.8723C30.9771 27.8723 31.0041 27.8705 31.0323 27.8687C31.2383 27.8552 31.5058 27.8378 31.7749 28.4776C31.8614 28.6847 31.9827 28.9777 32.1142 29.2952C32.4444 30.0929 32.8385 31.0449 32.9043 31.1749C32.9963 31.3568 33.0562 31.5685 32.9343 31.8102C32.9157 31.8474 32.8986 31.8824 32.8822 31.9158C32.7912 32.1017 32.7244 32.2382 32.5685 32.4177C32.5053 32.4905 32.44 32.5691 32.3749 32.6475C32.2506 32.7972 32.1269 32.9463 32.0188 33.053C31.8348 33.2348 31.6444 33.4316 31.8583 33.7953C32.0722 34.1589 32.8059 35.3461 33.8947 36.3108C35.0655 37.3455 36.0819 37.7839 36.5968 38.006C36.6971 38.0493 36.7784 38.0843 36.838 38.114C37.206 38.2958 37.4199 38.2637 37.6316 38.022C37.8455 37.7782 38.5493 36.961 38.7931 36.5974C39.037 36.2338 39.2808 36.2958 39.6167 36.4156C39.9504 36.5375 41.7515 37.4167 42.1172 37.5963C42.1847 37.6297 42.2478 37.66 42.3066 37.6882Z" fill="black"/>
</svg>
