<svg width="266" height="223" viewBox="0 0 266 223" fill="none" xmlns="http://www.w3.org/2000/svg">
<path class="arrowkr-2" d="M234.15 115.526L234.152 115.524C234.496 115.34 234.723 114.815 234.417 114.272C234.112 113.729 233.505 113.615 233.135 113.813C166.351 149.731 83.0456 158.275 23.433 95.9997C22.9989 95.5474 22.4329 95.6095 22.1562 95.8792L22.1554 95.8799C21.8493 96.1778 21.7844 96.7867 22.2151 97.235L22.2171 97.237C82.1615 159.862 166.099 152.132 234.15 115.526Z" stroke="white" stroke-width="3"/>
<path class="arrowkr-1" d="M235.538 111.858L232.068 111.73C229.562 111.637 226.726 111.553 224.697 111.492C223.281 111.45 222.258 111.42 222.017 111.407L222.017 111.407C205.943 110.52 190.726 107.169 175.326 101.472L175.324 101.471C174.787 101.273 174.506 100.667 174.657 100.185C174.788 99.7707 175.231 99.5246 175.722 99.7048C175.722 99.705 175.723 99.7052 175.723 99.7054L176.239 98.3243C191.294 103.9 206.194 107.187 221.944 108.054L235.538 111.858ZM235.538 111.858L233.055 114.258C231.164 116.086 229.202 117.91 227.22 119.751C221.645 124.931 215.921 130.25 211.227 136.19C204.463 144.754 200.009 154.386 201.102 166.115C201.157 166.7 201.679 167.115 202.165 167.095C202.601 167.077 202.961 166.714 202.911 166.19L202.911 166.189C201.841 154.739 206.383 145.49 212.694 137.502C217.422 131.516 223.27 126.095 228.773 120.992C230.903 119.018 232.981 117.091 234.923 115.197L234.927 115.194C235.063 115.062 235.342 114.817 235.66 114.537C235.922 114.306 236.211 114.052 236.467 113.819C237.129 113.219 237.699 112.659 237.959 112.305C238.371 111.736 238.358 111.239 238.321 111.043C238.295 110.922 238.257 110.814 238.2 110.715C238.144 110.619 238.053 110.502 237.885 110.377L237.864 110.361L237.859 110.358C237.858 110.359 237.575 110.169 236.983 110.112L236.976 110.112C235.839 109.997 232.341 109.863 228.931 109.751C227.423 109.701 225.936 109.656 224.714 109.619C223.227 109.573 222.131 109.54 221.865 109.525L235.538 111.858Z" stroke="white" stroke-width="3"/>
</svg>
