<svg width="351" height="365" viewBox="0 0 351 365" fill="none" xmlns="http://www.w3.org/2000/svg">
<path d="M26.9855 263.883C59.2832 268.057 76.0724 262.342 84.9496 250.907C93.8365 239.475 94.5955 222.952 95.3449 206.424C95.8057 194.996 96.2763 183.334 98.9592 173.49C101.754 163.217 107.035 154.632 117.246 149.408C119.672 148.229 123.144 147.699 127.374 148.178C133.2 148.574 140.714 150.345 149.26 153.233C162.399 157.445 178.172 163.85 194.432 170.451C218.497 180.222 243.63 190.427 262.875 194.603C270.252 196.32 276.771 196.99 281.927 196.412C286.443 195.819 289.863 194.321 291.642 191.23C293.091 188.72 293.394 185.285 292.693 180.507C291.466 172.443 287.048 161.702 278.925 147.134C275.063 140.212 270.682 133.574 266.296 126.93C262.605 121.338 258.911 115.742 255.523 109.969C243.904 90.2356 232.278 69.7892 224.616 49.0057C224.15 47.6376 224.723 46.2055 225.92 45.7286C227.19 45.0434 228.528 45.8057 228.994 47.1738C236.543 67.6759 248.027 87.8299 259.489 107.265C262.664 112.52 266.075 117.698 269.495 122.889C274.166 129.98 278.853 137.094 282.974 144.46C291.56 159.684 296.066 171.171 297.336 179.726C298.368 185.818 297.631 190.506 295.651 193.991C293.649 197.469 290.237 199.917 285.725 200.985C279.746 202.424 271.537 201.803 261.917 199.678C242.608 195.476 217.386 185.236 193.236 175.431C176.916 168.805 161.086 162.378 147.9 158.147C139.74 155.411 132.549 153.768 127.035 153.258C123.776 152.924 121.13 153.068 119.191 154.201C110.417 158.569 105.928 166.042 103.476 175.029C101.034 184.005 100.563 194.618 100.09 205.27C100.067 205.794 100.043 206.317 100.02 206.84C99.2934 224.324 98.0549 242.082 88.5689 254.225C79.0756 266.366 61.1215 273.52 26.4483 268.885C25.1096 268.832 24.1921 267.524 24.3361 266.159C24.4802 264.794 25.717 263.621 26.9855 263.883Z" fill="#D3FF1F"/>
<path d="M26.9855 263.883C59.2832 268.057 76.0724 262.342 84.9496 250.907C93.8365 239.475 94.5955 222.952 95.3449 206.424C95.8057 194.996 96.2763 183.334 98.9592 173.49C101.754 163.217 107.035 154.632 117.246 149.408C119.672 148.229 123.144 147.699 127.374 148.178C133.2 148.574 140.714 150.345 149.26 153.233C162.399 157.445 178.172 163.85 194.432 170.451C218.497 180.222 243.63 190.427 262.875 194.603C270.252 196.32 276.771 196.99 281.927 196.412C286.443 195.819 289.863 194.321 291.642 191.23C293.091 188.72 293.394 185.285 292.693 180.507C291.466 172.443 287.048 161.702 278.925 147.134C275.063 140.212 270.682 133.574 266.296 126.93C262.605 121.338 258.911 115.742 255.523 109.969C243.904 90.2356 232.278 69.7892 224.616 49.0057C224.15 47.6376 224.723 46.2055 225.92 45.7286C227.19 45.0434 228.528 45.8057 228.994 47.1738C236.543 67.6759 248.027 87.8299 259.489 107.265C262.664 112.52 266.075 117.698 269.495 122.889C274.166 129.98 278.853 137.094 282.974 144.46C291.56 159.684 296.066 171.171 297.336 179.726C298.368 185.818 297.631 190.506 295.651 193.991C293.649 197.469 290.237 199.917 285.725 200.985C279.746 202.424 271.537 201.803 261.917 199.678C242.608 195.476 217.386 185.236 193.236 175.431C176.916 168.805 161.086 162.378 147.9 158.147C139.74 155.411 132.549 153.768 127.035 153.258C123.776 152.924 121.13 153.068 119.191 154.201C110.417 158.569 105.928 166.042 103.476 175.029C101.034 184.005 100.563 194.618 100.09 205.27C100.067 205.794 100.043 206.317 100.02 206.84C99.2934 224.324 98.0549 242.082 88.5689 254.225C79.0756 266.366 61.1215 273.52 26.4483 268.885C25.1096 268.832 24.1921 267.524 24.3361 266.159C24.4802 264.794 25.717 263.621 26.9855 263.883Z" stroke="#D3FF1F"/>
<path d="M26.3688 271.13C26.6096 271.462 27.3152 272.214 27.9441 272.699C30.3394 274.785 33.9484 277.348 36.0013 278.805C36.5006 279.16 36.9079 279.449 37.1833 279.65C49.3295 289.643 63.3912 299.441 78.0562 305.211C79.2857 305.695 79.9299 307.134 79.5061 308.389C79.0122 309.854 77.6629 310.508 76.4334 310.024C61.3441 304.087 46.9067 293.905 34.2924 283.965C33.6862 283.409 32.3687 282.432 30.826 281.288C28.9106 279.868 26.6483 278.19 24.9695 276.742C23.8683 275.835 22.9822 275.011 22.4765 274.338C22.0866 273.711 21.8627 273.15 21.7741 272.641C21.4619 271.57 21.5944 270.199 22.0542 268.958C22.5892 267.51 23.5968 266.011 24.9155 264.634C27.4918 261.766 31.4025 258.764 34.6042 256.307C34.7257 256.213 34.8461 256.121 34.9654 256.029C36.8268 254.629 38.4374 253.366 39.1092 252.446C44.8793 244.526 45.2477 233.535 38.2577 222.253C37.5501 221.027 37.8275 219.476 38.9067 218.716C39.9858 217.956 41.4517 218.296 42.2319 219.314C50.5576 233.016 49.8003 245.989 42.8461 255.575C41.8634 256.961 39.3423 258.916 36.5096 261.114C34.4175 262.737 32.1554 264.492 30.2176 266.246C28.8531 267.605 27.7006 268.811 26.9562 269.94C26.919 270.001 26.8842 270.057 26.8515 270.109C26.6784 270.386 26.5626 270.572 26.4364 270.921C26.4315 270.919 26.3544 271.124 26.3688 271.13Z" fill="#D3FF1F"/>
<path d="M26.3688 271.13C26.6096 271.462 27.3152 272.214 27.9441 272.699C30.3394 274.785 33.9484 277.348 36.0013 278.805C36.5006 279.16 36.9079 279.449 37.1833 279.65C49.3295 289.643 63.3912 299.441 78.0562 305.211C79.2857 305.695 79.9299 307.134 79.5061 308.389C79.0122 309.854 77.6629 310.508 76.4334 310.024C61.3441 304.087 46.9067 293.905 34.2924 283.965C33.6862 283.409 32.3687 282.432 30.826 281.288C28.9106 279.868 26.6483 278.19 24.9695 276.742C23.8683 275.835 22.9822 275.011 22.4765 274.338C22.0866 273.711 21.8627 273.15 21.7741 272.641C21.4619 271.57 21.5944 270.199 22.0542 268.958C22.5892 267.51 23.5968 266.011 24.9155 264.634C27.4918 261.766 31.4025 258.764 34.6042 256.307C34.7257 256.213 34.8461 256.121 34.9654 256.029C36.8268 254.629 38.4374 253.366 39.1092 252.446C44.8793 244.526 45.2477 233.535 38.2577 222.253C37.5501 221.027 37.8275 219.476 38.9067 218.716C39.9858 217.956 41.4517 218.296 42.2319 219.314C50.5576 233.016 49.8003 245.989 42.8461 255.575C41.8634 256.961 39.3423 258.916 36.5096 261.114C34.4175 262.737 32.1554 264.492 30.2176 266.246C28.8531 267.605 27.7006 268.811 26.9562 269.94C26.919 270.001 26.8842 270.057 26.8515 270.109C26.6784 270.386 26.5626 270.572 26.4364 270.921C26.4315 270.919 26.3544 271.124 26.3688 271.13Z" stroke="#D3FF1F"/>
</svg>
