<svg width="1920" height="274" viewBox="0 0 1920 274" fill="none" xmlns="http://www.w3.org/2000/svg">
<path d="M80.3147 177.561L75.1865 177.382L75.0074 182.51L80.1356 182.689L80.3147 177.561ZM127.086 179.194L126.907 184.323L132.035 184.502L132.214 179.374L127.086 179.194ZM131.972 39.2797L137.1 39.4588L137.279 34.3305L132.151 34.1514L131.972 39.2797ZM85.2006 37.6464L85.3797 32.5181L80.2515 32.3391L80.0724 37.4673L85.2006 37.6464ZM83.1276 97.0102L84.0825 102.052L88.1127 101.289L88.2559 97.1893L83.1276 97.0102ZM46.4243 36.2923L51.5525 36.4714L51.7316 31.3431L46.6034 31.164L46.4243 36.2923ZM-0.347222 34.659L-0.168139 29.5307L-5.29639 29.3517L-5.47547 34.4799L-0.347222 34.659ZM81.6758 138.585L86.804 138.764L87.0168 132.672L80.9777 133.501L81.6758 138.585ZM80.1356 182.689L126.907 184.323L127.265 174.066L80.4938 172.433L80.1356 182.689ZM132.214 179.374L137.1 39.4588L126.844 39.1006L121.958 179.015L132.214 179.374ZM132.151 34.1514L85.3797 32.5181L85.0216 42.7746L131.793 44.4079L132.151 34.1514ZM80.0724 37.4673L77.9994 96.8311L88.2559 97.1893L90.3289 37.8255L80.0724 37.4673ZM82.1727 91.9685C76.3391 93.0733 70.7048 93.4431 64.6482 93.2316L64.2901 103.488C71.0257 103.723 77.426 103.313 84.0825 102.052L82.1727 91.9685ZM64.6482 93.2316C57.8878 92.9955 54.5707 91.5695 52.8334 89.7639C51.1336 87.9972 49.8671 84.7347 50.1007 78.046L39.8442 77.6879C39.5752 85.3905 40.8615 92.1231 45.4379 96.8795C49.9767 101.597 56.6592 103.222 64.2901 103.488L64.6482 93.2316ZM50.1007 78.046L51.5525 36.4714L41.296 36.1132L39.8442 77.6879L50.1007 78.046ZM46.6034 31.164L-0.168139 29.5307L-0.526304 39.7872L46.2452 41.4205L46.6034 31.164ZM-5.47547 34.4799L-7.17857 83.2502L3.07793 83.6084L4.78103 34.8381L-5.47547 34.4799ZM-7.17857 83.2502C-7.77126 100.223 -3.70607 115.541 6.62896 126.829C16.9851 138.14 32.9166 144.618 54.4224 145.369L54.7806 135.113C35.1115 134.426 22.1552 128.589 14.1982 119.898C6.22012 111.185 2.54686 98.8164 3.07793 83.6084L-7.17857 83.2502ZM54.4224 145.369C62.7724 145.661 71.6953 145.135 82.3739 143.669L80.9777 133.501C70.7434 134.907 62.4208 135.38 54.7806 135.113L54.4224 145.369ZM76.5475 138.406L75.1865 177.382L85.443 177.74L86.804 138.764L76.5475 138.406ZM295.393 185.072L290.265 184.893L290.086 190.021L295.214 190.2L295.393 185.072ZM342.164 186.705L341.985 191.833L347.114 192.012L347.293 186.884L342.164 186.705ZM344.035 133.138L348.273 130.245L339.453 117.324L338.907 132.959L344.035 133.138ZM381.54 188.08L377.302 190.973L378.766 193.118L381.361 193.208L381.54 188.08ZM438.306 190.062L438.127 195.191L448.589 195.556L442.469 187.063L438.306 190.062ZM385.053 116.159L381.148 112.83L378.536 115.893L380.889 119.159L385.053 116.159ZM441.393 50.0849L445.298 53.4143L452.193 45.3275L441.572 44.9567L441.393 50.0849ZM387.026 48.1864L387.205 43.0581L384.599 42.9671L382.989 45.0182L387.026 48.1864ZM345.138 101.557L340.01 101.378L339.461 117.102L349.175 104.725L345.138 101.557ZM347.05 46.7904L352.179 46.9695L352.358 41.8412L347.23 41.6621L347.05 46.7904ZM300.279 45.1571L300.458 40.0288L295.33 39.8498L295.151 44.978L300.279 45.1571ZM295.214 190.2L341.985 191.833L342.344 181.577L295.572 179.944L295.214 190.2ZM347.293 186.884L349.163 133.317L338.907 132.959L337.036 186.526L347.293 186.884ZM339.797 136.031L377.302 190.973L385.779 185.187L348.273 130.245L339.797 136.031ZM381.361 193.208L438.127 195.191L438.485 184.934L381.72 182.952L381.361 193.208ZM442.469 187.063L389.216 113.159L380.889 119.159L434.143 193.062L442.469 187.063ZM388.957 119.488L445.298 53.4143L437.488 46.7555L381.148 112.83L388.957 119.488ZM441.572 44.9567L387.205 43.0581L386.847 53.3146L441.214 55.2132L441.572 44.9567ZM382.989 45.0182L341.101 98.3889L349.175 104.725L391.063 51.3545L382.989 45.0182ZM350.266 101.736L352.179 46.9695L341.922 46.6113L340.01 101.378L350.266 101.736ZM347.23 41.6621L300.458 40.0288L300.1 50.2853L346.871 51.9186L347.23 41.6621ZM295.151 44.978L290.265 184.893L300.521 185.251L305.407 45.3362L295.151 44.978ZM430.994 145.38L425.865 145.201L425.686 150.329L430.815 150.508L430.994 145.38ZM500.551 147.809L500.372 152.937L505.5 153.116L505.679 147.988L500.551 147.809ZM501.849 110.632L506.978 110.811L507.157 105.683L502.029 105.503L501.849 110.632ZM432.292 108.203L432.471 103.074L427.343 102.895L427.164 108.024L432.292 108.203ZM430.815 150.508L500.372 152.937L500.73 142.681L431.173 140.252L430.815 150.508ZM505.679 147.988L506.978 110.811L496.721 110.453L495.423 147.63L505.679 147.988ZM502.029 105.503L432.471 103.074L432.113 113.331L501.67 115.76L502.029 105.503ZM427.164 108.024L425.865 145.201L436.122 145.559L437.42 108.382L427.164 108.024ZM597.382 195.618L592.254 195.438L592.075 200.567L597.203 200.746L597.382 195.618ZM644.154 197.251L643.975 202.379L649.103 202.558L649.282 197.43L644.154 197.251ZM649.04 57.3361L654.168 57.5152L654.347 52.3869L649.219 52.2078L649.04 57.3361ZM602.268 55.7028L602.447 50.5745L597.319 50.3955L597.14 55.5237L602.268 55.7028ZM600.195 115.067L601.15 120.108L605.18 119.345L605.323 115.246L600.195 115.067ZM563.492 54.3487L568.62 54.5278L568.799 49.3995L563.671 49.2204L563.492 54.3487ZM516.72 52.7154L516.899 47.5871L511.771 47.4081L511.592 52.5363L516.72 52.7154ZM598.743 156.641L603.872 156.82L604.084 150.728L598.045 151.558L598.743 156.641ZM597.203 200.746L643.975 202.379L644.333 192.123L597.561 190.489L597.203 200.746ZM649.282 197.43L654.168 57.5152L643.911 57.157L639.026 197.072L649.282 197.43ZM649.219 52.2078L602.447 50.5745L602.089 60.831L648.861 62.4643L649.219 52.2078ZM597.14 55.5237L595.067 114.888L605.323 115.246L607.397 55.8819L597.14 55.5237ZM599.24 110.025C593.407 111.13 587.772 111.5 581.716 111.288L581.358 121.545C588.093 121.78 594.494 121.369 601.15 120.108L599.24 110.025ZM581.716 111.288C574.955 111.052 571.638 109.626 569.901 107.82C568.201 106.054 566.935 102.791 567.168 96.1024L556.912 95.7443C556.643 103.447 557.929 110.18 562.506 114.936C567.044 119.653 573.727 121.278 581.358 121.545L581.716 111.288ZM567.168 96.1024L568.62 54.5278L558.364 54.1696L556.912 95.7443L567.168 96.1024ZM563.671 49.2204L516.899 47.5871L516.541 57.8437L563.313 59.4769L563.671 49.2204ZM511.592 52.5363L509.889 101.307L520.146 101.665L521.849 52.8945L511.592 52.5363ZM509.889 101.307C509.296 118.279 513.362 133.597 523.697 144.885C534.053 156.196 549.984 162.675 571.49 163.426L571.848 153.169C552.179 152.482 539.223 146.645 531.266 137.955C523.288 129.241 519.615 116.873 520.146 101.665L509.889 101.307ZM571.49 163.426C579.84 163.717 588.763 163.191 599.442 161.725L598.045 151.558C587.811 152.963 579.488 153.436 571.848 153.169L571.49 163.426ZM593.615 156.462L592.254 195.438L602.511 195.797L603.872 156.82L593.615 156.462ZM812.461 203.128L807.332 202.949L807.153 208.077L812.282 208.256L812.461 203.128ZM859.232 204.762L859.053 209.89L864.181 210.069L864.36 204.941L859.232 204.762ZM861.103 151.194L865.341 148.301L856.52 135.38L855.974 151.015L861.103 151.194ZM898.608 206.137L894.37 209.03L895.834 211.174L898.429 211.265L898.608 206.137ZM955.374 208.119L955.194 213.247L965.657 213.612L959.537 205.119L955.374 208.119ZM902.12 134.215L898.216 130.886L895.604 133.949L897.957 137.215L902.12 134.215ZM958.461 68.1413L962.365 71.4707L969.261 63.384L958.64 63.0131L958.461 68.1413ZM904.094 66.2428L904.273 61.1145L901.667 61.0235L900.057 63.0746L904.094 66.2428ZM862.206 119.613L857.077 119.434L856.528 135.158L866.242 122.782L862.206 119.613ZM864.118 64.8468L869.246 65.0259L869.425 59.8976L864.297 59.7185L864.118 64.8468ZM817.347 63.2135L817.526 58.0852L812.397 57.9062L812.218 63.0344L817.347 63.2135ZM812.282 208.256L859.053 209.89L859.411 199.633L812.64 198L812.282 208.256ZM864.36 204.941L866.231 151.373L855.974 151.015L854.104 204.582L864.36 204.941ZM856.865 154.087L894.37 209.03L902.846 203.244L865.341 148.301L856.865 154.087ZM898.429 211.265L955.194 213.247L955.553 202.991L898.787 201.008L898.429 211.265ZM959.537 205.119L906.283 131.215L897.957 137.215L951.21 211.119L959.537 205.119ZM906.025 137.545L962.365 71.4707L954.556 64.8119L898.216 130.886L906.025 137.545ZM958.64 63.0131L904.273 61.1145L903.915 71.371L958.281 73.2696L958.64 63.0131ZM900.057 63.0746L858.169 116.445L866.242 122.782L908.13 69.4109L900.057 63.0746ZM867.334 119.792L869.246 65.0259L858.99 64.6677L857.077 119.434L867.334 119.792ZM864.297 59.7185L817.526 58.0852L817.167 68.3417L863.939 69.975L864.297 59.7185ZM812.218 63.0344L807.332 202.949L817.589 203.307L822.475 63.3926L812.218 63.0344ZM1144.31 214.717L1139.19 214.538L1139.01 219.666L1144.14 219.845L1144.31 214.717ZM1191.09 216.35L1190.91 221.478L1196.04 221.657L1196.21 216.529L1191.09 216.35ZM1195.97 76.4354L1201.1 76.6145L1201.28 71.4862L1196.15 71.3071L1195.97 76.4354ZM1149.2 74.8021L1149.38 69.6738L1144.25 69.4948L1144.07 74.623L1149.2 74.8021ZM1147.13 134.166L1148.08 139.208L1152.11 138.444L1152.26 134.345L1147.13 134.166ZM1110.42 73.448L1115.55 73.6271L1115.73 68.4988L1110.6 68.3197L1110.42 73.448ZM1063.65 71.8147L1063.83 66.6864L1058.7 66.5074L1058.52 71.6356L1063.65 71.8147ZM1145.68 175.741L1150.8 175.92L1151.02 169.828L1144.98 170.657L1145.68 175.741ZM1144.14 219.845L1190.91 221.478L1191.27 211.222L1144.49 209.589L1144.14 219.845ZM1196.21 216.529L1201.1 76.6145L1190.84 76.2563L1185.96 216.171L1196.21 216.529ZM1196.15 71.3071L1149.38 69.6738L1149.02 79.9303L1195.79 81.5636L1196.15 71.3071ZM1144.07 74.623L1142 133.987L1152.26 134.345L1154.33 74.9812L1144.07 74.623ZM1146.17 129.124C1140.34 130.229 1134.7 130.599 1128.65 130.387L1128.29 140.644C1135.03 140.879 1141.43 140.468 1148.08 139.208L1146.17 129.124ZM1128.65 130.387C1121.89 130.151 1118.57 128.725 1116.83 126.92C1115.13 125.153 1113.87 121.89 1114.1 115.202L1103.84 114.844C1103.58 122.546 1104.86 129.279 1109.44 134.035C1113.98 138.752 1120.66 140.377 1128.29 140.644L1128.65 130.387ZM1114.1 115.202L1115.55 73.6271L1105.3 73.2689L1103.84 114.844L1114.1 115.202ZM1110.6 68.3197L1063.83 66.6864L1063.47 76.9429L1110.25 78.5762L1110.6 68.3197ZM1058.52 71.6356L1056.82 120.406L1067.08 120.764L1068.78 71.9938L1058.52 71.6356ZM1056.82 120.406C1056.23 137.378 1060.29 152.697 1070.63 163.984C1080.98 175.295 1096.92 181.774 1118.42 182.525L1118.78 172.268C1099.11 171.582 1086.16 165.745 1078.2 157.054C1070.22 148.341 1066.55 135.972 1067.08 120.764L1056.82 120.406ZM1118.42 182.525C1126.77 182.817 1135.7 182.291 1146.37 180.824L1144.98 170.657C1134.74 172.062 1126.42 172.535 1118.78 172.268L1118.42 182.525ZM1140.55 175.561L1139.19 214.538L1149.44 214.896L1150.8 175.92L1140.55 175.561ZM1359.39 222.228L1354.26 222.048L1354.09 227.177L1359.21 227.356L1359.39 222.228ZM1406.16 223.861L1405.99 228.989L1411.11 229.168L1411.29 224.04L1406.16 223.861ZM1408.04 170.293L1412.27 167.4L1403.45 154.479L1402.91 170.114L1408.04 170.293ZM1445.54 225.236L1441.3 228.129L1442.77 230.273L1445.36 230.364L1445.54 225.236ZM1502.31 227.218L1502.13 232.346L1512.59 232.712L1506.47 224.218L1502.31 227.218ZM1449.05 153.315L1445.15 149.985L1442.54 153.048L1444.89 156.314L1449.05 153.315ZM1505.39 87.2406L1509.3 90.57L1516.19 82.4832L1505.57 82.1124L1505.39 87.2406ZM1451.03 85.3421L1451.21 80.2138L1448.6 80.1228L1446.99 82.1739L1451.03 85.3421ZM1409.14 138.713L1404.01 138.534L1403.46 154.258L1413.17 141.881L1409.14 138.713ZM1411.05 83.9461L1416.18 84.1252L1416.36 78.9969L1411.23 78.8178L1411.05 83.9461ZM1364.28 82.3128L1364.46 77.1845L1359.33 77.0055L1359.15 82.1337L1364.28 82.3128ZM1359.21 227.356L1405.99 228.989L1406.34 218.733L1359.57 217.099L1359.21 227.356ZM1411.29 224.04L1413.16 170.473L1402.91 170.114L1401.04 223.682L1411.29 224.04ZM1403.8 173.187L1441.3 228.129L1449.78 222.343L1412.27 167.4L1403.8 173.187ZM1445.36 230.364L1502.13 232.346L1502.48 222.09L1445.72 220.108L1445.36 230.364ZM1506.47 224.218L1453.22 150.315L1444.89 156.314L1498.14 230.218L1506.47 224.218ZM1452.96 156.644L1509.3 90.57L1501.49 83.9112L1445.15 149.985L1452.96 156.644ZM1505.57 82.1124L1451.21 80.2138L1450.85 90.4703L1505.21 92.3689L1505.57 82.1124ZM1446.99 82.1739L1405.1 135.545L1413.17 141.881L1455.06 88.5102L1446.99 82.1739ZM1414.27 138.892L1416.18 84.1252L1405.92 83.767L1404.01 138.534L1414.27 138.892ZM1411.23 78.8178L1364.46 77.1845L1364.1 87.441L1410.87 89.0743L1411.23 78.8178ZM1359.15 82.1337L1354.26 222.048L1364.52 222.407L1369.41 82.4919L1359.15 82.1337ZM1494.99 182.536L1489.87 182.357L1489.69 187.485L1494.81 187.664L1494.99 182.536ZM1564.55 184.965L1564.37 190.093L1569.5 190.272L1569.68 185.144L1564.55 184.965ZM1565.85 147.787L1570.98 147.966L1571.16 142.838L1566.03 142.659L1565.85 147.787ZM1496.29 145.358L1496.47 140.23L1491.34 140.051L1491.16 145.179L1496.29 145.358ZM1494.81 187.664L1564.37 190.093L1564.73 179.836L1495.17 177.407L1494.81 187.664ZM1569.68 185.144L1570.98 147.966L1560.72 147.608L1559.42 184.786L1569.68 185.144ZM1566.03 142.659L1496.47 140.23L1496.11 150.487L1565.67 152.916L1566.03 142.659ZM1491.16 145.179L1489.87 182.357L1500.12 182.715L1501.42 145.537L1491.16 145.179ZM1661.38 232.773L1656.25 232.594L1656.07 237.722L1661.2 237.901L1661.38 232.773ZM1708.15 234.407L1707.97 239.535L1713.1 239.714L1713.28 234.586L1708.15 234.407ZM1713.04 94.4918L1718.17 94.6709L1718.35 89.5426L1713.22 89.3635L1713.04 94.4918ZM1666.27 92.8585L1666.45 87.7302L1661.32 87.5512L1661.14 92.6794L1666.27 92.8585ZM1664.2 152.222L1665.15 157.264L1669.18 156.501L1669.32 152.401L1664.2 152.222ZM1627.49 91.5044L1632.62 91.6835L1632.8 86.5552L1627.67 86.3761L1627.49 91.5044ZM1580.72 89.8711L1580.9 84.7428L1575.77 84.5638L1575.59 89.692L1580.72 89.8711ZM1662.74 193.797L1667.87 193.976L1668.08 187.884L1662.05 188.713L1662.74 193.797ZM1661.2 237.901L1707.97 239.535L1708.33 229.278L1661.56 227.645L1661.2 237.901ZM1713.28 234.586L1718.17 94.6709L1707.91 94.3127L1703.03 234.227L1713.28 234.586ZM1713.22 89.3635L1666.45 87.7302L1666.09 97.9867L1712.86 99.62L1713.22 89.3635ZM1661.14 92.6794L1659.07 152.043L1669.32 152.401L1671.4 93.0376L1661.14 92.6794ZM1663.24 147.181C1657.41 148.285 1651.77 148.655 1645.72 148.444L1645.36 158.7C1652.09 158.935 1658.49 158.525 1665.15 157.264L1663.24 147.181ZM1645.72 148.444C1638.96 148.208 1635.64 146.782 1633.9 144.976C1632.2 143.209 1630.93 139.947 1631.17 133.258L1620.91 132.9C1620.64 140.603 1621.93 147.335 1626.51 152.092C1631.04 156.809 1637.73 158.434 1645.36 158.7L1645.72 148.444ZM1631.17 133.258L1632.62 91.6835L1622.36 91.3253L1620.91 132.9L1631.17 133.258ZM1627.67 86.3761L1580.9 84.7428L1580.54 94.9994L1627.31 96.6326L1627.67 86.3761ZM1575.59 89.692L1573.89 138.462L1584.15 138.82L1585.85 90.0502L1575.59 89.692ZM1573.89 138.462C1573.3 155.435 1577.36 170.753 1587.7 182.041C1598.05 193.352 1613.98 199.83 1635.49 200.581L1635.85 190.325C1616.18 189.638 1603.22 183.801 1595.27 175.11C1587.29 166.397 1583.61 154.028 1584.15 138.82L1573.89 138.462ZM1635.49 200.581C1643.84 200.873 1652.76 200.347 1663.44 198.881L1662.05 188.713C1651.81 190.119 1643.49 190.592 1635.85 190.325L1635.49 200.581ZM1657.62 193.618L1656.25 232.594L1666.51 232.952L1667.87 193.976L1657.62 193.618ZM1876.46 240.284L1871.33 240.105L1871.15 245.233L1876.28 245.412L1876.46 240.284ZM1923.23 241.917L1923.05 247.045L1928.18 247.225L1928.36 242.096L1923.23 241.917ZM1925.1 188.35L1929.34 185.457L1920.52 172.536L1919.97 188.171L1925.1 188.35ZM1962.61 243.292L1958.37 246.185L1959.83 248.33L1962.43 248.421L1962.61 243.292ZM2019.37 245.275L2019.19 250.403L2029.66 250.768L2023.54 242.275L2019.37 245.275ZM1966.12 171.371L1962.22 168.042L1959.6 171.105L1961.96 174.371L1966.12 171.371ZM2022.46 105.297L2026.37 108.626L2033.26 100.54L2022.64 100.169L2022.46 105.297ZM1968.09 103.398L1968.27 98.2702L1965.67 98.1792L1964.06 100.23L1968.09 103.398ZM1926.21 156.769L1921.08 156.59L1920.53 172.314L1930.24 159.937L1926.21 156.769ZM1928.12 102.002L1933.25 102.182L1933.43 97.0533L1928.3 96.8742L1928.12 102.002ZM1881.35 100.369L1881.53 95.2409L1876.4 95.0619L1876.22 100.19L1881.35 100.369ZM1876.28 245.412L1923.05 247.045L1923.41 236.789L1876.64 235.156L1876.28 245.412ZM1928.36 242.096L1930.23 188.529L1919.97 188.171L1918.1 241.738L1928.36 242.096ZM1920.86 191.243L1958.37 246.185L1966.85 240.399L1929.34 185.457L1920.86 191.243ZM1962.43 248.421L2019.19 250.403L2019.55 240.146L1962.79 238.164L1962.43 248.421ZM2023.54 242.275L1970.28 168.371L1961.96 174.371L2015.21 248.274L2023.54 242.275ZM1970.02 174.7L2026.37 108.626L2018.56 101.968L1962.22 168.042L1970.02 174.7ZM2022.64 100.169L1968.27 98.2702L1967.91 108.527L2022.28 110.425L2022.64 100.169ZM1964.06 100.23L1922.17 153.601L1930.24 159.937L1972.13 106.567L1964.06 100.23ZM1931.33 156.948L1933.25 102.182L1922.99 101.823L1921.08 156.59L1931.33 156.948ZM1928.3 96.8742L1881.53 95.2409L1881.17 105.497L1927.94 107.131L1928.3 96.8742ZM1876.22 100.19L1871.33 240.105L1881.59 240.463L1886.47 100.548L1876.22 100.19Z" fill="white"/>
<path d="M657.588 134.787L654.954 137.152L658.022 138.919L672.097 147.022L665.087 161.672L663.559 164.866L667.07 165.324L683.174 167.424L682.304 183.641L682.115 187.176L685.533 186.256L701.216 182.033L706.618 197.349L707.796 200.688L710.602 198.529L723.475 188.627L734.327 200.709L736.693 203.343L738.459 200.275L746.562 186.2L761.213 193.21L764.406 194.738L764.864 191.227L766.964 175.123L783.182 175.993L786.717 176.182L785.796 172.764L781.573 157.081L796.889 151.679L800.228 150.501L798.07 147.695L788.167 134.823L800.25 123.97L802.883 121.604L799.815 119.838L785.74 111.735L792.75 97.0847L794.278 93.8912L790.768 93.4334L774.663 91.3334L775.533 75.1157L775.723 71.5805L772.304 72.501L756.622 76.7238L751.219 61.4077L750.042 58.0691L747.236 60.2277L734.363 70.1304L723.51 58.0477L721.145 55.4138L719.378 58.4819L711.275 72.557L696.625 65.5471L693.431 64.019L692.974 67.5296L690.874 83.6342L674.656 82.7643L671.121 82.5746L672.041 85.9931L676.264 101.676L660.948 107.078L657.609 108.256L659.768 111.062L669.671 123.934L657.588 134.787Z" stroke="white" stroke-width="5.13096"/>
<path d="M1206.6 156.942L1203.97 159.308L1207.04 161.074L1221.11 169.177L1214.1 183.828L1212.57 187.021L1216.08 187.479L1232.19 189.579L1231.32 205.797L1231.13 209.332L1234.55 208.411L1250.23 204.188L1255.63 219.505L1256.81 222.843L1259.62 220.685L1272.49 210.782L1283.34 222.865L1285.71 225.498L1287.47 222.43L1295.58 208.355L1310.23 215.365L1313.42 216.893L1313.88 213.383L1315.98 197.278L1332.2 198.148L1335.73 198.338L1334.81 194.919L1330.59 179.237L1345.9 173.834L1349.24 172.657L1347.08 169.851L1337.18 156.978L1349.26 146.125L1351.9 143.76L1348.83 141.993L1334.76 133.89L1341.76 119.24L1343.29 116.046L1339.78 115.589L1323.68 113.489L1324.55 97.271L1324.74 93.7358L1321.32 94.6563L1305.64 98.8791L1300.23 83.563L1299.06 80.2244L1296.25 82.383L1283.38 92.2857L1272.53 80.2029L1270.16 77.5691L1268.39 80.6372L1260.29 94.7123L1245.64 87.7024L1242.45 86.1743L1241.99 89.6848L1239.89 105.789L1223.67 104.92L1220.14 104.73L1221.06 108.148L1225.28 123.831L1209.96 129.233L1206.62 130.411L1208.78 133.217L1218.69 146.09L1206.6 156.942Z" stroke="white" stroke-width="5.13096"/>
<path d="M1724.6 170.942L1721.97 173.308L1725.04 175.074L1739.11 183.177L1732.1 197.828L1730.57 201.021L1734.08 201.479L1750.19 203.579L1749.32 219.797L1749.13 223.332L1752.55 222.411L1768.23 218.188L1773.63 233.505L1774.81 236.843L1777.62 234.685L1790.49 224.782L1801.34 236.865L1803.71 239.498L1805.47 236.43L1813.58 222.355L1828.23 229.365L1831.42 230.893L1831.88 227.383L1833.98 211.278L1850.2 212.148L1853.73 212.338L1852.81 208.919L1848.59 193.237L1863.9 187.834L1867.24 186.657L1865.08 183.851L1855.18 170.978L1867.26 160.125L1869.9 157.76L1866.83 155.993L1852.75 147.89L1859.76 133.24L1861.29 130.046L1857.78 129.589L1841.68 127.489L1842.55 111.271L1842.74 107.736L1839.32 108.656L1823.64 112.879L1818.23 97.563L1817.06 94.2244L1814.25 96.383L1801.38 106.286L1790.53 94.2029L1788.16 91.5691L1786.39 94.6372L1778.29 108.712L1763.64 101.702L1760.45 100.174L1759.99 103.685L1757.89 119.789L1741.67 118.92L1738.14 118.73L1739.06 122.148L1743.28 137.831L1727.96 143.233L1724.62 144.411L1726.78 147.217L1736.69 160.09L1724.6 170.942Z" stroke="white" stroke-width="5.13096"/>
<path d="M143.588 119.185L140.954 121.551L144.022 123.317L158.097 131.42L151.087 146.071L149.559 149.264L153.07 149.722L169.174 151.822L168.305 168.04L168.115 171.575L171.533 170.654L187.216 166.432L192.618 181.748L193.796 185.086L196.602 182.928L209.475 173.025L220.327 185.108L222.693 187.742L224.459 184.673L232.562 170.598L247.213 177.608L250.406 179.136L250.864 175.626L252.964 159.521L269.182 160.391L272.717 160.581L271.796 157.162L267.573 141.48L282.89 136.077L286.228 134.9L284.07 132.094L274.167 119.221L286.25 108.369L288.883 106.003L285.815 104.237L271.74 96.1334L278.75 81.4831L280.278 78.2896L276.768 77.8319L260.663 75.7318L261.533 59.5141L261.723 55.979L258.304 56.8995L242.622 61.1222L237.219 45.8061L236.042 42.4675L233.236 44.6261L220.363 54.5289L209.51 42.4461L207.145 39.8123L205.378 42.8804L197.275 56.9555L182.625 49.9455L179.431 48.4175L178.974 51.928L176.874 68.0326L160.656 67.1627L157.121 66.9731L158.041 70.3915L162.264 86.074L146.948 91.4765L143.609 92.6541L145.768 95.4601L155.671 108.333L143.588 119.185Z" stroke="white" stroke-width="5.13096"/>
</svg>
