<svg width="248" height="173" viewBox="0 0 248 173" fill="none" xmlns="http://www.w3.org/2000/svg">
<path d="M227.107 53.5215L227.107 53.5207C221.141 44.2537 214.72 35.2935 204.019 30.3571C203.608 30.1649 203.413 29.6198 203.608 29.2201L203.632 29.1708L203.653 29.1199C203.791 28.7754 204.272 28.5114 204.805 28.756C215.536 33.7036 222.258 42.5909 228.626 52.5757L228.629 52.5805C238.986 68.6843 243.278 85.5808 241.018 101.297C238.76 116.991 229.945 131.677 213.765 143.359L213.765 143.359C189.527 160.873 156.924 170.377 124.319 170.999C91.7107 171.621 59.2696 163.358 35.3148 145.546L35.3142 145.545C34.3953 144.863 33.4503 144.172 32.4865 143.467C21.7392 135.609 8.65365 126.041 3.3906 107.448C-0.921895 92.0739 2.8192 77.866 10.5506 65.4398C21.9452 47.2157 41.9713 33.0869 56.1025 25.4147C81.5779 11.6555 115.359 2.36306 149.567 2.12262C183.771 1.8822 218.281 10.689 245.356 32.9788C245.718 33.2795 245.787 33.8423 245.461 34.2458C245.197 34.5725 244.638 34.7062 244.125 34.3058C217.151 12.1008 182.904 3.51052 149.201 3.83553C115.498 4.16056 82.2167 13.3991 57.0396 26.9993L57.0382 27.0001C45.5131 33.2411 29.8703 43.9035 18.4005 57.7724C7.17311 71.293 -0.205554 88.1376 5.16885 107.007C10.3603 125.25 23.2916 134.615 33.3396 141.893C34.399 142.66 35.4264 143.404 36.4092 144.133C60.2636 161.866 92.3543 169.941 124.403 169.297C156.454 168.653 188.632 159.285 212.701 141.926L212.703 141.925C228.302 130.645 236.945 116.305 239.13 100.83C241.312 85.3768 237.032 68.9598 227.107 53.5215Z" stroke="#D3FF1F" stroke-width="3"/>
</svg>
