<svg width="506" height="46" viewBox="0 0 506 46" fill="none" xmlns="http://www.w3.org/2000/svg">
<path fill-rule="evenodd" clip-rule="evenodd" d="M302.803 20.7984C235.468 21.6072 168.1 24.8156 101.059 30.5506C69.1855 33.2778 32.1707 32.9369 1.25732 42.2345C-0.283011 42.7024 0.0103408 44.1061 0.0436814 44.2464C0.110363 44.5338 0.390495 45.4896 1.61743 45.5364C1.75079 45.5431 2.69093 45.4094 3.05101 45.3626C12.1797 44.1595 21.275 42.7559 30.4103 41.6196C61.9505 37.6827 93.5841 34.7082 125.264 32.1014C167.313 28.639 209.723 26.7941 251.885 25.3504C274.964 24.5616 298.595 25.611 321.747 23.9801C330.249 23.9333 338.751 23.9267 347.253 23.9535C382.794 24.0805 418.295 25.4307 453.776 27.2822C465.185 27.8771 473.887 28.5187 485.056 28.9532C489.297 29.1203 496.025 29.234 500.706 29.3075C501.393 29.3208 503.147 29.3341 503.873 29.3408C503.947 29.3541 504.02 29.3541 504.1 29.3541C504.38 29.3541 504.514 29.3341 504.54 29.3341C506.127 29.1001 505.981 27.5962 505.941 27.369C505.934 27.3222 505.694 26.0522 504.327 26.0054C504 25.992 501.66 25.9788 500.759 25.9654C496.105 25.8919 489.404 25.7782 485.183 25.6178C474.034 25.1834 465.338 24.5417 453.949 23.9468C418.415 22.0953 382.861 20.7384 347.266 20.6114C342.918 20.598 338.564 20.5913 334.217 20.598C334.07 20.217 333.743 19.7893 333.023 19.6021C332.35 19.4283 327.528 19.2746 325.668 19.1209C311.898 17.9846 312.305 18.038 297.155 17.1089C274.21 15.6986 270.716 15.3776 246.851 14.7827C203.501 13.6999 160.132 13.7869 116.776 13.8938C95.3712 13.954 72.4528 15.4044 50.7214 12.6973C57.883 11.8551 65.0712 11.2402 72.2461 10.5384C96.7448 8.14544 121.263 6.66149 145.862 5.61876C204.868 3.1189 263.968 2.12304 322.954 5.53195C310.398 5.65226 297.849 5.93291 285.293 6.11338C234.181 6.86201 182.577 6.3006 131.572 10.1841C130.659 10.2576 129.972 11.0597 130.039 11.9754C130.105 12.8978 130.912 13.5863 131.826 13.5195C182.764 9.63598 234.295 10.2041 285.339 9.45545C304.303 9.1814 323.261 8.68682 342.225 8.83387C348.733 8.88735 355.241 9.12802 361.749 9.20823C363.036 9.22828 366.35 9.48228 366.824 9.37533C367.871 9.14138 368.097 8.36597 368.164 7.98498C368.197 7.75772 368.304 6.44762 366.704 5.97973C355.781 2.78472 335.624 2.93177 325.008 2.30346C265.295 -1.23914 205.462 -0.249909 145.722 2.2767C121.063 3.32611 96.4847 4.81676 71.9194 7.21637C63.3375 8.05188 54.7356 8.77376 46.1871 9.88333C44.8068 10.0638 41.7062 10.3245 40.2058 10.5986C39.579 10.7122 39.1256 10.8725 38.9255 10.9861C38.1454 11.4273 38.0053 12.069 38.0053 12.5035C37.9987 12.8377 38.1387 14.0141 39.7724 14.3349C64.6645 19.221 91.7504 17.3027 116.783 17.2359C160.112 17.1289 203.448 17.0419 246.771 18.1248C270.576 18.7197 274.057 19.0339 296.955 20.4443C299.216 20.578 301.129 20.6982 302.803 20.7984Z" fill="#D3FF1F"/>
</svg>
