<svg width="87" height="137" viewBox="0 0 87 137" fill="none" xmlns="http://www.w3.org/2000/svg">
<path d="M29.6818 94.0036C29.0658 92.7513 28.3875 91.5122 27.7192 90.2913L27.7135 90.2808L27.7116 90.2775C26.061 87.2986 24.4356 84.3571 23.6211 81.5047L23.621 81.5043C22.7819 78.5714 22.7926 75.702 24.4094 72.8075C24.7501 72.2283 25.4223 71.5662 26.4704 70.9858L26.4837 70.9785L26.4966 70.9705C27.9376 70.0878 30.0196 69.2304 32.5661 68.4603L32.5763 68.4573L32.5763 68.4572C36.4697 67.2126 41.3493 66.0552 46.4122 64.8544C47.6309 64.5654 48.8602 64.2738 50.0889 63.9779C56.3902 62.4604 62.6774 60.8283 67.2929 58.844C69.4285 57.9628 71.2315 56.9489 72.5076 55.8244L72.5171 55.816L72.517 55.8159C73.6038 54.8233 74.4233 53.6494 74.3828 52.224L29.6818 94.0036ZM29.6818 94.0036C29.0826 92.7741 28.415 91.539 27.7289 90.2971L27.7277 90.2949C27.6484 90.1501 27.5688 90.005 27.489 89.8597C25.9851 87.1193 24.4353 84.2952 23.6414 81.5202L23.6413 81.5196C22.8361 78.6961 22.7847 75.8027 24.4193 72.9366C24.8345 72.1126 25.6305 71.5282 26.5043 71.0321C28.0156 70.1555 30.1099 69.2854 32.5903 68.5286C36.5518 67.2636 41.5144 66.0866 46.5979 64.8809C47.8145 64.5924 49.0381 64.3022 50.2565 64.0088C56.5974 62.4817 62.7989 60.867 67.3093 58.9303L67.3113 58.9295C70.007 57.7821 72.0333 56.5412 73.1967 55.2434L73.1984 55.2415C74.0511 54.2968 74.4341 53.2633 74.406 52.2614C74.3711 51.2542 73.931 50.1042 72.821 48.8453L72.8159 48.8394L72.8109 48.8335C71.2713 47.0096 68.4821 44.961 64.0316 42.6526L64.0294 42.6515C62.1858 41.6867 60.2612 40.8397 58.3116 40.003C58.0118 39.8744 57.7112 39.7459 57.4103 39.6172C55.7615 38.9123 54.1013 38.2026 52.4894 37.4316L52.4823 37.4282C46.6452 34.5538 40.6335 31.4748 35.5448 27.5952L35.5406 27.6014C35.5406 27.6019 35.5407 27.6024 35.5408 27.603C35.5419 27.61 35.5474 27.6279 35.5698 27.6474C40.6076 31.4829 46.5834 34.5565 52.5065 37.479L52.5074 37.4795C54.2196 38.3274 55.9814 39.0786 57.7628 39.8382C57.9291 39.9091 58.0957 39.9801 58.2623 40.0513C60.2063 40.8813 62.1669 41.7315 64.0587 42.7247L64.0588 42.7248C68.3337 44.9704 71.1846 46.9479 72.8214 48.8718L72.824 48.875C73.7715 50.0016 74.351 51.0816 74.3828 52.2238C74.3828 52.2237 74.3828 52.2235 74.3828 52.2234L29.6818 94.0036ZM67.5736 59.6096C70.2968 58.4505 72.4375 57.1612 73.7064 55.7456L67.5736 59.6096ZM67.5736 59.6096C62.1175 61.9524 54.2611 63.8158 46.7383 65.6C41.655 66.8057 36.724 67.9752 32.7889 69.2321L67.5736 59.6096ZM19.2121 117.812L19.2108 117.813C19.2084 117.824 19.2073 117.837 19.2082 117.849C19.2084 117.853 19.2089 117.857 19.2094 117.86L19.2153 117.857C28.4792 112.963 31.5981 108.165 32.0609 103.799C32.207 102.415 32.0874 101.027 31.7772 99.6353C32.0696 100.983 32.186 102.358 32.0414 103.758C31.5458 108.585 27.9592 113.143 19.2121 117.812Z" stroke="#D3FF1F" stroke-width="1.5"/>
<path d="M18.4641 119.121C18.2113 119.106 17.9146 119.046 17.7272 118.987C17.5024 118.929 17.3715 118.764 17.3562 118.745C17.3558 118.744 17.3555 118.744 17.3553 118.743C17.297 118.671 17.2661 118.603 17.2574 118.584C17.2345 118.533 17.2218 118.49 17.2183 118.478C17.2084 118.445 17.2017 118.415 17.1985 118.399C17.1947 118.381 17.1909 118.362 17.1877 118.342C17.1871 118.339 17.1861 118.333 17.185 118.325C17.153 118.149 17.1543 118.014 17.1553 117.917C17.1555 117.901 17.1556 117.886 17.1556 117.872L17.1556 117.86L17.1559 117.848C17.1706 117.351 17.2898 116.778 17.4185 116.209L17.4222 116.192L17.4267 116.176C17.6467 115.37 17.9495 114.507 18.2195 113.738C18.2669 113.603 18.3133 113.47 18.3581 113.342C18.5106 112.904 18.6437 112.51 18.742 112.174C18.8438 111.826 18.8919 111.592 18.9002 111.458L18.9002 111.458L18.9007 111.45C19.1348 108.198 17.5604 105.102 13.6895 103.233C13.6817 103.233 13.6733 103.236 13.6658 103.239C13.6585 103.242 13.6544 103.246 13.6529 103.247C13.6518 103.248 13.6515 103.249 13.651 103.25C13.6499 103.253 13.6498 103.254 13.6498 103.256C13.6498 103.258 13.6501 103.261 13.6523 103.267C13.6562 103.278 13.6653 103.291 13.6834 103.302C17.3477 105.013 19.1418 108.088 18.8946 111.431L18.8946 111.431C18.8747 111.697 18.7937 112.003 18.7059 112.287C18.6143 112.583 18.4955 112.916 18.372 113.253C18.3604 113.286 18.3487 113.319 18.3369 113.352C17.9108 114.549 17.4196 115.929 17.2305 117.029L17.2286 117.04L17.2263 117.052C17.1234 117.559 17.1146 118.004 17.1785 118.334L17.1787 118.335C17.2335 118.619 17.3523 118.816 17.437 118.891L17.4685 118.919L17.4966 118.951C17.5136 118.97 17.5607 119.013 17.6693 119.067C17.8162 119.113 18.0773 119.156 18.4573 119.189L18.4652 119.189L18.4732 119.19C19.0177 119.25 19.7127 119.276 20.3593 119.297C20.4302 119.299 20.5013 119.301 20.572 119.304C21.0926 119.32 21.5933 119.335 21.8742 119.371C26.486 119.657 31.5157 119.681 36.043 118.565C36.0436 118.563 36.0443 118.56 36.0447 118.556C36.046 118.547 36.0467 118.53 36.0416 118.505C36.0408 118.504 36.0402 118.504 36.0398 118.504C36.0397 118.504 36.0395 118.504 36.0393 118.504C31.4351 119.64 26.3869 119.636 21.8314 119.252C21.7446 119.25 21.6191 119.249 21.4648 119.247C20.7492 119.241 19.4155 119.228 18.4641 119.121Z" stroke="#D3FF1F" stroke-width="1.5"/>
</svg>
