<svg width="33" height="29" viewBox="0 0 33 29" fill="none" xmlns="http://www.w3.org/2000/svg">
<path d="M21.4118 1.34652L8.12393 3.89563C7.6633 3.98399 7.24864 4.24255 6.96183 4.62024L2.2943 10.7667C1.66202 11.5994 1.8075 12.7767 2.61943 13.398L17.0306 24.4248C17.9204 25.1056 19.2181 24.8284 19.7895 23.8354L28.7518 8.25872C29.2257 7.43508 29.0284 6.39781 28.2903 5.83307L22.8721 1.68732C22.4587 1.37102 21.9288 1.24734 21.4118 1.34652Z" stroke="white" stroke-width="2" stroke-linecap="round"/>
<path d="M1.55054 12.1963L29.18 6.89912" stroke="white" stroke-width="2" stroke-linecap="round"/>
<path d="M12.2867 3.55079L8.90597 9.86569C8.56935 10.4945 8.60766 11.2531 9.00511 11.8287L16.2499 22.3208C17.1591 23.6375 19.2073 23.2246 19.6001 21.6454L22.7109 9.13891C22.873 8.48729 22.6816 7.80519 22.2081 7.34708L17.292 2.5906" stroke="white" stroke-width="2" stroke-linecap="round"/>
</svg>
