<svg width="53" height="50" viewBox="0 0 53 50" fill="none" xmlns="http://www.w3.org/2000/svg">
<path d="M35.6716 30.2444C34.5731 30.6563 31.8648 30.9255 29.8195 28.7066" stroke="white" stroke-width="1.06248" stroke-linecap="round"/>
<path d="M34.6649 28.5201C34.1747 28.7135 32.815 28.8491 31.2975 27.8437" stroke="white" stroke-width="1.06248" stroke-linecap="round"/>
<path d="M28.5258 37.8149C29.1607 38.5763 27.9014 40.3783 26.7852 40.2678C24.7572 40.067 24.9647 38.6954 23.4532 38.8516C21.6515 39.0378 22.1989 40.5425 20.3791 40.6646C18.9791 40.7585 18.7915 39.9654 18.148 38.8633C17.5046 37.7612 16.7722 38.4773 15.664 39.1243C14.7775 39.6419 14.1041 39.2289 14.1822 37.9743" stroke="white" stroke-width="1.06248" stroke-linecap="round"/>
<path d="M20.0416 31.1428C18.314 28.4802 16.3638 21.2808 20.9529 15.8044C26.6892 8.95901 35.6634 9.68386 39.7839 13.4859C43.9044 17.288 46.0355 23.9598 41.0628 28.7689C36.0901 33.578 29.4976 32.6616 27.5015 28.6198C25.5055 24.5779 24.6542 19.8469 29.7508 16.3368C34.8474 12.8267 38.1087 16.3024 38.9096 17.6724C40.2241 19.9209 41.3245 23.2365 37.4219 25.8009C33.5192 28.3653 30.5667 25.5738 30.1087 23.7491C29.6088 21.7571 30.2299 21.0461 31.4508 20.2754C33.0856 19.2434 35.1934 21.0439 33.7119 22.4916" stroke="white" stroke-width="1.06248" stroke-linecap="round"/>
<path d="M28.8063 30.2379C27.1666 31.2404 23.0548 33.08 20.0659 31.1338C16.3298 28.701 16.3477 24.0844 13.5973 22.154C10.9863 20.3215 11.1383 18.5024 10.4293 17.2879C9.72025 16.0734 7.98699 16.7443 8.77169 18.3218C9.5564 19.8992 11.1854 21.2519 10.7487 21.7867C10.312 22.3214 9.97304 22.4865 9.16239 21.3313C8.35175 20.1761 7.88653 19.4869 6.90584 18.9738C5.92515 18.4607 4.77937 18.9412 5.59003 20.0964C6.40069 21.2517 7.54103 21.3473 8.41076 22.6036C9.2805 23.86 8.69491 23.8611 8.24601 24.2589C7.7971 24.6567 6.73118 26.0269 8.00731 27.046C9.28343 28.0652 10.2165 26.1634 11.3651 27.6641C12.5137 29.1648 12.2918 30.6514 12.1881 32.3404C12.0843 34.0294 12.4886 35.4219 13.4433 36.3572C14.3981 37.2926 14.6157 39.0654 13.0586 39.4316C11.8129 39.7246 11.8954 40.4726 12.0923 40.81C12.2696 41.1136 12.8543 41.6951 13.7749 41.5919C14.9256 41.4629 15.5186 40.8452 16.3552 41.5782C17.1918 42.3111 16.9698 43.7977 19.0422 44.0806C21.1145 44.3635 22.6997 41.9453 24.0702 41.9594C25.4407 41.9735 25.3536 43.9242 28.2315 42.7869C31.1094 41.6495 29.2496 40.564 30.6294 39.8941C32.0093 39.2243 32.905 40.0584 35.0385 38.8128C37.1721 37.5672 37.8263 35.4211 37.6844 34.0112C37.5424 32.6013 38.549 32.6922 39.5909 31.6768C40.4245 30.8645 40.5099 29.8285 40.4484 29.412" stroke="white" stroke-width="1.06248" stroke-linecap="round"/>
<path d="M24.4871 29.0074C23.8021 29.2265 22.7426 29.0804 21.9198 28.0423C20.8912 26.7447 20.778 22.355 21.0382 20.7118M36.6363 19.0698C37.3096 19.579 38.4689 21.6897 37.1018 23.2471C35.7346 24.8045 34.0851 25.0101 33.6128 24.2012" stroke="white" stroke-width="1.06248" stroke-linecap="round"/>
<circle r="0.285234" transform="matrix(-0.863597 0.504182 0.504182 0.863597 11.4488 23.5165)" fill="white"/>
<circle r="0.285234" transform="matrix(-0.863597 0.504182 0.504182 0.863597 10.3076 24.0868)" fill="white"/>
</svg>
